<svg width="44" height="45" viewBox="0 0 44 45" fill="none" xmlns="http://www.w3.org/2000/svg">
<mask id="mask0_1909_20493" style="mask-type:alpha" maskUnits="userSpaceOnUse" x="0" y="0" width="44" height="45">
<rect x="0.42627" y="0.732422" width="43.3557" height="43.3121" fill="#D9D9D9"/>
</mask>
<g mask="url(#mask0_1909_20493)">
<path d="M22.1042 28.6597L28.3817 22.3885L22.1042 16.1173L20.5236 17.6963L24.0857 21.2548H15.55V23.5221H24.0857L20.5236 27.0806L22.1042 28.6597ZM22.1072 39.5328C19.746 39.5328 17.523 39.0828 15.4383 38.1829C13.3536 37.283 11.5338 36.0566 9.9788 34.5039C8.4238 32.9512 7.19569 31.134 6.29447 29.0523C5.39324 26.9706 4.94263 24.7503 4.94263 22.3915C4.94263 20.0203 5.39304 17.7914 6.29388 15.705C7.19472 13.6185 8.42228 11.8036 9.97659 10.2602C11.5309 8.71681 13.3499 7.49494 15.4337 6.59462C17.5175 5.6943 19.74 5.24414 22.1012 5.24414C24.4748 5.24414 26.7059 5.69411 28.7944 6.59403C30.883 7.49396 32.6997 8.71528 34.2447 10.258C35.7896 11.8007 37.0127 13.6148 37.914 15.7004C38.8152 17.7859 39.2658 20.0142 39.2658 22.3854C39.2658 24.7443 38.8154 26.9651 37.9146 29.0477C37.0137 31.1303 35.7912 32.9483 34.2469 34.5017C32.7027 36.0551 30.8867 37.282 28.7991 38.1823C26.7115 39.0826 24.4808 39.5328 22.1072 39.5328ZM22.1042 37.2655C26.253 37.2655 29.7721 35.819 32.6617 32.9261C35.5514 30.0333 36.9962 26.5207 36.9962 22.3885C36.9962 18.2439 35.5514 14.7283 32.6617 11.8416C29.7721 8.95484 26.253 7.51148 22.1042 7.51148C17.9678 7.51148 14.4517 8.95484 11.556 11.8416C8.66015 14.7283 7.21225 18.2439 7.21225 22.3885C7.21225 26.5207 8.66015 30.0333 11.556 32.9261C14.4517 35.819 17.9678 37.2655 22.1042 37.2655Z" fill="#6FC54C"/>
</g>
</svg>
