<svg width="40" height="40" viewBox="0 0 40 40" fill="none" xmlns="http://www.w3.org/2000/svg">
<mask id="mask0_1909_19994" style="mask-type:alpha" maskUnits="userSpaceOnUse" x="0" y="0" width="40" height="40">
<rect width="40" height="40" fill="#D9D9D9"/>
</mask>
<g mask="url(#mask0_1909_19994)">
<path d="M13.8761 27.598L20 21.4741L26.124 27.598L27.5983 26.1237L21.4744 19.9998L27.5983 13.8759L26.124 12.4015L20 18.5255L13.8761 12.4015L12.4018 13.8759L18.5257 19.9998L12.4018 26.1237L13.8761 27.598ZM20.0028 35.8331C17.8243 35.8331 15.7734 35.4175 13.8501 34.5864C11.9267 33.7553 10.2478 32.6228 8.81312 31.1888C7.37848 29.7548 6.24543 28.0765 5.41396 26.154C4.58248 24.2315 4.16675 22.1811 4.16675 20.0026C4.16675 17.8127 4.5823 15.7543 5.41341 13.8274C6.24453 11.9005 7.37708 10.2244 8.81108 8.799C10.2451 7.37361 11.9233 6.24518 13.8458 5.41371C15.7683 4.58224 17.8188 4.1665 19.9972 4.1665C22.1871 4.1665 24.2455 4.58206 26.1724 5.41317C28.0993 6.24428 29.7755 7.3722 31.2008 8.79692C32.6262 10.2217 33.7547 11.8971 34.5861 13.8231C35.4176 15.7492 35.8333 17.8071 35.8333 19.997C35.8333 22.1755 35.4178 24.2264 34.5867 26.1498C33.7556 28.0731 32.6276 29.7521 31.2029 31.1867C29.7782 32.6214 28.1028 33.7544 26.1767 34.5859C24.2507 35.4173 22.1927 35.8331 20.0028 35.8331ZM20 33.7391C23.8277 33.7391 27.0745 32.4033 29.7404 29.7316C32.4064 27.06 33.7394 23.816 33.7394 19.9998C33.7394 16.1722 32.4064 12.9254 29.7404 10.2594C27.0745 7.59345 23.8277 6.26046 20 6.26046C16.1838 6.26046 12.9398 7.59345 10.2682 10.2594C7.59654 12.9254 6.26071 16.1722 6.26071 19.9998C6.26071 23.816 7.59654 27.06 10.2682 29.7316C12.9398 32.4033 16.1838 33.7391 20 33.7391Z" fill="#FF1717"/>
</g>
</svg>
