<svg width="25" height="25" viewBox="0 0 25 25" fill="none" xmlns="http://www.w3.org/2000/svg">
<path d="M24.8066 12.1538C24.8066 9.83075 24.1402 7.55636 22.8864 5.60001C21.6326 3.64365 19.8439 2.08728 17.7322 1.11522C15.6205 0.143155 13.2742 -0.203881 10.9712 0.115211C8.66816 0.434302 6.50491 1.40615 4.73761 2.91567C2.97032 4.42518 1.67302 6.40912 0.999345 8.63254C0.325675 10.8559 0.303859 13.2257 0.936481 15.4611C1.5691 17.6965 2.82966 19.704 4.56886 21.2457C6.30807 22.7874 8.45306 23.7989 10.7498 24.1603V15.674H7.65552V12.1538H10.7444V9.47451C10.7444 6.42968 12.561 4.74611 15.3399 4.74611C16.2522 4.75886 17.1623 4.8383 18.063 4.98379V7.9746H16.5293C15.0173 7.9746 14.547 8.91271 14.547 9.87244V12.1538H17.9206L17.3799 15.6668H14.5434V24.1603C17.4044 23.7072 20.0099 22.2491 21.8912 20.0482C23.7725 17.8474 24.8063 15.0481 24.8066 12.1538Z" fill="#515553"/>
<path d="M17.2945 12.8766L17.8352 9.36363H14.4616V7.07506C14.4616 6.11534 14.9319 5.17722 16.4439 5.17722H17.9776V2.18641C17.0769 2.04092 16.1668 1.96148 15.2545 1.94873C12.4756 1.94873 10.659 3.6323 10.659 6.67713V9.35643H7.57373V12.8766H10.6626V21.3701C11.9225 21.5669 13.2053 21.5669 14.4652 21.3701V12.8766H17.2945Z" fill="white"/>
</svg>
