<svg width="25" height="25" viewBox="0 0 25 25" fill="none" xmlns="http://www.w3.org/2000/svg">
<path d="M12.3813 24.3082C19.0996 24.3082 24.5459 18.8666 24.5459 12.1541C24.5459 5.44158 19.0996 0 12.3813 0C5.66305 0 0.216797 5.44158 0.216797 12.1541C0.216797 18.8666 5.66305 24.3082 12.3813 24.3082Z" fill="#515553"/>
<path d="M12.3816 5.88088C14.4271 5.88088 14.6685 5.88989 15.4759 5.9259C15.962 5.9318 16.4435 6.02071 16.8996 6.18879C17.2312 6.31291 17.5315 6.5084 17.7791 6.76138C18.0335 7.00847 18.2293 7.30932 18.3521 7.64188C18.5211 8.09675 18.6102 8.57738 18.6153 9.06255C18.6531 9.86923 18.6603 10.1123 18.6603 12.156C18.6603 14.1997 18.6603 14.441 18.6153 15.2476C18.6102 15.7328 18.5211 16.2135 18.3521 16.6683C18.2248 16.9983 18.0298 17.298 17.7796 17.5483C17.5295 17.7985 17.2297 17.9937 16.8996 18.1214C16.4435 18.2895 15.962 18.3784 15.4759 18.3843C14.6685 18.4203 14.4271 18.4293 12.3816 18.4293C10.3362 18.4293 10.0947 18.4203 9.28731 18.3843C8.80122 18.3784 8.3197 18.2895 7.86361 18.1214C7.53349 17.9937 7.23375 17.7985 6.9836 17.5483C6.73346 17.298 6.53844 16.9983 6.41107 16.6683C6.24208 16.2135 6.15306 15.7328 6.14795 15.2476C6.11011 14.441 6.1029 14.1979 6.1029 12.156C6.1029 10.1141 6.1029 9.86923 6.14795 9.06255C6.15306 8.57738 6.24208 8.09675 6.41107 7.64188C6.53394 7.30932 6.72975 7.00847 6.98415 6.76138C7.23174 6.5084 7.53198 6.31291 7.86361 6.18879C8.3197 6.02071 8.80122 5.9318 9.28731 5.9259C10.0947 5.88989 10.3362 5.88088 12.3816 5.88088ZM12.3816 4.50342C10.3019 4.50342 10.0388 4.50342 9.22423 4.54843C8.58839 4.56272 7.95956 4.68448 7.36441 4.90855C6.85542 5.10485 6.39318 5.40539 6.00739 5.79085C5.6216 6.17631 5.3208 6.63816 5.12433 7.14671C4.89939 7.74053 4.77749 8.36835 4.7639 9.00314C4.72605 9.82061 4.71704 10.0835 4.71704 12.1596C4.71704 14.2357 4.71704 14.5004 4.7639 15.3143C4.77778 15.9496 4.89966 16.578 5.12433 17.1725C5.3212 17.6806 5.62216 18.142 6.00792 18.5271C6.39367 18.9122 6.85571 19.2126 7.36441 19.4088C7.95931 19.6338 8.58829 19.7556 9.22423 19.769C10.0406 19.8068 10.3055 19.8158 12.3816 19.8158C14.4577 19.8158 14.7244 19.8068 15.539 19.769C16.1749 19.7556 16.8039 19.6338 17.3988 19.4088C17.9075 19.2126 18.3695 18.9122 18.7553 18.5271C19.1411 18.142 19.442 17.6806 19.6389 17.1725C19.8636 16.578 19.9854 15.9496 19.9993 15.3143C20.0372 14.4986 20.0462 14.2339 20.0462 12.1596C20.0462 10.0853 20.0462 9.81881 19.9993 9.00314C19.9857 8.36835 19.8638 7.74053 19.6389 7.14671C19.4424 6.63816 19.1416 6.17631 18.7558 5.79085C18.37 5.40539 17.9078 5.10485 17.3988 4.90855C16.8037 4.68448 16.1748 4.56272 15.539 4.54843C14.7226 4.51062 14.4577 4.50342 12.3816 4.50342Z" fill="white"/>
<path d="M12.3812 8.22559C11.603 8.22523 10.8423 8.45546 10.1951 8.88716C9.54786 9.31886 9.04334 9.93263 8.7453 10.6508C8.44726 11.3691 8.36909 12.1595 8.52069 12.9221C8.67228 13.6847 9.04682 14.3852 9.59694 14.9351C10.1471 15.485 10.8481 15.8596 11.6112 16.0114C12.3744 16.1632 13.1655 16.0855 13.8845 15.788C14.6035 15.4905 15.218 14.9867 15.6504 14.3403C16.0827 13.6939 16.3135 12.9338 16.3135 12.1563C16.3138 11.6402 16.2122 11.1291 16.0147 10.6522C15.8172 10.1753 15.5276 9.742 15.1624 9.37698C14.7972 9.01195 14.3637 8.72239 13.8865 8.52483C13.4093 8.32727 12.8978 8.22559 12.3812 8.22559ZM12.3812 14.7078C11.8761 14.7078 11.3823 14.5581 10.9623 14.2777C10.5423 13.9972 10.215 13.5986 10.0218 13.1323C9.82855 12.666 9.77809 12.1529 9.87677 11.6579C9.97545 11.1629 10.2188 10.7083 10.5761 10.3515C10.9335 9.99476 11.3886 9.7519 11.8841 9.65366C12.3796 9.55541 12.8931 9.6062 13.3597 9.79959C13.8263 9.99298 14.225 10.3203 14.5054 10.7401C14.7858 11.1599 14.9352 11.6534 14.9349 12.1581C14.9339 12.8342 14.6644 13.4822 14.1856 13.9599C13.7068 14.4377 13.0579 14.706 12.3812 14.706V14.7078Z" fill="white"/>
</svg>
