<svg width="26" height="25" viewBox="0 0 26 25" fill="none" xmlns="http://www.w3.org/2000/svg">
<path d="M12.9038 24.3082C19.6221 24.3082 25.0683 18.8666 25.0683 12.1541C25.0683 5.44158 19.6221 0 12.9038 0C6.18551 0 0.739258 5.44158 0.739258 12.1541C0.739258 18.8666 6.18551 24.3082 12.9038 24.3082Z" fill="#515553"/>
<path d="M13.844 10.4974C14.0441 10.2724 14.2045 10.0437 14.4135 9.85103C14.7101 9.56217 15.0612 9.3351 15.4463 9.18302C15.8315 9.03093 16.2431 8.95687 16.6572 8.96513C17.1344 8.95691 17.6104 9.01447 18.0719 9.13619C19.1279 9.44229 19.7407 10.1679 20.0344 11.1979C20.2291 11.9697 20.3171 12.7646 20.2957 13.5603C20.2957 15.2402 20.2957 16.9184 20.2957 18.602C20.2957 18.7586 20.2525 18.8 20.0975 18.7982C19.2301 18.791 18.3644 18.791 17.5006 18.7982C17.3474 18.7982 17.3204 18.7532 17.3204 18.6182C17.3204 17.0204 17.3204 15.4227 17.3204 13.825C17.3294 13.4236 17.2821 13.023 17.1798 12.6348C16.9726 11.9145 16.459 11.5544 15.7075 11.5922C14.682 11.6462 14.1468 12.1558 14.017 13.1984C13.9852 13.4468 13.9696 13.697 13.9702 13.9474C13.9702 15.5013 13.9702 17.0553 13.9702 18.6092C13.9702 18.764 13.9305 18.809 13.7719 18.8072C12.9015 18.8072 12.0293 18.8072 11.157 18.8072C11.0165 18.8072 10.9768 18.7712 10.9768 18.6272C10.9768 15.5517 10.9768 12.4757 10.9768 9.39907C10.9768 9.24602 11.0255 9.21901 11.1696 9.21901C11.9986 9.22621 12.827 9.22621 13.6548 9.21901C13.8062 9.21901 13.8458 9.26763 13.835 9.41168C13.8386 9.761 13.844 10.1283 13.844 10.4974Z" fill="#FEFEFE"/>
<path d="M9.10128 14.0119C9.10128 15.5334 9.10128 17.0549 9.10128 18.5765C9.10128 18.7457 9.05983 18.7979 8.88502 18.7961C8.01819 18.7853 7.15316 18.7961 6.28813 18.7961C6.14936 18.7961 6.10791 18.7619 6.10791 18.6161C6.10791 15.5334 6.10791 12.452 6.10791 9.37175C6.10791 9.24391 6.14035 9.19169 6.27551 9.20069C7.15316 9.20069 8.0308 9.20069 8.90845 9.20069C9.07786 9.20069 9.09948 9.26372 9.09948 9.40957C9.09828 10.9437 9.09888 12.4778 9.10128 14.0119Z" fill="#FEFEFE"/>
<path d="M9.33908 6.14893C9.34086 6.49099 9.24093 6.82587 9.05195 7.1111C8.86297 7.39633 8.59347 7.61905 8.27762 7.75102C7.96177 7.88299 7.61382 7.91827 7.27788 7.85237C6.94194 7.78646 6.63314 7.62236 6.39068 7.38087C6.14822 7.13938 5.98301 6.83138 5.916 6.49593C5.84899 6.16049 5.8832 5.81271 6.01429 5.49672C6.14538 5.18073 6.36746 4.91076 6.65234 4.72105C6.93722 4.53134 7.27206 4.43045 7.61442 4.43116C8.07017 4.43351 8.50666 4.61507 8.82943 4.93655C9.1522 5.25804 9.3353 5.69358 9.33908 6.14893Z" fill="#FEFEFE"/>
</svg>
