<svg width="40" height="40" viewBox="0 0 40 40" fill="none" xmlns="http://www.w3.org/2000/svg">
<mask id="mask0_1909_20061" style="mask-type:alpha" maskUnits="userSpaceOnUse" x="0" y="0" width="40" height="40">
<rect width="40" height="40" fill="#D9D9D9"/>
</mask>
<g mask="url(#mask0_1909_20061)">
<path d="M20.1057 29.2177C20.5103 29.2177 20.8531 29.0751 21.1341 28.79C21.4151 28.5048 21.5556 28.1599 21.5556 27.7553C21.5556 27.3577 21.4148 27.0167 21.1332 26.7322C20.8516 26.4476 20.5085 26.3054 20.1038 26.3054C19.6992 26.3054 19.3546 26.448 19.07 26.7331C18.7855 27.0182 18.6432 27.3596 18.6432 27.7571C18.6432 28.1618 18.7858 28.5064 19.071 28.7909C19.3561 29.0754 19.701 29.2177 20.1057 29.2177ZM18.9424 23.4079H20.9893C21.0036 22.6814 21.1145 22.0552 21.3221 21.5292C21.5298 21.0032 22.0499 20.3709 22.8825 19.6323C23.6795 18.8994 24.2598 18.2122 24.6234 17.5709C24.987 16.9295 25.1688 16.2068 25.1688 15.4027C25.1688 14.0095 24.6975 12.8964 23.7548 12.0634C22.8122 11.2304 21.6311 10.814 20.2116 10.814C18.926 10.814 17.8143 11.1485 16.8767 11.8177C15.939 12.4868 15.2551 13.3303 14.8249 14.3481L16.7009 15.0831C16.9794 14.4015 17.3953 13.8351 17.9487 13.3839C18.5022 12.9327 19.2251 12.707 20.1175 12.707C21.1254 12.707 21.8987 12.9825 22.4375 13.5335C22.9764 14.0844 23.2458 14.7398 23.2458 15.4998C23.2458 16.0889 23.0788 16.6334 22.7447 17.1334C22.4107 17.6334 21.9467 18.1401 21.3526 18.6537C20.4467 19.4642 19.8185 20.2017 19.468 20.8663C19.1176 21.5308 18.9424 22.378 18.9424 23.4079ZM20.0028 35.8331C17.8243 35.8331 15.7734 35.4175 13.8501 34.5864C11.9267 33.7553 10.2478 32.6228 8.81312 31.1888C7.37848 29.7548 6.24543 28.0765 5.41396 26.154C4.58248 24.2315 4.16675 22.1811 4.16675 20.0026C4.16675 17.8127 4.5823 15.7543 5.41341 13.8274C6.24453 11.9005 7.37708 10.2244 8.81108 8.799C10.2451 7.37361 11.9233 6.24518 13.8458 5.41371C15.7683 4.58224 17.8188 4.1665 19.9972 4.1665C22.1871 4.1665 24.2455 4.58206 26.1724 5.41317C28.0993 6.24428 29.7755 7.3722 31.2008 8.79692C32.6262 10.2217 33.7547 11.8971 34.5861 13.8231C35.4176 15.7492 35.8333 17.8071 35.8333 19.997C35.8333 22.1755 35.4178 24.2264 34.5867 26.1498C33.7556 28.0731 32.6276 29.7521 31.2029 31.1867C29.7782 32.6214 28.1028 33.7544 26.1767 34.5859C24.2507 35.4173 22.1927 35.8331 20.0028 35.8331ZM20 33.7391C23.8277 33.7391 27.0745 32.4033 29.7404 29.7316C32.4064 27.06 33.7394 23.816 33.7394 19.9998C33.7394 16.1722 32.4064 12.9254 29.7404 10.2594C27.0745 7.59345 23.8277 6.26046 20 6.26046C16.1838 6.26046 12.9398 7.59345 10.2682 10.2594C7.59654 12.9254 6.26071 16.1722 6.26071 19.9998C6.26071 23.816 7.59654 27.06 10.2682 29.7316C12.9398 32.4033 16.1838 33.7391 20 33.7391Z" fill="#515553"/>
</g>
</svg>
