<svg width="1280" height="260" viewBox="0 0 1280 260" fill="none" xmlns="http://www.w3.org/2000/svg">
<path d="M697 205H1280V259L1279.98 259L1279.96 259.001L1279.93 259.001L1279.86 259.003L1279.72 259.006L1279.43 259.012L1278.86 259.023L1277.72 259.047L1275.45 259.094L1270.89 259.188L1261.78 259.375L1252.67 259.562L1243.56 259.75L1207.12 258.5L1134.25 256L988.5 247L952.062 245L915.625 243L879.188 240L860.969 239L842.75 238L806.312 235.5L769.875 233L697 229V205Z" fill="#6FC54C"/>
<path d="M0 0H1280V229L1279.99 215L1279.98 214.999L1279.96 214.998L1279.93 214.997L1279.86 214.993L1279.72 214.986L1279.43 214.973L1278.87 214.945L1277.73 214.891L1275.47 214.781L1270.94 214.562L1261.88 214.125L1243.75 213.25L1225.62 212.375L1207.5 211.5L1134.5 208L1060.25 207L986 208L914.125 210.25L842.25 214.5L770.375 220.75L734.438 223.875L698.5 229H0V0Z" fill="#F7F0E6"/>
</svg>
