<svg width="1280" height="87" viewBox="0 0 1280 87" fill="none" xmlns="http://www.w3.org/2000/svg">
<path d="M35 6L50.5625 6.25L66.125 6.5L97.25 7L159.5 4L221.75 1L284 0L346.25 1L408.5 6L470.75 12L501.875 15L517.438 17L533 19V31H35V6Z" fill="#6FC54C"/>
<path d="M0 3L57.9062 8.125L115.812 13.25L173.719 16.875L231.625 20.5L347.438 23.75L463.25 23L579.062 18L694.875 9L810.688 2.5L868.594 0.25L926.5 0L970.688 0.75L1014.88 3.5L1103.25 9L1191.62 13.5L1235.81 12.75L1257.91 11.375L1268.95 10.1875L1280 9V87H0V3Z" fill="#F7F0E6"/>
</svg>
