<svg width="25" height="25" viewBox="0 0 25 25" fill="none" xmlns="http://www.w3.org/2000/svg">
<path d="M12.1645 24.3082C18.8828 24.3082 24.3291 18.8666 24.3291 12.1541C24.3291 5.44158 18.8828 0 12.1645 0C5.44625 0 0 5.44158 0 12.1541C0 18.8666 5.44625 24.3082 12.1645 24.3082Z" fill="#515553"/>
<path d="M18.0864 7.21834C18.0768 7.17124 18.0551 7.12742 18.0236 7.09114C17.992 7.05486 17.9516 7.02735 17.9062 7.01126C17.7354 6.97818 17.5589 6.99061 17.3944 7.04729C17.3944 7.04729 6.02643 11.1311 5.37586 11.583C5.23709 11.6802 5.19564 11.7379 5.16681 11.8027C5.05507 12.125 5.40469 12.2672 5.40469 12.2672L8.33499 13.2216C8.38354 13.2334 8.43422 13.2334 8.48277 13.2216C9.14957 12.8002 15.1886 8.99014 15.5382 8.86229C15.5923 8.84609 15.6337 8.86229 15.6229 8.9019C15.4823 9.39167 10.2363 14.0499 10.2363 14.0499C10.2235 14.0666 10.2126 14.0847 10.2038 14.1039L9.9317 17.0082C9.9317 17.0082 9.81636 17.8977 10.7066 17.0082C11.3356 16.3798 11.9429 15.8541 12.2475 15.6002C13.2549 16.2952 14.3398 17.0641 14.8065 17.4656C14.8854 17.5414 14.9787 17.6006 15.0808 17.6399C15.1829 17.6791 15.2919 17.6976 15.4012 17.6943C15.8446 17.6781 15.9689 17.1901 15.9689 17.1901C15.9689 17.1901 18.0414 8.8587 18.1099 7.74232C18.1099 7.63428 18.1261 7.56225 18.1261 7.48843C18.1272 7.39688 18.1138 7.30573 18.0864 7.21834Z" fill="white"/>
</svg>
