<svg width="57" height="49" viewBox="0 0 57 49" fill="none" xmlns="http://www.w3.org/2000/svg">
<path d="M37.7149 14.8099C38.1054 14.4194 38.1054 13.7862 37.7149 13.3957C37.3244 13.0052 36.6912 13.0052 36.3007 13.3957L37.7149 14.8099ZM36.3007 13.3957L18.623 31.0733L20.0373 32.4876L37.7149 14.8099L36.3007 13.3957Z" fill="#6FC54C"/>
<path d="M1.9963 0.919654C1.95193 0.369154 1.4697 -0.0411489 0.919196 0.00321686C0.368697 0.0475827 -0.0416061 0.529817 0.0027597 1.08032L1.9963 0.919654ZM4.00458 25.8389L1.9963 0.919654L0.0027597 1.08032L2.01104 25.9995L4.00458 25.8389Z" fill="#6FC54C"/>
<path d="M55.1663 44.0901C55.7116 44.0026 56.0827 43.4896 55.9952 42.9443C55.9077 42.399 55.3947 42.0279 54.8494 42.1154L55.1663 44.0901ZM54.8494 42.1154L30.1652 46.0768L30.4821 48.0515L55.1663 44.0901L54.8494 42.1154Z" fill="#6FC54C"/>
</svg>
