<svg width="56" height="62" viewBox="0 0 56 62" fill="none" xmlns="http://www.w3.org/2000/svg">
<path d="M15.8099 18.2929C15.4194 17.9024 14.7862 17.9024 14.3957 18.2929C14.0052 18.6834 14.0052 19.3166 14.3957 19.7071L15.8099 18.2929ZM14.3957 19.7071L32.0733 37.3848L33.4876 35.9706L15.8099 18.2929L14.3957 19.7071Z" fill="#42403D"/>
<path d="M0.919654 59.0115C0.369154 59.0559 -0.0411489 59.5381 0.00321686 60.0886C0.0475827 60.6391 0.529817 61.0494 1.08032 61.0051L0.919654 59.0115ZM25.8389 57.0032L0.919654 59.0115L1.08032 61.0051L25.9995 58.9968L25.8389 57.0032Z" fill="#42403D"/>
<path d="M51.0901 0.841545C51.0026 0.296238 50.4896 -0.0748783 49.9443 0.0126337C49.399 0.100146 49.0279 0.613147 49.1154 1.15845L51.0901 0.841545ZM49.1154 1.15845L53.0768 25.8426L55.0515 25.5257L51.0901 0.841545L49.1154 1.15845Z" fill="#42403D"/>
</svg>
