<svg width="176" height="173" viewBox="0 0 176 173" fill="none" xmlns="http://www.w3.org/2000/svg">
<path d="M174.751 83.9981C172.796 100.417 165.318 119.495 150.349 128.259C127.738 141.508 129.63 161.88 85.4896 170.746C79.0524 172.068 72.4905 172.687 65.9196 172.591C62.7044 172.536 59.4961 172.275 56.3144 171.809C28.2689 167.712 9.38302 148.213 2.46744 124.675C-6.64909 93.7167 11.5527 73.4625 23.6169 61.2381C35.681 49.0136 44.5004 10.9799 87.8274 1.92981C94.4362 0.522354 101.185 -0.119093 107.941 0.0181506C123.355 0.409083 140.169 5.45601 151.803 16.0229C152.676 16.8048 153.526 17.6257 154.352 18.4858C170.521 35.0847 177.394 61.6251 174.751 83.9981Z" fill="#6FC54C"/>
<path opacity="0.7" d="M174.751 83.9981C172.796 100.417 165.318 119.495 150.349 128.259C127.738 141.508 129.63 161.88 85.4896 170.746C79.0524 172.068 72.4905 172.687 65.9196 172.591C62.7044 172.536 59.4961 172.275 56.3144 171.809C28.2689 167.712 9.38302 148.213 2.46744 124.675C-6.64909 93.7167 11.5527 73.4625 23.6169 61.2381C35.681 49.0136 44.5004 10.9799 87.8274 1.92981C94.4363 0.522354 101.185 -0.119093 107.941 0.0181506C123.355 0.409082 140.169 5.45601 151.803 16.0229C152.677 16.8048 153.526 17.6257 154.352 18.4858C170.521 35.0847 177.394 61.6251 174.751 83.9981Z" fill="#F7F0E6"/>
<path opacity="0.3" d="M48.5233 65.898C48.2753 64.9381 47.6931 64.0982 46.8814 63.5289C45.1457 62.2662 42.4561 63.0559 42.4561 63.0559C42.6164 58.9472 39.7704 53.5719 33.922 53.5719C28.0737 53.5719 26.6546 58.3139 26.6546 58.3139C25.9308 57.5185 24.9767 56.9688 23.9254 56.7418C22.8742 56.5147 21.7783 56.6215 20.7906 57.0473C17.155 58.4703 16.9947 63.2123 16.9947 63.2123C16.9947 63.2123 14.6256 60.683 12.0963 61.4726C10.0048 62.1294 9.31679 64.948 9.14478 65.898H48.5233Z" fill="#6FC54C" stroke="black" stroke-width="0.5" stroke-miterlimit="10"/>
<path opacity="0.3" d="M49.3366 35.8079C49.1717 35.1741 48.7864 34.6197 48.2498 34.2442C47.1005 33.4037 45.3217 33.9275 45.3217 33.9275C45.4234 31.191 43.543 27.6726 39.6728 27.6726C35.8026 27.6726 34.8604 30.8001 34.8604 30.8001C34.3822 30.2758 33.7527 29.9133 33.0593 29.7627C32.3659 29.6121 31.6428 29.6809 30.9902 29.9596C28.582 30.9017 28.4804 34.0409 28.4804 34.0409C28.4804 34.0409 26.9167 32.3677 25.2357 32.8915C23.8518 33.3216 23.3983 35.1902 23.281 35.8196L49.3366 35.8079Z" fill="#6FC54C" stroke="black" stroke-width="0.5" stroke-miterlimit="10"/>
<path opacity="0.3" d="M175.514 116.266C175.106 114.693 174.153 113.316 172.824 112.38C169.975 110.308 165.569 111.598 165.569 111.598C165.827 104.862 161.167 96.0544 151.581 96.0544C141.996 96.0544 139.685 103.834 139.685 103.834C139.685 103.834 136.038 99.436 130.08 101.782C124.122 104.127 123.864 111.883 123.864 111.883C123.864 111.883 119.978 107.739 115.83 109.033C112.398 110.105 111.276 114.729 110.995 116.285L175.514 116.266Z" fill="#6FC54C" stroke="black" stroke-width="0.5" stroke-miterlimit="10"/>
<path opacity="0.3" d="M141.096 78.9317C140.931 78.2979 140.546 77.7435 140.01 77.368C138.86 76.5314 137.082 77.0513 137.082 77.0513C137.183 74.3343 135.303 70.7964 131.433 70.7964C127.562 70.7964 126.62 73.9238 126.62 73.9238C126.142 73.3998 125.512 73.0377 124.819 72.8878C124.125 72.7378 123.402 72.8076 122.75 73.0872C120.342 74.0255 120.24 77.1647 120.24 77.1647C120.24 77.1647 118.676 75.4915 116.995 76.0153C115.612 76.4493 115.158 78.314 115.041 78.9434L141.096 78.9317Z" fill="#6FC54C" stroke="black" stroke-width="0.5" stroke-miterlimit="10"/>
<path opacity="0.3" d="M116.85 21.5897C116.581 20.5591 115.955 19.6574 115.083 19.0448C113.214 17.6843 110.329 18.5327 110.329 18.5327C110.497 14.119 107.444 8.34888 101.162 8.34888C94.8797 8.34888 93.3434 13.431 93.3434 13.431C92.5659 12.5804 91.5431 11.9928 90.4167 11.7497C89.2903 11.5067 88.1162 11.6202 87.0572 12.0745C83.1596 13.6108 82.9993 18.7047 82.9993 18.7047C82.9993 18.7047 80.4543 15.9877 77.7374 16.836C75.4856 17.5397 74.7506 20.5694 74.563 21.5897H116.85Z" fill="#6FC54C" stroke="black" stroke-width="0.5" stroke-miterlimit="10"/>
<path d="M67.3014 73.2904C67.3014 73.2904 65.4132 89.4242 66.5195 90.9215C67.6258 92.4187 71.3983 90.7651 73.052 89.7487C74.7056 88.7323 76.9105 87.5438 76.9105 87.5438L77.7783 85.2725C77.7783 85.2725 75.6517 66.7619 75.5735 66.2928C75.4953 65.8236 68.0949 69.0293 67.5437 69.7564C66.9925 70.4835 67.3014 73.2904 67.3014 73.2904Z" fill="#42403D" stroke="#42403D" stroke-width="0.5" stroke-linecap="round" stroke-linejoin="round"/>
<path d="M58.7244 122.958C57.8808 124.194 57.1182 125.482 56.4414 126.817C55.8487 128.278 55.3486 129.776 54.9441 131.301C54.7095 132.169 54.5531 132.325 53.7713 131.379C52.9894 130.433 52.0395 128.31 52.5125 124.846C52.9855 121.383 54.8581 117.684 55.249 117.841C55.6399 117.997 59.045 120.124 59.045 120.124L58.7244 122.958Z" fill="#F7F0E6" stroke="#42403D" stroke-width="0.5" stroke-linecap="round" stroke-linejoin="round"/>
<path d="M55.6551 118.056C55.4674 117.946 55.3228 117.868 55.2641 117.841C54.8732 117.684 52.9811 121.383 52.5276 124.846C52.0741 128.31 53.0006 130.437 53.7864 131.379C54.2047 131.883 54.4471 132.071 54.6152 132.008C54.1265 130.804 53.1961 128.056 53.5518 125.398C53.9076 122.739 55.0804 119.502 55.6551 118.056Z" fill="#F7F0E6" stroke="#42403D" stroke-width="0.5" stroke-linecap="round" stroke-linejoin="round"/>
<path d="M77.9312 84.4672C77.9312 84.4672 76.7584 89.5063 76.9069 92.4187C77.0555 95.3312 77.5363 98.7909 77.5363 98.7909L76.8287 112.016C76.8287 112.016 70.9257 112.489 69.9014 113.275C68.8772 114.061 61.6371 118.943 60.218 119.495C59.5417 119.757 58.0953 120.441 58.0953 120.441C58.0953 120.441 56.6762 121.164 57.7786 122.728C58.881 124.291 78.5606 118.396 79.19 118.318C79.8194 118.24 83.5958 116.903 84.2291 116.113C84.8624 115.323 89.1861 100.609 89.1861 100.609L98.4746 113.99C98.4746 113.99 98.3183 117.845 100.601 120.601C102.884 123.357 107.29 131.07 107.29 131.07L107.134 132.407C107.134 132.407 105.57 133.971 105.875 135.241C106.18 136.512 107.92 136.266 109.022 136.973C110.124 137.681 112.802 139.178 112.802 139.178C112.802 139.178 116.895 140.742 116.422 139.178C116.25 138.603 114.303 136.293 113.588 135.241C112.272 133.359 111.188 131.324 110.359 129.182C109.651 127.227 106.031 113.439 105.558 111.629C105.085 109.819 102.822 100.609 101.07 95.3351C99.319 90.0614 98.158 87.9347 98.158 87.9347L96.821 84.3147L77.9312 84.4672Z" fill="#F7F0E6" stroke="#42403D" stroke-width="0.5" stroke-linecap="round" stroke-linejoin="round"/>
<path d="M101.07 95.3312C99.3377 90.0536 98.1571 87.9308 98.1571 87.9308L96.8201 84.3108L77.9303 84.4672C77.9303 84.4672 76.7575 89.5063 76.9061 92.4187C77.0546 95.3312 77.5355 98.7909 77.5355 98.7909L76.9334 110.015L85.4518 112.79C86.9452 108.224 89.1852 100.605 89.1852 100.605L97.5004 112.583C100.128 111.832 102.638 110.716 104.955 109.268C104.045 105.699 102.395 99.3656 101.07 95.3312Z" stroke="#42403D" stroke-width="0.5" stroke-linecap="round" stroke-linejoin="round"/>
<path d="M89.1853 100.605L89.8147 95.8042" stroke="#42403D" stroke-width="0.5" stroke-linecap="round" stroke-linejoin="round"/>
<path d="M90.2102 99.4242L92.6496 97.3757" stroke="#42403D" stroke-width="0.5" stroke-linecap="round" stroke-linejoin="round"/>
<path d="M78.3223 102.649L86.1174 104.854C86.1174 104.854 85.9611 103.681 86.1956 103.595C86.4302 103.509 79.8195 101.942 79.8195 101.942" stroke="#42403D" stroke-width="0.5" stroke-linecap="round" stroke-linejoin="round"/>
<path d="M80.4641 109.846C82.235 110.484 84.1858 111.129 84.2288 110.914C84.307 110.523 85.7925 106.269 85.7925 106.269" stroke="#42403D" stroke-width="0.5" stroke-linecap="round" stroke-linejoin="round"/>
<path d="M78.087 103.986L77.614 108.791C77.614 108.791 78.4858 109.127 79.5999 109.534" stroke="#42403D" stroke-width="0.5" stroke-linecap="round" stroke-linejoin="round"/>
<path d="M82.7317 87.8525C82.4112 88.6994 81.9601 89.4908 81.3947 90.1981C80.8421 90.8384 80.0953 91.2805 79.2681 91.4569" stroke="#42403D" stroke-width="0.5" stroke-linecap="round" stroke-linejoin="round"/>
<path d="M78.8885 99.8619C78.8377 100.476 78.7947 100.839 78.7947 100.839" stroke="#42403D" stroke-width="0.5" stroke-linecap="round" stroke-linejoin="round"/>
<path d="M79.5021 87.3795C79.5021 87.3795 78.1652 92.3365 78.56 94.4632C78.887 95.962 79.0184 97.4968 78.9509 99.0293" stroke="#42403D" stroke-width="0.5" stroke-linecap="round" stroke-linejoin="round"/>
<path d="M92.0202 89.0332L90.6011 91.9457C90.6011 91.9457 92.6496 91.5547 92.415 92.4187C92.1804 93.2826 91.8833 94.1505 91.8833 94.1505" stroke="#42403D" stroke-width="0.5" stroke-linecap="round" stroke-linejoin="round"/>
<path d="M96.4255 109.315L97.528 110.996" stroke="#42403D" stroke-width="0.5" stroke-linecap="round" stroke-linejoin="round"/>
<path d="M90.4441 100.21L95.839 108.423" stroke="#42403D" stroke-width="0.5" stroke-linecap="round" stroke-linejoin="round"/>
<path d="M77.9312 84.4672C77.9312 84.4672 76.7584 89.5063 76.9069 92.4187C77.0555 95.3312 77.5363 98.7909 77.5363 98.7909L76.8287 112.016C76.8287 112.016 70.9257 112.489 69.9014 113.275C68.8772 114.061 61.6371 118.943 60.218 119.495C59.5417 119.757 58.0953 120.441 58.0953 120.441C58.0953 120.441 56.6762 121.164 57.7786 122.728C58.881 124.291 78.5606 118.396 79.19 118.318C79.8194 118.24 83.5958 116.903 84.2291 116.113C84.8624 115.323 89.1861 100.609 89.1861 100.609L98.4746 113.99C98.4746 113.99 98.3183 117.845 100.601 120.601C102.884 123.357 107.29 131.07 107.29 131.07L107.134 132.407C107.134 132.407 105.57 133.971 105.875 135.241C106.18 136.512 107.92 136.266 109.022 136.973C110.124 137.681 112.802 139.178 112.802 139.178C112.802 139.178 116.895 140.742 116.422 139.178C116.25 138.603 114.303 136.293 113.588 135.241C112.272 133.359 111.188 131.324 110.359 129.182C109.651 127.227 106.031 113.439 105.558 111.629C105.085 109.819 102.822 100.609 101.07 95.3351C99.319 90.0614 98.158 87.9347 98.158 87.9347L96.821 84.3147L77.9312 84.4672Z" fill="#F7F0E6" stroke="#42403D" stroke-width="0.5" stroke-linecap="round" stroke-linejoin="round"/>
<path d="M116.421 139.174C116.249 138.599 114.303 136.289 113.587 135.237C113.075 134.487 112.59 133.713 112.145 132.935C109.944 133.752 107.133 132.403 107.133 132.403C107.133 132.403 105.569 133.967 105.874 135.237C106.179 136.508 107.919 136.262 109.021 136.969C110.124 137.677 112.801 139.174 112.801 139.174C112.801 139.174 116.902 140.75 116.421 139.174Z" fill="#F7F0E6" stroke="#42403D" stroke-width="0.5" stroke-linecap="round" stroke-linejoin="round"/>
<path d="M110.124 136.496C108.951 135.554 106.844 134.878 105.859 134.596C105.814 134.808 105.814 135.026 105.859 135.237C106.171 136.496 107.903 136.262 109.006 136.969C110.108 137.677 112.786 139.174 112.786 139.174C112.786 139.174 114.659 139.893 115.722 139.87C114.225 139.061 111.324 137.458 110.124 136.496Z" fill="#F7F0E6" stroke="#42403D" stroke-width="0.5" stroke-linecap="round" stroke-linejoin="round"/>
<path d="M101.07 95.3312C99.3377 90.0536 98.1571 87.9308 98.1571 87.9308L96.8201 84.3108L77.9303 84.4672C77.9303 84.4672 76.7575 89.5063 76.9061 92.4187C77.0546 95.3312 77.5355 98.7909 77.5355 98.7909L76.9334 110.015L85.4518 112.79C86.9452 108.224 89.1852 100.605 89.1852 100.605L97.5004 112.583C100.128 111.832 102.638 110.716 104.955 109.268C104.045 105.699 102.395 99.3656 101.07 95.3312Z" fill="#6FC54C" stroke="#42403D" stroke-width="0.5" stroke-linecap="round" stroke-linejoin="round"/>
<path d="M89.1853 100.605L89.8147 95.8042" stroke="#42403D" stroke-width="0.5" stroke-linecap="round" stroke-linejoin="round"/>
<path d="M90.2102 99.4242L92.6496 97.3757" stroke="#42403D" stroke-width="0.5" stroke-linecap="round" stroke-linejoin="round"/>
<path d="M78.3223 102.649L86.1174 104.854C86.1174 104.854 85.9611 103.681 86.1956 103.595C86.4302 103.509 79.8195 101.942 79.8195 101.942" stroke="#42403D" stroke-width="0.5" stroke-linecap="round" stroke-linejoin="round"/>
<path d="M80.4641 109.846C82.235 110.484 84.1858 111.129 84.2288 110.914C84.307 110.523 85.7925 106.269 85.7925 106.269" stroke="#42403D" stroke-width="0.5" stroke-linecap="round" stroke-linejoin="round"/>
<path d="M78.087 103.986L77.614 108.791C77.614 108.791 78.4858 109.127 79.5999 109.534" stroke="#42403D" stroke-width="0.5" stroke-linecap="round" stroke-linejoin="round"/>
<path d="M82.7317 87.8525C82.4112 88.6994 81.9601 89.4908 81.3947 90.1981C80.8421 90.8384 80.0953 91.2805 79.2681 91.4569" stroke="#42403D" stroke-width="0.5" stroke-linecap="round" stroke-linejoin="round"/>
<path d="M78.8885 99.8619C78.8377 100.476 78.7947 100.839 78.7947 100.839" stroke="#42403D" stroke-width="0.5" stroke-linecap="round" stroke-linejoin="round"/>
<path d="M79.5021 87.3795C79.5021 87.3795 78.1652 92.3365 78.56 94.4632C78.887 95.962 79.0184 97.4968 78.9509 99.0293" stroke="#42403D" stroke-width="0.5" stroke-linecap="round" stroke-linejoin="round"/>
<path d="M92.0202 89.0332L90.6011 91.9457C90.6011 91.9457 92.6496 91.5547 92.415 92.4187C92.1804 93.2826 91.8833 94.1505 91.8833 94.1505" stroke="#42403D" stroke-width="0.5" stroke-linecap="round" stroke-linejoin="round"/>
<path d="M96.4255 109.315L97.528 110.996" stroke="#42403D" stroke-width="0.5" stroke-linecap="round" stroke-linejoin="round"/>
<path d="M90.4441 100.21L95.839 108.423" stroke="#42403D" stroke-width="0.5" stroke-linecap="round" stroke-linejoin="round"/>
<path d="M79.5339 55.9447C79.5339 55.9447 76.5862 56.4529 76.2461 56.4529C75.906 56.4529 72.8411 56.1714 72.3876 56.5663C71.9342 56.9611 61.2695 68.5913 61.2695 68.5913L65.3 71.5976L73.9005 67.3443L75.0342 67.399L78.4354 82.9425C78.4354 82.9425 77.587 84.8111 77.7551 85.2646C77.9284 85.6045 78.1821 85.8971 78.494 86.1168C78.494 86.1168 87.1922 88.4976 89.5378 88.4429C91.8834 88.3881 95.9452 87.2505 96.4573 86.9691C96.9694 86.6876 98.2126 85.6047 97.9859 84.5844C97.7591 83.564 97.1375 81.5234 97.1375 81.5234L95.4722 58.6148L101.766 45.1159L97.1727 41.8047L90.1359 50.1433C90.1359 50.1433 85.0304 52.9775 84.7489 53.4896C84.4674 54.0018 79.5339 55.9447 79.5339 55.9447Z" fill="#ADADAD" stroke="#42403D" stroke-width="0.5" stroke-linecap="round" stroke-linejoin="round"/>
<path d="M95.0771 52.1996L95.472 58.6109L96.1522 50.499" stroke="#42403D" stroke-width="0.5" stroke-linecap="round" stroke-linejoin="round"/>
<path d="M78.7988 67.7978L75.0537 67.403L77.6651 69.1582" stroke="#42403D" stroke-width="0.5" stroke-linecap="round" stroke-linejoin="round"/>
<path d="M90.7456 55.1393C90.7456 55.1393 93.4821 64.4865 93.6346 68.3841" stroke="#42403D" stroke-width="0.5" stroke-linecap="round" stroke-linejoin="round"/>
<path d="M91.6842 61.4568C91.6537 64.9129 91.2937 68.3583 90.6091 71.7461" stroke="#42403D" stroke-width="0.5" stroke-linecap="round" stroke-linejoin="round"/>
<path d="M88.1885 52.1135C88.1885 52.1135 90.7608 53.8454 89.4199 63.5287C88.079 73.2121 75.0962 86.5116 75.0962 86.5116L76.9062 87.5359C76.9062 87.5359 84.5411 79.5061 87.6881 72.5788C90.8351 65.6515 91.3902 59.7484 91.2339 57.8602C91.0775 55.972 89.7366 51.4841 89.7366 51.4841L88.1885 52.1135Z" fill="#42403D" stroke="#42403D" stroke-width="0.5" stroke-linecap="round" stroke-linejoin="round"/>
<path d="M80.6629 52.8134C80.6629 52.8134 79.4901 53.1574 79.2439 53.8923C78.9976 54.6273 78.3604 56.0933 78.3604 56.0933C78.3604 56.0933 79.9749 58.8845 80.9561 60.2059C81.9374 61.5272 83.0594 63.9236 83.4034 63.3842C83.7474 62.8447 85.4558 59.7133 85.5066 59.4748C85.6016 59.1643 85.8113 58.9015 86.093 58.7399C86.2884 58.6891 89.7169 60.0104 90.3502 60.159C90.9835 60.3075 90.6943 59.815 90.4011 59.0331C90.1079 58.2512 87.5121 54.8736 86.8279 54.0917C86.1438 53.3098 81.2962 52.3247 80.6629 52.8134Z" fill="#ADADAD" stroke="#42403D" stroke-width="0.5" stroke-linecap="round" stroke-linejoin="round"/>
<path d="M77.247 46.6445C76.4795 45.2433 75.951 43.7239 75.6833 42.1488C75.2924 39.6585 77.0516 36.922 77.638 36.8243C78.2244 36.7265 78.369 37.8993 78.369 37.8993C78.369 37.8993 82.8647 33.1613 84.5262 33.7477C86.1877 34.334 84.7686 35.8509 84.7686 35.8509C84.7686 35.8509 88.5293 34.8735 88.1892 36.8751C87.8491 38.8767 87.1611 39.0721 87.1611 39.0721C85.6839 39.0248 84.2197 39.3616 82.9116 40.0495C80.5191 41.2223 80.3237 41.4177 80.5661 41.9064C80.8084 42.3951 80.9062 42.1019 80.3198 43.9588C79.7334 45.8157 79.5379 46.1558 80.0774 47.2309C80.6169 48.306 80.6638 48.3529 80.0266 48.4506C79.3893 48.5483 78.2205 47.4733 78.2205 47.4733L77.247 46.6445Z" fill="#42403D" stroke="#42403D" stroke-width="0.5" stroke-linecap="round" stroke-linejoin="round"/>
<path d="M80.374 40.6319C80.374 40.6319 78.3216 43.4153 78.7595 43.3176C79.1973 43.2199 80.03 42.3403 79.9831 43.2199C79.9362 44.0995 78.8572 45.4677 79.0057 45.7609C79.1543 46.0541 79.9831 47.5201 79.6391 47.7156C79.295 47.9111 79.1035 47.958 78.9549 47.8133C78.8064 47.6687 78.0753 46.836 77.2465 46.6405C76.4178 46.4451 75.8783 47.8602 76.32 48.8845C76.7618 49.9087 79.1035 50.4482 79.1035 50.4482L80.1785 50.7414L80.374 53.8689C80.374 53.8689 83.9393 58.2238 84.6234 59.0057C85.3076 59.7876 86.2341 60.6632 86.4295 60.1277C86.625 59.5921 88.1887 52.1175 88.1887 52.1175C88.1887 52.1175 90.7259 51.6288 90.8744 49.9204C91.023 48.2121 90.6281 44.4005 89.3615 42.0549C88.0949 39.7093 87.5515 38.9783 85.6008 38.8805C83.65 38.7828 80.8627 39.85 80.374 40.6319Z" fill="#F7F0E6" stroke="#42403D" stroke-width="0.5" stroke-linecap="round" stroke-linejoin="round"/>
<path d="M88.1887 52.1137L83.4976 52.0668L87.6493 54.6547L88.1887 52.1137Z" fill="#42403D" stroke="#42403D" stroke-width="0.5" stroke-linecap="round" stroke-linejoin="round"/>
<path d="M87.063 42.4419C87.063 42.4419 89.7995 42.6882 89.995 43.0791C90.1904 43.47 88.6775 44.7875 88.6775 44.7875" stroke="#42403D" stroke-width="0.5" stroke-linecap="round" stroke-linejoin="round"/>
<path d="M88.0909 46.9377C88.0909 46.9377 85.5498 47.7195 83.9861 45.9603C83.9861 45.9603 84.0838 48.6968 85.2566 48.9861C86.4294 49.2754 88.0909 46.9377 88.0909 46.9377Z" stroke="#42403D" stroke-width="0.5" stroke-linecap="round" stroke-linejoin="round"/>
<path d="M82.7671 43.9079C82.9211 43.566 83.1954 43.2927 83.5377 43.1399C83.8801 42.9871 84.2667 42.9655 84.624 43.0791" stroke="#42403D" stroke-width="0.5" stroke-linecap="round" stroke-linejoin="round"/>
<path d="M87.7466 42.2973C87.8305 42.1328 87.97 42.0032 88.1403 41.9316C88.3106 41.8601 88.5007 41.8511 88.677 41.9064" stroke="#42403D" stroke-width="0.5" stroke-linecap="round" stroke-linejoin="round"/>
<path d="M81.8594 42.3481C81.8594 42.3481 82.0314 41.1441 83.6772 41.1089" stroke="#42403D" stroke-width="0.5" stroke-linecap="round" stroke-linejoin="round"/>
<path d="M86.5623 40.5264C86.7459 40.348 86.9829 40.2347 87.237 40.2036C87.4911 40.1726 87.7484 40.2255 87.9696 40.3544" stroke="#42403D" stroke-width="0.5" stroke-linecap="round" stroke-linejoin="round"/>
<path d="M61.5624 71.8127C60.7578 71.4053 59.9749 70.9564 59.2168 70.4679C58.8258 70.1317 60.8939 65.5578 61.0972 65.4249C61.3004 65.292 66.0737 65.6947 66.7461 66.0973C67.4185 66.5 68.56 69.7291 68.3099 70.6009C68.0597 71.4726 66.4295 72.0825 66.0933 72.2154C65.7571 72.3483 61.5624 71.8127 61.5624 71.8127Z" fill="#ADADAD" stroke="#42403D" stroke-width="0.5" stroke-linecap="round" stroke-linejoin="round"/>
<path d="M71.0431 75.5109C71.0431 75.5109 67.6146 70.1317 66.9422 69.1895C66.2698 68.2474 63.3808 67.5085 61.9696 68.1144C60.5583 68.7204 59.4793 70.6672 59.8155 71.41C60.1517 72.1528 67.1455 76.3162 67.1455 76.3162C67.1455 76.3162 66.3402 80.2255 66.6764 80.5539C67.3917 81.1817 68.1791 81.7224 69.022 82.1645C69.5614 82.3678 70.3668 81.629 70.3668 81.629C70.6798 81.6647 70.9959 81.6647 71.3089 81.629C71.6451 81.5625 72.0478 81.023 72.0478 81.023C72.0478 81.023 72.4387 81.6954 72.857 81.0895C73.2753 80.4835 73.3261 80.0144 72.9899 79.8111C72.6537 79.6078 72.384 78.2669 72.384 78.2669C72.384 78.2669 72.7749 77.1919 72.4543 76.4491C72.1338 75.7063 71.0431 75.5109 71.0431 75.5109Z" fill="#F7F0E6" stroke="#42403D" stroke-width="0.5" stroke-linecap="round" stroke-linejoin="round"/>
<path d="M72.0514 81.0231L71.5823 77.9308" stroke="#42403D" stroke-width="0.5" stroke-linecap="round" stroke-linejoin="round"/>
<path d="M104.663 17.4888C104.663 17.4888 105.265 15.2018 105.601 15.7374C105.937 16.273 105.21 18.6967 105.21 18.6967C105.21 18.6967 106.152 16.8828 106.219 17.825C106.285 18.7671 104.741 20.7804 104.741 20.7804L104.663 17.4888Z" fill="#F7F0E6" stroke="#42403D" stroke-width="0.5" stroke-linecap="round" stroke-linejoin="round"/>
<path d="M98.1382 41.2222C98.1382 41.2222 104.327 26.1596 104.46 25.6905C104.592 25.2214 102.575 20.3778 102.438 19.3692C102.302 18.3605 101.832 15.4598 102.438 15.4598C103.044 15.4598 102.829 15.9954 102.829 16.3316C102.829 16.6678 103.502 19.4239 103.502 19.4239C103.502 19.4239 103.893 16.1987 103.975 15.8625C104.057 15.5263 104.366 14.9868 104.714 15.3895C105.062 15.7921 104.847 16.2652 104.847 16.6014C104.847 16.9376 104.913 19.6272 104.913 19.8265C105.168 20.5372 105.461 21.234 105.789 21.9141C105.789 21.9141 106.731 20.0298 106.864 19.1581C106.997 18.2863 107.536 17.004 107.739 18.2159C107.882 19.1161 107.812 20.037 107.536 20.9055C107.403 21.2417 108.412 23.4583 108.076 24.1307C107.739 24.8031 106.739 26.1675 106.739 26.4294C106.739 26.6913 102.638 43.7086 102.638 43.7086L98.1382 41.2222Z" fill="#F7F0E6" stroke="#42403D" stroke-width="0.5" stroke-linecap="round" stroke-linejoin="round"/>
<path d="M95.0461 42.7C95.0461 42.7 97.0634 45.0456 97.7827 45.6593C98.502 46.2731 101.618 47.614 101.618 47.614L103.572 43.6499C103.572 43.6499 101.489 41.9025 100.077 41.3043C98.6662 40.7062 97.3878 40.026 97.3878 40.026L95.0461 42.7Z" fill="#ADADAD" stroke="#42403D" stroke-width="0.5" stroke-linecap="round" stroke-linejoin="round"/>
</svg>
