<svg width="174" height="155" viewBox="0 0 174 155" fill="none" xmlns="http://www.w3.org/2000/svg">
<path d="M143.997 134.998C151.683 130.777 158.377 125.209 163.185 116.874C168.691 107.331 171.935 95.6852 172.937 84.7221C174.974 62.4911 165.23 40.5795 149.598 25.0431C143.524 18.9666 136.52 13.8978 128.85 10.0279C113.379 2.29461 102.394 12.3365 88.7885 18.2274C71.806 25.5679 56.3724 10.1197 39.8781 8.53411C18.2381 6.44938 1.67403 28.1995 3.63764 48.6174C5.10575 63.9042 19.6548 75.9207 20.3815 87.9336C21.1082 99.9465 6.52983 107.94 6.52983 125.429C6.52983 134.572 18.0289 141.131 25.0391 144.456C40.8214 151.94 59.0481 153.837 76.2948 152.942C99.1057 151.756 123.854 146.06 143.997 134.998Z" fill="#6FC54C"/>
<path opacity="0.8" d="M143.997 134.998C151.683 130.777 158.377 125.209 163.185 116.874C168.691 107.331 171.935 95.6852 172.937 84.7221C174.974 62.4911 165.23 40.5795 149.598 25.0431C143.524 18.9666 136.52 13.8978 128.85 10.0279C113.379 2.29461 102.394 12.3365 88.7885 18.2274C71.806 25.5679 56.3724 10.1197 39.8781 8.53411C18.2381 6.44938 1.67403 28.1995 3.63764 48.6174C5.10575 63.9042 19.6548 75.9207 20.3815 87.9336C21.1082 99.9465 6.52983 107.94 6.52983 125.429C6.52983 134.572 18.0289 141.131 25.0391 144.456C40.8214 151.94 59.0481 153.837 76.2948 152.942C99.1057 151.756 123.854 146.06 143.997 134.998Z" fill="#F7F0E6"/>
<path d="M61.3345 46.1838C59.0699 44.9469 58.0312 45.9746 57.2164 44.9469C56.4016 43.9192 59.481 41.2399 53.3002 38.5606C53.3002 38.5606 52.8891 32.7946 44.4438 32.589C35.9984 32.3835 38.2667 38.3551 36.0021 39.7975C33.7375 41.2399 33.1209 38.9717 30.8637 40.4141C28.6065 41.8565 29.6305 44.7414 27.777 45.1525C25.9235 45.5635 23.4497 43.299 21.1704 44.7414C18.8912 46.1838 18.9022 47.417 17.8672 47.417C16.8322 47.417 14.7768 46.5949 13.5399 47.417C12.303 48.2392 10.8643 49.2705 10.8643 49.2705H62.9824C62.9824 49.2705 63.599 47.417 61.3345 46.1838Z" stroke="#92989B" stroke-width="0.5" stroke-linecap="round" stroke-linejoin="round"/>
<path d="M30.5077 45.3361C30.2113 45.5021 29.9034 45.6469 29.5864 45.7692" stroke="#92989B" stroke-width="0.5" stroke-linecap="round" stroke-linejoin="round"/>
<path d="M41.6535 35.7126C41.1428 35.942 40.694 36.2897 40.3442 36.7268C39.9945 37.164 39.7538 37.6782 39.6422 38.2268C39.2752 40.1133 38.3869 41.3722 37.3813 41.497C36.3756 41.6218 32.6099 41.2438 31.9749 42.6275C31.803 43.0323 31.6798 43.4562 31.6079 43.8901" stroke="#92989B" stroke-width="0.5" stroke-linecap="round" stroke-linejoin="round"/>
<path d="M114.014 33.5874C112.913 32.9819 112.399 33.4847 111.996 32.9819C111.592 32.479 113.097 31.1467 110.08 29.8548C110.08 29.8548 109.878 27.0286 105.745 26.9185C101.612 26.8084 102.736 29.763 101.609 30.4604C100.482 31.1577 100.196 30.0566 99.0873 30.7613C97.9788 31.466 98.4817 32.8791 97.5751 33.0809C96.6685 33.2828 95.4537 32.1744 94.3452 32.8791C93.2368 33.5838 93.2441 34.1931 92.7303 34.1931C92.2165 34.1931 91.2181 33.7893 90.6125 34.1931C90.0069 34.5968 89.3022 35.0996 89.3022 35.0996H114.822C114.822 35.0996 115.123 34.193 114.014 33.5874Z" stroke="#92989B" stroke-width="0.5" stroke-linecap="round" stroke-linejoin="round"/>
<path d="M98.9188 33.1727C98.7733 33.2543 98.6223 33.3255 98.4668 33.3859" stroke="#92989B" stroke-width="0.5" stroke-linecap="round" stroke-linejoin="round"/>
<path d="M104.376 28.4601C104.126 28.572 103.907 28.742 103.736 28.9558C103.564 29.1696 103.447 29.4212 103.393 29.6896C103.209 30.6145 102.776 31.2312 102.291 31.2899C101.807 31.3486 99.9535 31.1688 99.6452 31.8441C99.5646 32.0437 99.5067 32.2518 99.4727 32.4644" stroke="#92989B" stroke-width="0.5" stroke-linecap="round" stroke-linejoin="round"/>
<path d="M155.801 21.4351C154.946 20.9653 154.557 21.3543 154.248 20.9653C153.94 20.5762 155.1 19.5669 152.78 18.5576C152.78 18.5576 152.626 16.3847 149.44 16.304C146.255 16.2232 147.11 18.4805 146.255 19.0237C145.399 19.5669 145.153 18.7154 144.313 19.2586C143.472 19.8018 143.847 20.8882 143.149 21.046C142.452 21.2038 141.516 20.345 140.661 20.8882C139.806 21.4314 139.81 21.8975 139.42 21.8975C139.031 21.8975 138.253 21.5892 137.787 21.8975C137.321 22.2058 136.778 22.5985 136.778 22.5985H156.432C156.432 22.5985 156.656 21.8975 155.801 21.4351Z" stroke="#92989B" stroke-width="0.5" stroke-linecap="round" stroke-linejoin="round"/>
<path d="M144.174 21.1157C144.062 21.1773 143.947 21.2313 143.828 21.2774" stroke="#92989B" stroke-width="0.5" stroke-linecap="round" stroke-linejoin="round"/>
<path d="M148.38 17.486C148.187 17.5716 148.017 17.7022 147.885 17.867C147.753 18.0318 147.662 18.2258 147.62 18.4329C147.477 19.1449 147.147 19.6184 146.765 19.6661C146.383 19.7138 144.966 19.5707 144.728 20.0919C144.664 20.2447 144.62 20.405 144.596 20.569" stroke="#92989B" stroke-width="0.5" stroke-linecap="round" stroke-linejoin="round"/>
<path d="M142.206 20.9432H143.571" stroke="#92989B" stroke-width="0.5" stroke-linecap="round" stroke-linejoin="round"/>
<path d="M154.249 20.9543H163.424C163.424 20.9543 164.158 18.7521 161.453 17.2619C158.748 15.7718 157.515 17.016 156.531 15.7938C155.548 14.5716 159.258 11.3418 151.866 8.14492C151.866 8.14492 151.375 1.25211 141.281 1.0062C131.188 0.760292 133.897 7.89902 131.188 9.62038C128.479 11.3418 127.742 8.63674 125.037 10.3544C122.332 12.0721 123.569 15.5259 121.344 16.0177C119.12 16.5095 116.173 13.8155 113.468 15.5259C110.763 17.2362 110.759 18.7227 109.53 18.7227C108.3 18.7227 105.837 17.7391 104.358 18.7227C102.879 19.7064 101.158 20.9249 101.158 20.9249H140.65" stroke="#92989B" stroke-width="0.5" stroke-linecap="round" stroke-linejoin="round"/>
<path d="M124.625 16.238C124.27 16.4366 123.902 16.6107 123.523 16.7592" stroke="#92989B" stroke-width="0.5" stroke-linecap="round" stroke-linejoin="round"/>
<path d="M125.96 14.5128C126.039 13.9949 126.179 13.4884 126.379 13.0043C127.131 11.3526 131.638 11.8004 132.839 11.6499C134.039 11.4994 135.092 9.99829 135.544 7.74473C135.676 7.08897 135.963 6.47436 136.382 5.95213C136.8 5.42989 137.337 5.01514 137.948 4.74243" stroke="#92989B" stroke-width="0.5" stroke-linecap="round" stroke-linejoin="round"/>
<path d="M72.1512 55.7488C72.1512 55.7488 81.793 50.9297 89.6218 58.4611L89.9374 58.7511C93.212 56.1981 95.862 52.9329 97.6866 49.2031C99.5111 45.4733 100.462 41.3769 100.467 37.2248C100.467 22.0041 87.9261 9.66455 72.4521 9.66455C56.9782 9.66455 44.4404 22.0041 44.4404 37.2248C44.4455 41.3891 45.4013 45.4973 47.2351 49.2361C49.0688 52.9749 51.7321 56.2456 55.0219 58.7988C56.7836 57.5068 64.9317 52.0087 72.1512 55.7488Z" fill="#6FC54C"/>
<path opacity="0.4" d="M72.1512 55.7488C72.1512 55.7488 81.793 50.9297 89.6218 58.4611L89.9374 58.7511C93.212 56.1981 95.862 52.9329 97.6866 49.2031C99.5111 45.4733 100.462 41.3769 100.467 37.2248C100.467 22.0041 87.9261 9.66455 72.4521 9.66455C56.9782 9.66455 44.4404 22.0041 44.4404 37.2248C44.4455 41.3891 45.4013 45.4973 47.2351 49.2361C49.0688 52.9749 51.7321 56.2456 55.0219 58.7988C56.7836 57.5068 64.9317 52.0087 72.1512 55.7488Z" fill="#F7F0E6"/>
<path d="M62.4763 49.8617L71.6814 52.9484L71.2337 144.309H73.5239L73.0248 48.6798L80.1451 44.7232L90.3522 45.8757L81.2095 44.1287L92.4333 37.8965L85.5552 41.2585L86.5865 37.9956L91.2184 34.34L86.8838 37.0597L88.1831 32.9526L85.1477 40.2675L82.6006 37.1918L84.021 32.4314L82.1601 36.6596L79.1615 33.0407L84.7734 41.1631L84.5275 41.7613L72.9917 47.4026L72.7128 36.5091L76.1555 32.5305L86.2745 29.9173L82.1638 30.6256L84.1054 28.4455L81.3894 30.7614L77.0364 31.5138L82.0243 25.7552L78.0714 29.5649L78.3834 24.7128L77.4475 30.1669L72.6651 34.7731L72.4559 26.5296L72.3091 31.4771L70.5877 28.5519L71.2447 25.0138L74.915 21.505L71.4319 23.9934L72.4852 18.2971L70.0298 27.605L67.7138 23.6741L69.2957 26.8342L65.2878 25.5827L69.7435 27.7261L72.2724 32.7874L72.0375 40.807L66.7192 36.7036L65.3906 33.4187L65.9815 28.5299L64.9391 32.2589L65.0162 32.4901L62.6855 26.7094L65.9631 36.1237L60.9495 32.2589L67.2697 37.9662L57.7417 37.3753L62.9608 38.1204L56.5268 39.8895L64.2711 38.3076L68.2864 38.8838L71.9934 42.2311L71.7292 51.3738L65.4786 49.9791L59.5621 42.6679L62.7039 47.0942L55.4 45.2664L63.5481 48.2834L64.6161 49.7882L57.5692 48.2174L61.2688 49.4579L53.9282 51.1646L62.4763 49.8617Z" fill="#C2C2C2"/>
<path d="M150.082 110.33C150.082 110.33 155.723 107.507 160.307 111.919L160.491 112.088C162.408 110.596 163.96 108.687 165.03 106.506C166.1 104.324 166.659 101.928 166.664 99.4987C166.664 90.5909 159.324 83.3494 150.265 83.3494C141.207 83.3494 133.863 90.5762 133.863 99.4987C133.866 101.938 134.427 104.344 135.502 106.533C136.577 108.723 138.138 110.638 140.066 112.132C141.09 111.357 145.865 108.142 150.082 110.33Z" fill="#6FC54C"/>
<path opacity="0.4" d="M150.082 110.33C150.082 110.33 155.723 107.507 160.307 111.919L160.491 112.088C162.408 110.596 163.96 108.687 165.03 106.506C166.1 104.324 166.659 101.928 166.664 99.4987C166.664 90.5909 159.324 83.3494 150.265 83.3494C141.207 83.3494 133.863 90.5762 133.863 99.4987C133.866 101.938 134.427 104.344 135.502 106.533C136.577 108.723 138.138 110.638 140.066 112.132C141.09 111.357 145.865 108.142 150.082 110.33Z" fill="#F7F0E6"/>
<path d="M144.427 106.883L149.815 108.693L149.731 144.052H150.7L150.601 106.193L154.77 103.877L160.745 104.549L155.394 103.529L161.96 99.8805L157.938 101.848L158.539 99.9392L161.252 97.7994L158.712 99.3886L159.475 96.9846L157.695 101.268L156.205 99.4657L157.038 96.68L155.948 99.1574L154.194 97.036L157.479 101.793L157.332 102.141L150.582 105.445L150.417 99.0656L152.432 96.7387L158.356 95.2082L155.952 95.6229L157.09 94.3457L155.497 95.7037L152.95 96.1441L155.867 92.7711L153.555 95.0026L153.739 92.1618L153.192 95.3513L150.391 98.0526L150.267 93.2262L150.182 96.1221L149.177 94.408L149.558 92.3343L151.705 90.2826L149.668 91.7397L150.285 88.4034L148.846 93.8538L147.492 91.5526L148.417 93.4024L146.071 92.6683L148.677 93.9272L150.16 96.8892L150.021 101.583L146.908 99.1831L146.13 97.2562L146.475 94.397L145.866 96.5809L145.914 96.713L144.548 93.329L146.468 98.8418L143.532 96.5809L147.231 99.9208L141.652 99.5758L144.71 100.013L140.944 101.048L145.477 100.119L147.826 100.457L149.999 102.417L149.841 107.768L146.182 106.953L142.72 102.67L144.559 105.265L140.283 104.193L145.051 105.958L145.675 106.839L141.553 105.922L143.719 106.648L139.421 107.647L144.427 106.883Z" fill="#C2C2C2"/>
<path d="M107.089 85.1258C107.089 85.1258 113.53 81.9033 118.764 86.9353C118.834 87.005 118.904 87.0637 118.973 87.1298C121.161 85.424 122.932 83.2422 124.151 80.7499C125.37 78.2576 126.006 75.5204 126.009 72.7459C126.009 62.5719 117.626 54.3247 107.291 54.3247C96.9552 54.3247 88.5723 62.5719 88.5723 72.7459C88.5766 75.5291 89.2162 78.2746 90.4426 80.773C91.6689 83.2715 93.4495 85.4569 95.6486 87.1628C96.8157 86.2856 102.266 82.6153 107.089 85.1258Z" fill="#6FC54C"/>
<path opacity="0.4" d="M107.089 85.1258C107.089 85.1258 113.53 81.9033 118.764 86.9353C118.834 87.005 118.904 87.0637 118.973 87.1298C121.161 85.424 122.932 83.2422 124.151 80.7499C125.37 78.2576 126.006 75.5204 126.009 72.7459C126.009 62.5719 117.626 54.3247 107.291 54.3247C96.9552 54.3247 88.5723 62.5719 88.5723 72.7459C88.5766 75.5291 89.2162 78.2746 90.4426 80.773C91.6689 83.2715 93.4495 85.4569 95.6486 87.1628C96.8157 86.2856 102.266 82.6153 107.089 85.1258Z" fill="#F7F0E6"/>
<path d="M100.621 81.1912L106.773 83.2539L106.476 144.309H108.002L107.668 80.3984L112.429 77.7558L119.248 78.5266L113.141 77.3594L120.639 73.1936L116.044 75.4399L116.734 73.2597L119.828 70.8153L116.932 72.6358L117.802 69.8904L115.772 74.7792L114.069 72.7238L115.02 69.5417L113.776 72.3678L111.772 69.9491L115.523 75.3775L115.358 75.7775L107.646 79.5469L107.459 72.2651L109.764 69.6078L116.525 67.8607L113.779 68.3342L115.075 66.8771L113.258 68.4259L110.351 68.9288L113.684 65.0786L111.041 67.6258L111.251 64.3849L110.627 68.0259L107.43 71.1052L107.29 65.5961L107.195 68.9031L106.042 66.9505L106.479 64.5831L108.931 62.2378L106.608 63.9005L107.309 60.0944L105.668 66.3155L104.123 63.6876L105.18 65.8017L102.501 64.9648L105.477 66.3963L107.166 69.7803L107.011 75.1389L103.455 72.3972L102.57 70.1987L102.963 66.9358L102.269 69.4279L102.317 69.5784L100.761 65.7173L102.952 72.0081L99.601 69.4279L103.826 73.2414L97.4576 72.845L100.944 73.3441L96.6465 74.526L101.822 73.4689L104.505 73.8506L106.982 76.0895L106.802 82.2006L102.629 81.2683L98.6725 76.3795L100.772 79.3414L95.894 78.1192L101.337 80.1342L102.049 81.1398L97.3401 80.0901L99.8139 80.9196L94.9067 82.0611L100.621 81.1912Z" fill="#C2C2C2"/>
<path d="M146.322 144.133C146.303 144.134 146.284 144.13 146.266 144.123C146.248 144.116 146.232 144.106 146.218 144.093C146.204 144.079 146.193 144.063 146.186 144.046C146.179 144.028 146.175 144.009 146.175 143.99V125.209C146.176 125.171 146.192 125.134 146.219 125.108C146.247 125.081 146.283 125.066 146.322 125.066C146.36 125.066 146.396 125.081 146.423 125.108C146.45 125.135 146.465 125.171 146.465 125.209V143.99C146.465 144.009 146.462 144.028 146.455 144.045C146.448 144.063 146.437 144.079 146.424 144.092C146.411 144.106 146.395 144.116 146.377 144.123C146.359 144.13 146.341 144.134 146.322 144.133Z" fill="#42403D"/>
<path d="M146.179 142.294C145.571 141.449 144.804 140.729 143.921 140.177C142.651 139.472 140.534 139.472 140.534 139.472C140.534 139.472 141.66 143.564 146.179 142.294Z" fill="#42403D"/>
<path d="M146.322 142.294C146.93 141.449 147.696 140.729 148.579 140.177C149.849 139.472 151.97 139.472 151.97 139.472C151.97 139.472 150.84 143.564 146.322 142.294Z" fill="#42403D"/>
<path d="M146.179 137.211C145.57 136.366 144.803 135.647 143.921 135.093C142.651 134.389 140.534 134.389 140.534 134.389C140.534 134.389 141.66 138.481 146.179 137.211Z" fill="#42403D"/>
<path d="M146.322 137.211C146.931 136.369 147.698 135.652 148.579 135.101C149.849 134.396 151.97 134.396 151.97 134.396C151.97 134.396 150.84 138.481 146.322 137.211Z" fill="#42403D"/>
<path d="M146.179 132.128C145.57 131.283 144.803 130.564 143.921 130.01C142.651 129.305 140.534 129.305 140.534 129.305C140.534 129.305 141.66 133.401 146.179 132.128Z" fill="#42403D"/>
<path d="M146.322 132.128C146.931 131.283 147.697 130.564 148.579 130.01C149.849 129.305 151.97 129.305 151.97 129.305C151.97 129.305 150.84 133.401 146.322 132.128Z" fill="#42403D"/>
<path d="M146.179 127.044C145.57 126.199 144.803 125.48 143.921 124.927C142.651 124.222 140.534 124.222 140.534 124.222C140.534 124.222 141.66 128.318 146.179 127.044Z" fill="#42403D"/>
<path d="M146.322 127.044C146.931 126.199 147.697 125.48 148.579 124.927C149.849 124.222 151.97 124.222 151.97 124.222C151.97 124.222 150.84 128.318 146.322 127.044Z" fill="#42403D"/>
<path d="M146.323 125.209C146.323 125.209 145.192 123.69 145.133 122.236C145.075 120.783 146.033 118.896 146.033 118.896C146.033 118.896 149.494 121.752 146.323 125.209Z" fill="#42403D"/>
<path d="M133.935 144.052V135.508C133.935 135.47 133.92 135.434 133.893 135.407C133.866 135.38 133.83 135.365 133.792 135.365C133.754 135.365 133.718 135.38 133.691 135.407C133.664 135.434 133.649 135.47 133.649 135.508V144.052H133.935Z" fill="#42403D"/>
<path d="M133.634 142.441C133.025 141.596 132.259 140.877 131.377 140.323C130.107 139.619 127.989 139.619 127.989 139.619C127.989 139.619 129.116 143.696 133.634 142.441Z" fill="#42403D"/>
<path d="M133.777 142.441C134.386 141.596 135.153 140.877 136.035 140.323C137.308 139.619 139.426 139.619 139.426 139.619C139.426 139.619 138.295 143.696 133.777 142.441Z" fill="#42403D"/>
<path d="M133.634 137.343C133.025 136.498 132.259 135.779 131.377 135.225C130.107 134.521 127.989 134.521 127.989 134.521C127.989 134.521 129.116 138.617 133.634 137.343Z" fill="#42403D"/>
<path d="M133.777 137.343C134.386 136.498 135.153 135.779 136.035 135.225C137.308 134.521 139.426 134.521 139.426 134.521C139.426 134.521 138.295 138.617 133.777 137.343Z" fill="#42403D"/>
<path d="M133.777 135.508C133.777 135.508 132.647 133.988 132.588 132.535C132.529 131.082 133.487 129.195 133.487 129.195C133.487 129.195 136.948 132.051 133.777 135.508Z" fill="#42403D"/>
<path d="M158.526 144.052V135.508C158.525 135.47 158.509 135.433 158.482 135.407C158.455 135.38 158.418 135.365 158.379 135.365C158.342 135.365 158.305 135.38 158.278 135.407C158.251 135.434 158.236 135.47 158.236 135.508V144.052H158.526Z" fill="#42403D"/>
<path d="M158.225 142.441C157.614 141.597 156.847 140.878 155.964 140.323C154.694 139.619 152.577 139.619 152.577 139.619C152.577 139.619 153.707 143.696 158.225 142.441Z" fill="#42403D"/>
<path d="M158.364 142.441C158.974 141.596 159.741 140.877 160.625 140.323C161.895 139.619 164.012 139.619 164.012 139.619C164.012 139.619 162.882 143.696 158.364 142.441Z" fill="#42403D"/>
<path d="M158.225 137.343C157.614 136.499 156.847 135.78 155.964 135.225C154.694 134.521 152.577 134.521 152.577 134.521C152.577 134.521 153.707 138.617 158.225 137.343Z" fill="#42403D"/>
<path d="M158.364 137.343C158.974 136.498 159.741 135.779 160.625 135.225C161.895 134.521 164.012 134.521 164.012 134.521C164.012 134.521 162.882 138.617 158.364 137.343Z" fill="#42403D"/>
<path d="M158.364 135.508C158.364 135.508 157.234 133.988 157.179 132.535C157.124 131.082 158.074 129.195 158.074 129.195C158.074 129.195 161.535 132.051 158.364 135.508Z" fill="#42403D"/>
<path d="M1.20215 144.309H167.841" stroke="#42403D" stroke-width="0.5" stroke-miterlimit="10" stroke-linecap="round"/>
<path d="M107.603 123.528C106.611 125.974 106.12 128.593 106.158 131.232C106.196 133.871 106.762 136.475 107.823 138.892L110.077 143.986C110.123 144.09 110.157 144.198 110.18 144.309H108.084L106.249 140.158C105.019 137.357 104.363 134.337 104.319 131.278C104.274 128.219 104.843 125.182 105.992 122.346L110.103 112.275C110.237 111.943 110.289 111.584 110.252 111.228C110.215 110.872 110.091 110.53 109.891 110.234C109.692 109.937 109.422 109.693 109.106 109.525C108.79 109.357 108.438 109.269 108.08 109.269H98.721C97.8548 109.269 97.1538 110.168 97.1538 109.305C97.1538 108.89 97.3189 108.491 97.6128 108.197C97.9067 107.903 98.3054 107.738 98.721 107.738H106.796C107.666 107.739 108.523 107.953 109.291 108.363C110.059 108.772 110.715 109.365 111.2 110.087C112.187 111.555 112.378 111.816 111.71 113.457L107.603 123.528Z" fill="#A3A3A3"/>
<path d="M98.7179 144.195H99.9585V99.3298H98.7179V144.195Z" fill="#A3A3A3"/>
<path d="M9.30583 144.195H10.5464L10.5464 99.3298H9.30583L9.30583 144.195Z" fill="#A3A3A3"/>
<path d="M9.9999 102.743L100.579 102.743V96.2283L9.9999 96.2283V102.743Z" fill="#BDBDBD"/>
<path d="M9.9999 110.499L100.579 110.499V103.984L9.9999 103.984V110.499Z" fill="#BDBDBD"/>
<path d="M10.0003 121.355L107.285 121.355V119.182L10.0003 119.182V121.355Z" fill="#BDBDBD"/>
<path d="M9.99967 121.355H25.4736V119.182H9.99967V121.355Z" fill="#878787"/>
<path d="M23.3667 112.275C23.5013 111.944 23.5525 111.584 23.5159 111.229C23.4792 110.873 23.3558 110.532 23.1565 110.235C22.9572 109.938 22.6881 109.695 22.3728 109.527C22.0574 109.358 21.7056 109.27 21.3481 109.269H9.99951V107.738H20.0635C20.934 107.738 21.7911 107.953 22.5593 108.362C23.3274 108.772 23.9828 109.364 24.4678 110.087C25.4588 111.555 25.6496 111.816 24.978 113.457L20.8893 123.528C19.8976 125.974 19.4062 128.593 19.444 131.232C19.4818 133.871 20.0481 136.475 21.1095 138.892L23.3631 143.986C23.4061 144.09 23.4393 144.199 23.4622 144.309H21.3701L19.5349 140.158C18.3035 137.357 17.6463 134.337 17.6022 131.278C17.558 128.219 18.1279 125.181 19.278 122.346L23.3667 112.275Z" fill="#A3A3A3"/>
<path d="M82.4353 154.553C113.096 154.553 137.952 152.678 137.952 150.365C137.952 148.052 113.096 146.177 82.4353 146.177C51.7742 146.177 26.9185 148.052 26.9185 150.365C26.9185 152.678 51.7742 154.553 82.4353 154.553Z" fill="#6FC54C"/>
<path opacity="0.6" d="M82.4353 154.553C113.096 154.553 137.952 152.678 137.952 150.365C137.952 148.052 113.096 146.177 82.4353 146.177C51.7742 146.177 26.9185 148.052 26.9185 150.365C26.9185 152.678 51.7742 154.553 82.4353 154.553Z" fill="#F7F0E6"/>
<path d="M86.5055 143.381C86.5055 143.381 85.5182 145.109 85.5989 146.258C85.6797 147.407 87.9846 147.576 88.3957 147.411C88.8068 147.245 90.1244 143.957 89.9592 143.135C89.7941 142.313 86.7514 142.639 86.5055 143.381Z" fill="#F7F0E6" stroke="#42403D" stroke-width="0.5" stroke-miterlimit="10" stroke-linecap="round"/>
<path d="M80.5811 115.989C80.5811 115.989 81.0729 126.93 82.0492 128.835C83.0255 130.74 86.7398 141.832 86.7398 141.832L86.4939 143.395L87.3968 143.726C87.3968 143.726 88.8649 144.217 89.9476 143.149C91.0304 142.081 89.2907 128.013 89.2907 128.013L88.8796 117.153L80.5811 115.989Z" fill="#42403D" stroke="#42403D" stroke-width="0.5" stroke-miterlimit="10" stroke-linecap="round"/>
<path d="M88.2304 143.876C88.0098 144.816 87.6784 145.727 87.2431 146.588C86.5862 147.822 86.2558 148.809 87.9038 149.139C89.5518 149.47 92.3448 149.631 93.3322 148.974C94.3195 148.317 93.824 145.19 93.824 145.19C93.824 145.19 90.7813 141.901 88.2304 143.876Z" fill="#F7F0E6" stroke="#42403D" stroke-width="0.5" stroke-miterlimit="10" stroke-linecap="round"/>
<path d="M90.7816 148.313C89.4227 148.252 88.0678 148.121 86.7222 147.921C86.6415 148.504 86.9168 148.937 87.9041 149.136C89.5484 149.466 92.3451 149.627 93.3324 148.97C93.6738 148.743 93.8389 148.211 93.905 147.62C92.9586 148.163 91.869 148.405 90.7816 148.313Z" fill="#F7F0E6" stroke="#42403D" stroke-width="0.5" stroke-miterlimit="10" stroke-linecap="round"/>
<path d="M87.6538 117.138C87.6538 117.138 87.2427 126.105 87.2427 128.329C87.2427 130.553 88.6411 141.736 88.6411 141.736L88.0538 143.3L88.219 143.876V144.368C88.219 144.368 88.4649 143.792 90.3588 144.038C92.2526 144.284 93.9263 146.111 93.9263 146.111C93.9263 146.111 94.3374 143.726 94.3374 142.984C94.3374 142.243 94.2529 141.09 94.2529 140.599C94.2529 140.107 94.6603 126.516 94.6603 126.516L96.1285 115.905L87.6538 117.138Z" fill="#42403D" stroke="#42403D" stroke-width="0.5" stroke-miterlimit="10" stroke-linecap="round"/>
<path d="M78.8533 110.722L78.1963 115.329C78.1963 115.329 80.4168 118.21 86.8325 118.536C90.8099 118.677 94.7375 117.617 98.104 115.494L96.8634 110.476L78.8533 110.722Z" fill="#F7F0E6" stroke="#42403D" stroke-width="0.5" stroke-miterlimit="10" stroke-linecap="round"/>
<path d="M82.3101 87.8565C82.3101 87.8565 78.7719 88.9245 78.526 89.5008C78.2801 90.077 72.6829 99.6198 72.6829 99.6198L67.6656 97.6635L67.0894 99.9648C67.0894 99.9648 72.1066 104.821 73.1784 105.066C74.2501 105.312 78.6838 100.46 78.6838 100.46L77.7773 111.299C77.7773 111.299 80.3281 113.519 85.261 113.519C90.1939 113.519 93.5705 113.193 95.0497 112.697C95.9163 112.412 96.7677 112.082 97.6005 111.71L95.9562 99.5353C95.9562 99.5353 100.728 104.472 101.63 104.553C102.533 104.633 109.591 95.4907 109.591 95.4907L107.954 93.2591L101.715 97.3845C101.715 97.3845 97.1968 89.7467 96.1287 88.9245C95.0607 88.1024 92.2602 87.6913 91.9336 87.5261C91.6069 87.361 82.3101 87.8565 82.3101 87.8565Z" fill="#42403D" stroke="#42403D" stroke-width="0.5" stroke-miterlimit="10" stroke-linecap="round"/>
<path d="M78.6914 100.442L79.3007 94.3455" stroke="#42403D" stroke-width="0.5" stroke-miterlimit="10"/>
<path d="M95.9647 99.5353L95.0654 94.4373" stroke="#42403D" stroke-width="0.5" stroke-miterlimit="10"/>
<path d="M84.0469 100.78C86.9097 101.011 90.7782 101.069 94.4228 100.302" stroke="#42403D" stroke-width="0.5" stroke-miterlimit="10"/>
<path d="M79.6641 100.211C79.6641 100.211 81.0368 100.486 83.1398 100.695" stroke="#42403D" stroke-width="0.5" stroke-miterlimit="10"/>
<path d="M94.2715 107.793C94.5945 107.716 94.9175 107.632 95.2478 107.544" stroke="#42403D" stroke-width="0.5" stroke-miterlimit="10"/>
<path d="M79.8477 107.635C79.8477 107.635 85.276 109.713 93.4498 107.977" stroke="#42403D" stroke-width="0.5" stroke-miterlimit="10"/>
<path d="M87.3943 107.078L87.2769 111.211" stroke="#42403D" stroke-width="0.5" stroke-miterlimit="10"/>
<path d="M87.7356 95.3549L87.4272 105.907" stroke="#42403D" stroke-width="0.5" stroke-miterlimit="10"/>
<path d="M84.0353 85.3056C84.0353 85.3056 81.1578 86.5388 80.9119 88.1024C80.666 89.6659 82.7214 90.8147 83.4591 91.6405C84.1968 92.4664 88.2305 95.175 88.2305 95.175C88.2305 95.175 92.51 90.1577 93.167 89.8311C93.824 89.5044 94.8113 87.6913 94.1543 86.7847C93.4973 85.8782 90.5354 84.9753 89.3829 84.7294C88.2305 84.4835 84.0353 85.3056 84.0353 85.3056Z" fill="#F7F0E6" stroke="#42403D" stroke-width="0.5" stroke-miterlimit="10" stroke-linecap="round"/>
<path d="M84.6929 85.6322C84.6929 85.6322 85.1884 89.5814 85.6802 90.4036C86.172 91.2257 87.4933 93.9417 87.9044 93.9417C88.3155 93.9417 89.7138 89.5814 89.9597 88.9245C90.2057 88.2675 90.3708 85.9625 90.3708 85.9625L84.6929 85.6322Z" fill="#F7F0E6" stroke="#42403D" stroke-width="0.5" stroke-miterlimit="10" stroke-linecap="round"/>
<path d="M82.3914 80.7802C81.083 81.1125 79.8532 81.7 78.7725 82.5089C77.0438 83.8228 76.7979 87.361 76.7979 87.361C76.7979 87.361 77.5319 87.8565 79.5139 86.7847C81.4958 85.713 82.6373 83.988 82.8171 82.7474C82.9268 82.0615 82.7749 81.3594 82.3914 80.7802Z" fill="#42403D" stroke="#42403D" stroke-width="0.5" stroke-miterlimit="10" stroke-linecap="round"/>
<path d="M92.128 80.7802C93.4361 81.1131 94.6658 81.7005 95.7469 82.5089C97.4719 83.8228 97.7215 87.361 97.7215 87.361C97.7215 87.361 96.9875 87.8565 95.0055 86.7847C93.0236 85.713 91.8784 83.988 91.7022 82.7474C91.5926 82.0615 91.7445 81.3594 92.128 80.7802Z" fill="#42403D" stroke="#42403D" stroke-width="0.5" stroke-miterlimit="10" stroke-linecap="round"/>
<path d="M82.3918 80.7801C82.3918 80.7801 80.8283 80.2882 81.1586 82.0133C81.489 83.7383 83.2947 84.2338 83.2947 83.9879C83.2947 83.742 82.3918 80.7801 82.3918 80.7801Z" fill="#F7F0E6" stroke="#42403D" stroke-width="0.5" stroke-miterlimit="10" stroke-linecap="round"/>
<path d="M92.1361 80.7801C92.1361 80.7801 93.6959 80.2882 93.3693 82.0133C93.0426 83.7383 91.2295 84.2338 91.2295 83.9879C91.2295 83.742 92.1361 80.7801 92.1361 80.7801Z" fill="#F7F0E6" stroke="#42403D" stroke-width="0.5" stroke-miterlimit="10" stroke-linecap="round"/>
<path d="M82.3908 80.78C82.3908 80.78 82.8826 84.3989 83.5433 85.3862C84.204 86.3736 86.586 88.0179 87.654 88.1023C88.7221 88.1867 90.7811 86.6341 91.4381 85.4707C92.0951 84.3072 92.3447 78.1484 92.3447 77.9025C92.3447 77.6566 92.0988 75.8435 89.8746 74.3644C87.6504 72.8852 83.7892 73.2119 82.7212 75.2672C81.6531 77.3226 82.3908 80.78 82.3908 80.78Z" fill="#F7F0E6" stroke="#42403D" stroke-width="0.5" stroke-miterlimit="10" stroke-linecap="round"/>
<path d="M85.2988 81.2608C85.5927 81.2608 85.831 81.0225 85.831 80.7286C85.831 80.4347 85.5927 80.1964 85.2988 80.1964C85.0049 80.1964 84.7666 80.4347 84.7666 80.7286C84.7666 81.0225 85.0049 81.2608 85.2988 81.2608Z" fill="#42403D"/>
<path d="M89.4453 81.2608C89.7392 81.2608 89.9775 81.0225 89.9775 80.7286C89.9775 80.4347 89.7392 80.1964 89.4453 80.1964C89.1514 80.1964 88.9131 80.4347 88.9131 80.7286C88.9131 81.0225 89.1514 81.2608 89.4453 81.2608Z" fill="#42403D"/>
<path d="M88.6126 82.9823C88.6126 82.9823 87.8345 83.5182 86.5132 83.03" stroke="#42403D" stroke-width="0.5" stroke-miterlimit="10" stroke-linecap="round"/>
<path d="M85.4365 84.2412C85.4365 84.2412 86.0238 85.023 87.6387 84.8762C89.2536 84.7294 89.8886 83.8485 89.8886 83.8485" stroke="#42403D" stroke-width="0.5" stroke-miterlimit="10" stroke-linecap="round"/>
<path d="M84.0171 79.2569C84.2085 79.0315 84.4489 78.8529 84.7199 78.7346C84.9908 78.6163 85.2852 78.5614 85.5806 78.5742" stroke="#42403D" stroke-width="0.5" stroke-miterlimit="10" stroke-linecap="round"/>
<path d="M88.6128 78.622C88.9799 78.5936 89.3489 78.6445 89.6946 78.7711C90.0404 78.8978 90.3549 79.0973 90.6168 79.3561" stroke="#42403D" stroke-width="0.5" stroke-miterlimit="10" stroke-linecap="round"/>
<path d="M82.3915 80.7801C82.3915 80.7801 82.8026 80.1231 83.544 78.9706C84.2854 77.8181 85.5994 75.4324 85.5994 75.4324C85.5994 75.4324 87.4932 77.6346 88.9724 78.1485C89.758 78.3998 90.5267 78.7013 91.2736 79.0514C91.2736 79.0514 91.4021 80.7801 91.7691 80.7801C92.1361 80.7801 93.6593 78.0677 93.6593 75.682C93.6593 73.2963 88.8879 70.0041 85.5847 71.2373C82.2814 72.4705 80.5674 74.6103 80.5674 76.5849C80.5674 78.5595 82.3915 80.7801 82.3915 80.7801Z" fill="#42403D" stroke="#42403D" stroke-width="0.5" stroke-miterlimit="10" stroke-linecap="round"/>
<path d="M29.2492 93.2004V95.7696C29.2492 95.7696 29.9833 97.5791 29.9833 98.1553C29.9833 98.7315 28.9959 101.528 28.9152 102.105C28.8345 102.681 28.0086 102.516 28.0086 102.185C28.0537 101.364 28.0537 100.54 28.0086 99.7188C27.9279 98.5664 26.6947 99.227 26.6947 99.227C26.6947 99.227 26.8598 101.774 27.1865 102.435C27.2585 102.579 27.3104 102.732 27.3406 102.89C27.3589 103.007 27.3417 103.127 27.2914 103.234C27.241 103.342 27.1597 103.431 27.0579 103.492C26.9561 103.553 26.8385 103.582 26.7202 103.575C26.6018 103.569 26.4881 103.527 26.3937 103.455C26.3534 103.419 26.3241 103.372 26.3093 103.319C26.2249 102.993 23.9236 101.675 23.8392 101.345C23.7567 100.058 23.7567 98.7669 23.8392 97.48C23.9236 96.4119 25.1568 92.7893 25.2376 92.5434C25.3583 92.2615 25.4956 91.987 25.6486 91.7213C25.6486 91.7213 29.0877 91.3909 29.2492 93.2004Z" fill="#F7F0E6" stroke="#42403D" stroke-width="0.5" stroke-miterlimit="10" stroke-linecap="round"/>
<path d="M24.2725 99.1059L24.5 101.378L26.1663 102.967L25.0285 100.016L24.9551 98.6508" fill="#F7F0E6"/>
<path d="M24.2725 99.1059L24.5 101.378L26.1663 102.967L25.0285 100.016L24.9551 98.6508" stroke="#F7F0E6" stroke-width="0.5" stroke-miterlimit="10" stroke-linecap="round"/>
<path d="M32.2112 54.0457C32.2112 54.0457 30.743 54.2916 30.4017 56.2662C30.0604 58.2409 29.2492 73.6231 29.2492 73.6231L24.5586 92.9545C24.5586 92.9545 24.6393 92.2975 27.025 92.5434C29.4107 92.7893 29.4107 93.7767 29.4107 93.7767L33.448 80.8646L35.0079 76.0932L33.3673 53.7998L32.2112 54.0457Z" fill="#6FC54C" stroke="#42403D" stroke-width="0.5" stroke-miterlimit="10" stroke-linecap="round"/>
<path d="M45.7029 142.312C45.1533 143.405 44.3995 144.381 43.4823 145.19C42.0839 146.342 40.4397 147.33 40.9131 148.644C41.3866 149.958 43.6291 149.631 44.9504 149.304C46.2718 148.978 47.4206 148.071 47.9968 147.741C48.5915 147.306 49.1422 146.815 49.6411 146.273L49.887 142.327L45.7029 142.312Z" fill="#42403D" stroke="#42403D" stroke-width="0.5" stroke-miterlimit="10" stroke-linecap="round"/>
<path d="M47.8426 146.673C46.5379 147.706 45.0196 148.436 43.3979 148.809C42.9364 148.909 42.4563 148.881 42.0093 148.729C41.5624 148.576 41.1656 148.304 40.8617 147.943C40.82 148.178 40.8441 148.421 40.9315 148.644C41.427 149.961 43.6475 149.631 44.9688 149.304C46.2901 148.978 47.4389 148.071 48.0151 147.741C48.6098 147.306 49.1605 146.815 49.6594 146.273L49.7071 145.476C49.0659 145.843 48.4436 146.243 47.8426 146.673Z" fill="#F7F0E6" stroke="#42403D" stroke-width="0.5" stroke-miterlimit="10" stroke-linecap="round"/>
<path d="M48.4994 143.957C48.4994 143.957 48.2535 149.55 48.4994 149.881C48.7453 150.211 49.9676 150.457 50.3089 150.703C50.6502 150.949 50.4741 151.525 52.2028 151.855C53.9315 152.186 57.3008 152.758 57.3852 150.387C57.4696 148.016 54.3389 145.781 54.3389 145.781L54.1737 144.137L48.4994 143.957Z" fill="#42403D" stroke="#42403D" stroke-width="0.5" stroke-miterlimit="10" stroke-linecap="round"/>
<path d="M57.3708 150.516C57.0961 150.824 56.7556 151.067 56.3744 151.227C55.9933 151.386 55.5812 151.458 55.1686 151.437C53.0325 151.356 50.7275 150.039 50.7275 150.039L48.4079 148.938C48.3914 149.252 48.4248 149.566 48.507 149.87C48.7529 150.196 49.9751 150.446 50.3165 150.692C50.6578 150.938 50.4816 151.514 52.2103 151.844C53.9391 152.175 57.1579 152.718 57.3708 150.516Z" fill="#F7F0E6" stroke="#42403D" stroke-width="0.5" stroke-miterlimit="10" stroke-linecap="round"/>
<path d="M57.136 96.5624C56.2331 89.5888 55.9028 86.9388 55.9028 86.9388L35.2574 87.2692C35.2574 87.2692 33.6938 99.9354 34.0205 105.283C34.3471 110.631 34.516 119.186 35.9143 121.326C37.3127 123.466 42.8255 136.132 43.5632 137.365C44.301 138.598 45.0314 140.081 44.8809 141.314C44.772 142.017 44.8876 142.736 45.2112 143.37L48.5145 143.946L48.7604 144.522C48.7604 144.522 50.3239 144.687 51.5571 144.687C52.7904 144.687 54.3539 144.603 54.3539 144.603C54.4771 143.895 54.5605 143.18 54.6035 142.463C54.6035 141.806 54.5191 140.081 54.5191 140.081C54.5191 140.081 56.5744 129.878 56.4937 124.945C56.4129 120.012 56.7396 115.729 56.9855 112.605C57.2314 109.482 58.0425 103.565 57.136 96.5624ZM45.9489 122.724C45.6249 121.114 45.1329 119.541 44.4808 118.034L45.9489 100.923L46.683 101.007C46.683 101.007 47.2592 116.789 47.2592 119.513C47.2592 122.236 48.3273 137.2 48.3273 137.2C48.3273 137.2 46.36 125.036 45.9489 122.735V122.724Z" fill="#42403D" stroke="#42403D" stroke-width="0.5" stroke-miterlimit="10" stroke-linecap="round"/>
<path d="M62.9787 93.9417C62.9787 93.9417 62.2446 96.5733 62.2446 97.7258C62.2446 98.8783 63.643 100.607 63.643 100.607C63.643 100.607 64.2192 101.099 64.2192 100.112C64.2192 99.1242 64.9166 100.317 64.9166 100.317C64.9166 100.317 63.9733 101.264 65.3717 101.675C66.7701 102.086 68.9062 100.442 69.2365 99.7004C69.5669 98.959 68.0033 94.2721 67.8382 93.6958C67.6817 93.2544 67.4602 92.8388 67.1812 92.4626C67.1812 92.4626 63.8008 91.7212 62.9787 93.9417Z" fill="#F7F0E6" stroke="#42403D" stroke-width="0.5" stroke-miterlimit="10" stroke-linecap="round"/>
<path d="M67.3278 97.4432V98.6838C67.3278 99.0075 67.206 99.3194 66.9865 99.5573C66.4249 100.167 65.3348 101.301 65.0596 101.301" stroke="#42403D" stroke-width="0.5" stroke-miterlimit="10" stroke-linecap="round"/>
<path d="M68.6906 97.9718C68.6906 97.9718 68.7677 99.1059 68.2392 99.8069C67.7107 100.508 66.5729 101.774 66.1948 101.774" stroke="#42403D" stroke-width="0.5" stroke-miterlimit="10" stroke-linecap="round"/>
<path d="M64.9101 100.317C64.9101 100.317 65.5267 98.9591 66.1029 98.6325C66.6792 98.3058 65.6919 96.7386 65.2001 96.6578C64.8136 96.6672 64.4456 96.8248 64.1723 97.0982C63.8989 97.3715 63.7412 97.7395 63.7319 98.126V99.3592C63.7319 99.3592 64.6605 100.071 64.9101 100.317Z" fill="#F7F0E6" stroke="#42403D" stroke-width="0.5" stroke-miterlimit="10" stroke-linecap="round"/>
<path d="M58.9452 53.9648C58.9452 53.9648 62.8137 55.1981 63.0596 56.9268C63.3056 58.6555 63.7937 75.1865 63.7937 75.1865L63.8744 77.4914L67.5778 93.3655C66.6352 93.1341 65.667 93.0244 64.6966 93.0388C63.4634 93.1195 62.8064 94.5069 62.8064 94.5069C62.8064 94.5069 56.5669 81.1801 56.5669 79.3706C56.5669 77.5612 58.9452 53.9648 58.9452 53.9648Z" fill="#6FC54C" stroke="#42403D" stroke-width="0.5" stroke-miterlimit="10" stroke-linecap="round"/>
<path d="M46.7712 48.9475C46.7712 48.9475 35.9144 52.9848 35.5034 54.2107C35.0923 55.4365 35.0923 88.8546 35.0923 88.8546C37.9748 89.5854 40.9286 89.9989 43.901 90.0878C48.9183 90.253 55.9946 88.7702 55.9946 88.7702C55.9946 88.7702 57.9656 65.4087 58.3766 62.2817C58.7877 59.1546 59.3639 56.9377 58.7914 55.0438C58.2188 53.15 51.9536 49.6045 50.1442 48.8484C49.6048 48.6344 49.0274 48.5328 48.4474 48.5498C47.8674 48.5669 47.297 48.7022 46.7712 48.9475Z" fill="#565450" stroke="#42403D" stroke-width="0.5" stroke-miterlimit="10" stroke-linecap="round"/>
<path d="M59.7714 65.0675C59.7714 65.0675 58.2079 83.2502 58.2079 84.8871C58.2079 86.5241 61.5111 98.871 61.5111 98.871C61.5111 98.871 56.0057 100.68 55.7524 99.3628C55.4992 98.0451 53.7778 80.1157 53.3667 74.1111C52.9557 68.1065 52.7098 52.2289 52.7098 52.2289C52.7098 52.2289 52.2987 50.0267 52.7905 50.0891C53.2823 50.1515 58.2225 53.6272 59.5365 54.3686C60.308 54.7876 60.9167 55.4531 61.2652 56.2588" fill="#6FC54C"/>
<path d="M59.7714 65.0675C59.7714 65.0675 58.2079 83.2502 58.2079 84.8871C58.2079 86.5241 61.5111 98.871 61.5111 98.871C61.5111 98.871 56.0057 100.68 55.7524 99.3628C55.4992 98.0451 53.7778 80.1157 53.3667 74.1111C52.9557 68.1065 52.7098 52.2289 52.7098 52.2289C52.7098 52.2289 52.2987 50.0267 52.7905 50.0891C53.2823 50.1515 58.2225 53.6272 59.5365 54.3686C60.308 54.7876 60.9167 55.4531 61.2652 56.2588" stroke="#42403D" stroke-width="0.5" stroke-miterlimit="10" stroke-linecap="round"/>
<path d="M46.525 44.7488C46.525 44.7488 45.9487 49.6854 45.9487 50.9883C45.9487 52.2913 47.593 55.0256 49.8172 55.3486C52.0414 55.6716 53.928 52.6326 54.0124 52.1408C54.0968 51.649 47.1012 43.7505 47.1012 43.7505L46.525 44.7488Z" fill="#F7F0E6" stroke="#42403D" stroke-width="0.5" stroke-miterlimit="10" stroke-linecap="round"/>
<path d="M60.0687 39.9481C59.6519 42.8666 59.0674 45.7587 58.318 48.61C57.2169 52.5739 56.9343 53.1281 54.7247 53.5869C52.5152 54.0457 50.3901 52.6656 48.9183 50.8231C47.4465 48.9807 47.1676 45.8462 47.1676 45.8462L46.3381 44.4625L45.8757 43.5413C45.8757 43.5413 45.6921 38.1973 46.3381 35.5253C46.9841 32.8534 49.0101 31.0072 54.5375 31.5614C60.065 32.1156 61.5441 35.8006 61.4524 37.5514C61.4449 38.0356 61.3138 38.5099 61.0717 38.9293C60.8295 39.3487 60.4843 39.6994 60.0687 39.9481Z" fill="#F7F0E6" stroke="#42403D" stroke-width="0.5" stroke-miterlimit="10" stroke-linecap="round"/>
<path d="M47.718 43.8202C47.718 43.8202 47.3509 42.0658 46.1507 42.1612C44.9506 42.2567 45.1377 44.4625 45.9672 45.6627C46.7967 46.8629 47.5344 45.3837 47.5344 45.3837" fill="#F7F0E6"/>
<path d="M47.718 43.8202C47.718 43.8202 47.3509 42.0658 46.1507 42.1612C44.9506 42.2567 45.1377 44.4625 45.9672 45.6627C46.7967 46.8629 47.5344 45.3837 47.5344 45.3837" stroke="#42403D" stroke-width="0.5" stroke-miterlimit="10" stroke-linecap="round"/>
<path d="M61.4526 37.5514C61.5444 35.8006 60.0689 32.1157 54.5378 31.5615C49.0067 31.0072 46.9807 32.8497 46.3384 35.5254C45.8906 37.3605 45.8429 40.4913 45.8539 42.2457C46.4264 42.1172 47.1018 42.0805 47.3514 42.5283C47.7184 43.2183 47.4174 45.1232 47.3 46.7528C47.4908 47.8209 47.9423 49.6046 48.9186 50.8232C50.3867 52.6583 52.5118 54.0493 54.725 53.5869C56.773 53.1611 57.1621 52.651 58.087 49.4284C57.7874 49.0239 57.4081 48.6849 56.9726 48.4324C56.5371 48.1799 56.0544 48.0193 55.5545 47.9603C53.6166 47.7731 50.6693 49.2486 50.6693 49.2486C50.6693 49.2486 49.3774 48.3274 48.9186 47.2226C48.4598 46.1178 48.4561 43.5339 48.7314 42.7962C49.0067 42.0585 49.4655 42.1539 50.0233 41.0455C50.5812 39.9371 50.0233 39.1112 51.0363 38.1093C52.0493 37.1073 53.9726 37.0963 55.3673 38.1093C55.822 38.441 56.3149 38.7171 56.8354 38.9314C57.4949 39.1939 58.2042 39.308 58.9128 39.2654L59.8707 39.214L60.0543 39.9481C60.4726 39.7012 60.8207 39.3513 61.0655 38.9318C61.3103 38.5123 61.4436 38.037 61.4526 37.5514Z" fill="#42403D" stroke="#42403D" stroke-width="0.5" stroke-miterlimit="10" stroke-linecap="round"/>
<path d="M56.7506 44.0039C56.7506 44.0039 57.1176 46.8594 56.4753 47.7806C55.833 48.7019 55.0916 48.4266 54.9081 47.8724L54.7246 47.3219" stroke="#42403D" stroke-width="0.5" stroke-miterlimit="10" stroke-linecap="round"/>
<path d="M56.1963 49.4393C56.1963 49.4393 54.7282 50.0853 52.7866 48.797" stroke="#F7F0E6" stroke-width="0.5" stroke-miterlimit="10" stroke-linecap="round"/>
<path d="M54.1637 44.3597C54.0867 44.7047 53.8628 44.9543 53.6646 44.9102C53.4664 44.8662 53.3673 44.5432 53.4407 44.2019C53.5141 43.8605 53.7417 43.6073 53.9399 43.6477C54.138 43.688 54.2371 44.011 54.1637 44.3597Z" fill="#42403D"/>
<path d="M58.1343 45.0461C58.0719 45.4131 57.859 45.6517 57.6572 45.6149C57.4553 45.5782 57.3452 45.2663 57.4076 44.9176C57.47 44.5689 57.6828 44.312 57.8847 44.345C58.0866 44.3781 58.1967 44.6937 58.1343 45.0461Z" fill="#42403D"/>
<path d="M52.4526 42.789C52.8479 42.6102 53.2781 42.522 53.7119 42.5309C54.1456 42.5398 54.5718 42.6455 54.9594 42.8404" stroke="#42403D" stroke-width="0.5" stroke-miterlimit="10" stroke-linecap="round"/>
<path d="M56.9346 43.2586C56.9346 43.2586 58.4504 43.1008 59.023 43.8312" stroke="#42403D" stroke-width="0.5" stroke-miterlimit="10" stroke-linecap="round"/>
<path d="M53.7515 45.9196C54.6738 45.9196 55.4215 45.1719 55.4215 44.2496C55.4215 43.3273 54.6738 42.5796 53.7515 42.5796C52.8292 42.5796 52.0815 43.3273 52.0815 44.2496C52.0815 45.1719 52.8292 45.9196 53.7515 45.9196Z" stroke="#42403D" stroke-width="0.5" stroke-miterlimit="10" stroke-linecap="round"/>
<path d="M60.068 45.0351C60.068 45.3663 59.9698 45.69 59.7857 45.9653C59.6016 46.2406 59.34 46.4551 59.034 46.5817C58.728 46.7083 58.3913 46.7412 58.0665 46.6763C57.7417 46.6115 57.4435 46.4517 57.2096 46.2173C56.9757 45.9828 56.8166 45.6843 56.7524 45.3594C56.6883 45.0345 56.7219 44.6978 56.8492 44.3921C56.9764 44.0863 57.1915 43.8252 57.4672 43.6417C57.7429 43.4583 58.0669 43.3607 58.398 43.3615C58.6176 43.3615 58.8351 43.4048 59.038 43.4889C59.2408 43.5731 59.4251 43.6964 59.5802 43.8519C59.7353 44.0073 59.8582 44.1919 59.9419 44.3949C60.0257 44.5979 60.0685 44.8155 60.068 45.0351Z" stroke="#42403D" stroke-width="0.5" stroke-miterlimit="10" stroke-linecap="round"/>
<path d="M55.3154 43.989C55.3154 43.989 56.4606 43.8972 56.934 44.4074" stroke="#42403D" stroke-width="0.5" stroke-miterlimit="10" stroke-linecap="round"/>
<path d="M52.0789 43.7799L47.3516 42.5283" stroke="#42403D" stroke-width="0.5" stroke-miterlimit="10" stroke-linecap="round"/>
<path d="M32.7067 58.7364L34.2702 76.5043C34.2702 76.5043 34.1858 80.5416 34.0206 81.8519C33.8555 83.1622 31.5542 95.5861 31.5542 95.5861L36.8174 98.0562C36.8174 98.0562 41.9191 77.5723 42.3228 73.5423C42.7266 69.5124 44.1323 49.6854 44.1323 49.6854C44.1323 49.6854 32.6333 53.4695 32.2112 54.0457C31.7891 54.622 32.046 55.6093 32.046 55.6093" fill="#6FC54C"/>
<path d="M32.7067 58.7364L34.2702 76.5043C34.2702 76.5043 34.1858 80.5416 34.0206 81.8519C33.8555 83.1622 31.5542 95.5861 31.5542 95.5861L36.8174 98.0562C36.8174 98.0562 41.9191 77.5723 42.3228 73.5423C42.7266 69.5124 44.1323 49.6854 44.1323 49.6854C44.1323 49.6854 32.6333 53.4695 32.2112 54.0457C31.7891 54.622 32.046 55.6093 32.046 55.6093" stroke="#42403D" stroke-width="0.5" stroke-miterlimit="10" stroke-linecap="round"/>
<path d="M130.292 142.232C130.292 142.232 129.558 146.034 129.092 147.884C128.626 149.734 127.741 151.084 128.791 151.683C129.84 152.281 132.494 152.483 133.643 151.885C134.792 151.286 134.542 149.132 134.542 147.333C134.5 145.894 134.378 144.458 134.175 143.032L130.292 142.232Z" fill="#6FC54C" stroke="#42403D" stroke-width="0.5" stroke-miterlimit="10" stroke-linecap="round"/>
<path d="M134.524 150.068C133.79 150.85 132.626 151.709 131.041 151.433C129.342 151.14 128.714 150.376 128.472 149.881C128.226 150.71 128.163 151.349 128.784 151.683C129.833 152.285 132.487 152.483 133.636 151.885C134.216 151.584 134.44 150.901 134.524 150.068Z" fill="#F7F0E6" stroke="#42403D" stroke-width="0.5" stroke-miterlimit="10" stroke-linecap="round"/>
<path d="M121.34 140.033C121.34 140.033 120.393 143.432 119.843 144.584C119.292 145.737 118.242 146.882 118.441 147.521C118.639 148.159 120.342 148.871 122.192 148.424C124.041 147.976 124.842 145.623 124.941 144.823C125.04 144.023 125.491 143.322 125.99 142.122C126.49 140.922 125.693 139.773 125.091 138.921C124.489 138.07 121.34 140.033 121.34 140.033Z" fill="#6FC54C" stroke="#42403D" stroke-width="0.5" stroke-miterlimit="10" stroke-linecap="round"/>
<path d="M124.541 145.032C124.042 146.383 123.142 147.634 121.491 147.884C119.975 148.112 118.712 147.077 118.518 146.908C118.426 147.102 118.399 147.321 118.441 147.532C118.643 148.185 120.342 148.882 122.192 148.435C124.042 147.987 124.842 145.634 124.941 144.834C125.04 144.034 125.491 143.333 125.991 142.133C126.099 141.86 126.152 141.568 126.147 141.275C126.142 140.981 126.079 140.691 125.961 140.422C124.945 141.678 125.036 143.696 124.541 145.032Z" fill="#F7F0E6" stroke="#42403D" stroke-width="0.5" stroke-miterlimit="10" stroke-linecap="round"/>
<path d="M116.253 90.488C116.253 90.488 114.829 101.235 114.499 107.269C114.169 113.303 114.939 120.43 115.486 121.638C116.033 122.845 120.423 138.198 120.753 138.745C121.083 139.292 120.863 140.503 121.854 140.83C122.845 141.156 124.926 140.61 125.587 139.075L125.477 135.772L124.816 134.014C124.816 134.014 124.6 124.692 123.612 121.84C123.205 120.577 122.729 119.337 122.188 118.125L126.137 102.343C126.137 102.343 127.345 119.564 128.222 121.649C129.099 123.734 129.426 136.675 129.867 138.756C130.13 140.02 130.277 141.305 130.303 142.595C130.999 143.117 131.85 143.388 132.718 143.366H134.253C134.253 143.366 135.79 132.506 136.337 129.654C136.884 126.802 135.68 119.344 135.9 117.043C136.121 114.741 135.79 112.326 136.007 110.678C136.223 109.03 137.982 97.6268 138.092 95.542C138.145 94.0058 138.108 92.4677 137.982 90.9358L116.253 90.488Z" fill="#42403D" stroke="#42403D" stroke-width="0.5" stroke-miterlimit="10" stroke-linecap="round"/>
<path d="M133.438 57.6939C131.86 57.0349 130.164 56.7028 128.454 56.7176C125.518 56.7176 120.563 57.7013 119.866 58.0389C119.168 58.3766 117.417 92.6828 117.417 92.6828C117.417 92.6828 122.596 95.6191 125.922 95.1236C129.247 94.6281 133.629 92.9765 133.629 92.9765L133.435 58.5748L133.438 57.6939Z" fill="#42403D" stroke="#565450" stroke-width="0.5" stroke-miterlimit="10" stroke-linecap="round"/>
<path d="M120.408 36.6302C120.408 36.6302 116.224 38.9535 115.684 42.0512C115.145 45.1489 117.152 45.8133 117.123 46.929C117.094 48.0448 113.798 54.2696 114.378 56.1305C114.957 57.9913 122.03 60.9018 127.818 60.3219C133.606 59.742 137.981 57.7711 138.267 54.4018C138.554 51.0324 135.016 48.5293 134.891 47.4465C134.766 46.3638 137.431 43.0128 135.548 40.106C133.665 37.1991 126.244 34.4831 124.342 34.6959C122.441 34.9088 120.408 36.6302 120.408 36.6302Z" fill="#42403D" stroke="#42403D" stroke-width="0.5" stroke-miterlimit="10" stroke-linecap="round"/>
<path d="M131.973 55.6423L139.203 58.964L137.236 75.1903L140.561 97.469C140.561 97.469 136.359 99.2308 132.744 99.6198C132.744 99.6198 131.081 87.1114 131.081 83.4962C131.081 79.881 131.474 57.5986 131.474 57.5986V55.7414L131.973 55.6423Z" fill="#F7F0E6" stroke="#42403D" stroke-width="0.5" stroke-miterlimit="10" stroke-linecap="round"/>
<path d="M120.969 56.1011C120.969 56.1011 111.922 57.5692 111.592 58.8978C111.261 60.2265 110.124 77.1612 110.124 77.1612C109.024 80.9206 108.711 84.8661 109.202 88.752C109.202 88.752 111.845 87.372 113.339 89.3246C113.339 89.3246 112.652 97.0322 112.997 97.491C113.342 97.9498 118.745 100.02 118.745 100.02C118.745 100.02 120.47 73.2267 120.47 68.8627C120.47 64.4987 120.969 56.1011 120.969 56.1011Z" fill="#F7F0E6" stroke="#42403D" stroke-width="0.5" stroke-miterlimit="10" stroke-linecap="round"/>
<path d="M113.505 67.3688L115.164 76.4601L113.332 89.3245" fill="#F7F0E6"/>
<path d="M113.505 67.3688L115.164 76.4601L113.332 89.3245" stroke="#42403D" stroke-width="0.5" stroke-miterlimit="10" stroke-linecap="round"/>
<path d="M138.121 58.5712C138.121 58.5712 140.117 59.2245 140.962 60.8211C141.329 61.5184 143.7 75.972 143.898 77.631C144.096 79.29 140.477 91.3139 140.477 91.3139C140.477 91.3139 138.913 90.1394 138.231 90.0439C137.779 89.9863 137.324 89.9568 136.869 89.9559C136.869 89.9559 137.552 78.4238 137.651 78.1302C137.75 77.8365 137.728 67.3762 137.728 67.3762" fill="#F7F0E6"/>
<path d="M138.121 58.5712C138.121 58.5712 140.117 59.2245 140.962 60.8211C141.329 61.5184 143.7 75.972 143.898 77.631C144.096 79.29 140.477 91.3139 140.477 91.3139C140.477 91.3139 138.913 90.1394 138.231 90.0439C137.779 89.9863 137.324 89.9568 136.869 89.9559C136.869 89.9559 137.552 78.4238 137.651 78.1302C137.75 77.8365 137.728 67.3762 137.728 67.3762" stroke="#42403D" stroke-width="0.5" stroke-miterlimit="10" stroke-linecap="round"/>
<path d="M138.227 77.9246C138.227 77.9246 140.572 76.7537 141.842 77.6309L138.227 77.9246Z" fill="#F7F0E6"/>
<path d="M138.227 77.9246C138.227 77.9246 140.572 76.7537 141.842 77.6309" stroke="#42403D" stroke-width="0.5" stroke-miterlimit="10" stroke-linecap="round"/>
<path d="M136.87 89.9558C136.87 89.9558 135.306 93.2811 135.306 94.1583C135.306 95.0355 135.501 96.6027 135.501 97.2854C135.501 97.9681 136.477 97.7735 136.477 97.7735C136.477 97.7735 136.477 99.5353 137.259 99.4362C138.041 99.3371 138.433 98.1663 139.116 97.579C139.799 96.9918 140.878 95.3328 140.878 94.3528C140.813 93.336 140.682 92.3245 140.485 91.3248C140.485 91.3248 139.204 89.2621 136.87 89.9558Z" fill="#F7F0E6" stroke="#42403D" stroke-width="0.5" stroke-miterlimit="10" stroke-linecap="round"/>
<path d="M136.47 97.7625V94.83" stroke="#42403D" stroke-width="0.5" stroke-miterlimit="10" stroke-linecap="round"/>
<path d="M137.472 99.3591L137.908 98.8122L138.4 95.6998" stroke="#42403D" stroke-width="0.5" stroke-miterlimit="10" stroke-linecap="round"/>
<path d="M138.943 97.7736L139.545 95.6998" stroke="#42403D" stroke-width="0.5" stroke-miterlimit="10" stroke-linecap="round"/>
<path d="M123.623 58.406L122.889 76.0821L127.158 77.1832L126.937 58.7767L123.623 58.406Z" fill="#6FC54C" stroke="#42403D" stroke-width="0.5" stroke-miterlimit="10" stroke-linecap="round"/>
<path d="M125.907 60.0283V79.9103L131.06 79.3194L129.515 59.1438L125.907 60.0283Z" fill="#6FC54C" stroke="#42403D" stroke-width="0.5" stroke-miterlimit="10" stroke-linecap="round"/>
<path d="M122.445 52.5188C122.445 52.5188 120.089 52.6693 120.089 53.3299C120.089 53.9906 119.424 56.9378 119.865 58.0426C120.305 59.1473 122.885 60.2448 125.979 60.2448C129.073 60.2448 132.09 57.8884 132.384 57.6756C132.678 57.4627 132.751 56.2074 132.604 55.9065C132.457 55.6055 131.944 52.8895 131.206 52.5188C130.468 52.1481 125.906 52.6693 124.875 52.7427C124.059 52.7609 123.244 52.6858 122.445 52.5188Z" fill="#6FC54C" stroke="#42403D" stroke-width="0.5" stroke-miterlimit="10" stroke-linecap="round"/>
<path d="M122.372 52.2215C122.372 52.2215 122.222 53.7704 122.959 54.5044C123.697 55.2385 127.672 54.7246 128.777 53.697C129.881 52.6693 129.588 51.0433 129.588 51.0433C129.588 51.0433 124.655 52.8858 122.372 52.2215Z" fill="#F7F0E6" stroke="#42403D" stroke-width="0.5" stroke-miterlimit="10" stroke-linecap="round"/>
<path d="M122.691 39.4819C122.691 39.4819 121.19 41.9998 120.284 42.9467C119.838 43.3884 119.434 43.87 119.076 44.3854C119.076 44.3854 119.41 49.322 120.317 50.992C121.223 52.662 122.919 54.1154 125.242 53.7117C127.566 53.3079 129.437 50.8048 129.5 49.6743C129.562 48.5439 129.114 44.903 129.114 44.903C129.114 44.903 123.679 43.8019 122.691 39.4819Z" fill="#F7F0E6" stroke="#42403D" stroke-width="0.5" stroke-miterlimit="10" stroke-linecap="round"/>
<path d="M122.243 44.6753C122.254 45.2415 122.31 45.8059 122.408 46.3636C122.522 46.6462 121.535 48.052 122.408 48.4484C122.938 48.6898 123.514 48.8149 124.096 48.8154" stroke="#42403D" stroke-width="0.5" stroke-miterlimit="10" stroke-linecap="round"/>
<path d="M121.971 50.0708C121.971 50.0708 122.47 50.4378 123.938 50.3093C125.407 50.1809 125.972 49.4248 125.972 49.4248" stroke="#42403D" stroke-width="0.5" stroke-miterlimit="10" stroke-linecap="round"/>
<path d="M121.212 45.7912C121.253 46.0738 121.139 46.3234 120.955 46.349C120.772 46.3747 120.588 46.1655 120.555 45.8866C120.522 45.6076 120.629 45.3544 120.812 45.3287C120.996 45.303 121.172 45.5085 121.212 45.7912Z" fill="#42403D"/>
<path d="M125.125 45.2333C125.165 45.5159 125.051 45.7655 124.871 45.7912C124.692 45.8169 124.504 45.6077 124.471 45.3287C124.438 45.0498 124.545 44.7965 124.725 44.7708C124.904 44.7452 125.07 44.9507 125.125 45.2333Z" fill="#42403D"/>
<path d="M119.649 44.7488C119.853 44.4745 120.154 44.2876 120.49 44.2257C120.826 44.1637 121.173 44.2313 121.462 44.4148" stroke="#42403D" stroke-width="0.5" stroke-miterlimit="10" stroke-linecap="round"/>
<path d="M123.095 44.4075C123.095 44.4075 124.196 42.833 125.951 44.0735" stroke="#42403D" stroke-width="0.5" stroke-miterlimit="10" stroke-linecap="round"/>
<path d="M109.192 88.752L108.458 91.101C108.458 91.101 107.911 92.7783 107.959 93.2701C108.006 93.7619 109.427 95.7659 110.575 96.4559C111.724 97.1459 113.449 96.4559 113.794 95.8797C114.139 95.3035 113.563 93.8096 113.563 93.8096C113.563 93.8096 114.367 92.6608 114.484 92.0846C114.602 91.5084 113.332 89.3245 113.332 89.3245C113.332 89.3245 111.952 87.0196 109.192 88.752Z" fill="#F7F0E6" stroke="#42403D" stroke-width="0.5" stroke-miterlimit="10" stroke-linecap="round"/>
<path d="M113.621 96.1366L112.366 95.5383L111.166 92.5911" stroke="#42403D" stroke-width="0.5" stroke-miterlimit="10" stroke-linecap="round"/>
<path d="M109.64 92.9177C109.64 92.9177 110.403 95.3732 110.946 95.854C111.403 96.2031 111.923 96.4622 112.477 96.6174" stroke="#42403D" stroke-width="0.5" stroke-miterlimit="10" stroke-linecap="round"/>
<path d="M108.656 93.193C108.864 93.9983 109.181 94.7713 109.599 95.4906" stroke="#42403D" stroke-width="0.5" stroke-miterlimit="10" stroke-linecap="round"/>
<path d="M113.379 93.4611L112.792 91.6259C112.792 91.6259 113.677 91.4791 114.337 92.661C114.529 93.0085 114.636 93.3967 114.649 93.7936C114.662 94.1905 114.58 94.5847 114.411 94.9439L113.97 95.1678L113.379 93.4611Z" fill="#F7F0E6" stroke="#42403D" stroke-width="0.5" stroke-miterlimit="10" stroke-linecap="round"/>
</svg>
