<svg width="174" height="168" viewBox="0 0 174 168" fill="none" xmlns="http://www.w3.org/2000/svg">
<path d="M161.361 29.4945C160.755 28.5562 160.122 27.6297 159.461 26.7267C150.657 14.7094 136.005 6.4803 121.767 2.75472C115.542 1.14647 109.156 0.237792 102.729 0.0455656C60.7899 -1.37352 45.3833 30.765 31.8688 39.0527C18.3543 47.3405 -2.37684 61.4922 0.222853 91.2226C2.19706 113.842 16.036 135.445 41.3059 145.281C44.1699 146.396 47.0996 147.335 50.0784 148.091C56.1429 149.619 62.351 150.506 68.6008 150.738C87.7056 151.52 103.222 147.247 118.394 136.469C121.912 133.963 125.431 131.137 130.008 130.828C133.335 130.605 136.49 131.715 133.011 134.702C128.925 138.22 133.64 145.124 144.019 140.324C161.349 132.31 168.476 115.015 171.838 97.4228C175.958 75.8355 173.961 48.9902 161.361 29.4945Z" fill="#6FC54C"/>
<path opacity="0.8" d="M161.361 29.4945C160.755 28.5562 160.122 27.6297 159.461 26.7267C150.657 14.7094 136.005 6.4803 121.767 2.75472C115.542 1.14647 109.156 0.237792 102.729 0.0455656C60.7899 -1.37352 45.3833 30.765 31.8688 39.0527C18.3543 47.3405 -2.37684 61.4922 0.222853 91.2226C2.19706 113.842 16.036 135.445 41.3059 145.281C44.1699 146.396 47.0996 147.335 50.0784 148.091C56.1429 149.619 62.351 150.506 68.6008 150.738C87.7056 151.52 103.222 147.247 118.394 136.469C121.912 133.963 125.431 131.137 130.008 130.828C133.335 130.605 136.49 131.715 133.011 134.702C128.925 138.22 133.64 145.124 144.019 140.324C161.349 132.31 168.476 115.015 171.838 97.4228C175.958 75.8355 173.961 48.9902 161.361 29.4945Z" fill="#F7F0E6"/>
<path d="M87.9595 167.103C131.624 167.103 167.022 163.147 167.022 158.268C167.022 153.388 131.624 149.432 87.9595 149.432C44.2948 149.432 8.89746 153.388 8.89746 158.268C8.89746 163.147 44.2948 167.103 87.9595 167.103Z" fill="#42403D" stroke="#42403D" stroke-width="0.5" stroke-linecap="round" stroke-linejoin="round"/>
<path d="M159.406 134.655C158.686 134.878 157.005 134.655 157.005 134.655C157.005 134.655 157.49 133.592 157.529 133.529C157.983 132.798 159.292 131.649 160.227 131.883C160.381 131.926 160.525 132.001 160.649 132.104C160.773 132.206 160.873 132.333 160.945 132.477C161.016 132.621 161.056 132.778 161.062 132.939C161.068 133.099 161.041 133.259 160.981 133.408C160.766 134.045 160.023 134.464 159.406 134.655Z" fill="#42403D"/>
<path d="M143.757 134.17C143.738 134.17 143.574 133.017 143.57 132.943C143.546 132.083 144.004 130.406 144.915 130.081C145.067 130.032 145.229 130.016 145.388 130.034C145.547 130.051 145.701 130.102 145.84 130.183C145.978 130.263 146.098 130.372 146.192 130.502C146.286 130.632 146.352 130.78 146.384 130.937C146.545 131.598 146.165 132.345 145.759 132.845C145.282 133.443 143.757 134.17 143.757 134.17Z" fill="#42403D"/>
<path d="M144.046 146.586C144.723 146.576 145.394 146.461 146.036 146.246C146.09 146.727 146.149 147.2 146.231 147.665C146.274 147.865 146.302 148.056 146.348 148.26C146.395 148.463 146.442 148.65 146.485 148.83C146.591 149.221 146.689 149.577 146.798 149.933C146.849 150.113 146.904 150.281 146.958 150.457C146.825 150.179 146.606 149.745 146.567 149.706C146.153 149.073 145.004 148.091 144.163 148.314C144.029 148.356 143.905 148.425 143.799 148.517C143.693 148.61 143.607 148.723 143.548 148.851C143.488 148.978 143.457 149.117 143.454 149.257C143.452 149.398 143.479 149.537 143.534 149.667C143.749 150.226 144.398 150.574 144.941 150.73C145.484 150.887 146.857 150.73 147.017 150.691C147.154 151.117 147.287 151.532 147.408 151.919C147.498 152.169 147.58 152.407 147.666 152.642H148.256C148.147 152.357 148.033 152.063 147.916 151.747C147.799 151.43 147.658 151.035 147.525 150.652C148.152 150.405 148.741 150.072 149.277 149.663C149.639 149.889 150.015 150.092 150.402 150.273C150.277 150.703 150.164 151.125 150.062 151.52C149.961 151.915 149.867 152.302 149.785 152.642H150.324C150.395 152.321 150.465 151.993 150.551 151.641C150.637 151.289 150.727 150.902 150.829 150.511C150.993 150.543 152.298 150.785 152.904 150.636C153.452 150.504 154.116 150.179 154.355 149.632C154.416 149.503 154.449 149.363 154.452 149.221C154.455 149.079 154.428 148.937 154.373 148.806C154.317 148.675 154.235 148.557 154.131 148.46C154.027 148.363 153.903 148.29 153.768 148.244C152.959 147.99 151.747 148.924 151.309 149.542C151.282 149.581 151.001 150.085 150.864 150.343L151.055 149.632C151.153 149.284 151.266 148.916 151.372 148.557L151.563 148.005C151.622 147.814 151.704 147.642 151.775 147.454C151.884 147.188 152.009 146.915 152.134 146.645C152.755 146.875 153.408 147.007 154.069 147.036C154.632 146.985 155.336 146.766 155.653 146.254C155.732 146.137 155.785 146.005 155.81 145.867C155.835 145.728 155.83 145.586 155.796 145.449C155.762 145.312 155.7 145.184 155.613 145.073C155.526 144.962 155.417 144.87 155.293 144.804C154.531 144.413 153.194 145.171 152.666 145.715C152.666 145.715 152.549 145.855 152.431 146.008C152.564 145.746 152.693 145.484 152.822 145.226C153.213 144.487 153.651 143.748 154.081 143.005L154.343 142.54C154.64 142.642 155.758 143.013 156.329 142.962C156.9 142.912 157.599 142.693 157.916 142.181C157.995 142.064 158.048 141.931 158.073 141.793C158.097 141.654 158.092 141.511 158.058 141.374C158.024 141.237 157.961 141.109 157.874 140.998C157.787 140.887 157.677 140.796 157.553 140.73C156.794 140.339 155.453 141.094 154.926 141.637L154.66 141.977C154.886 141.586 155.105 141.164 155.313 140.75C155.672 140.045 155.984 139.318 156.247 138.572C156.348 138.607 157.654 139.069 158.288 139.014C158.85 138.963 159.554 138.744 159.875 138.232C159.953 138.115 160.006 137.983 160.03 137.844C160.054 137.705 160.049 137.563 160.015 137.426C159.98 137.29 159.918 137.162 159.831 137.051C159.744 136.94 159.635 136.848 159.511 136.782C158.753 136.391 157.412 137.145 156.884 137.689C156.849 137.728 156.423 138.279 156.278 138.471V138.447C156.515 137.706 156.687 136.946 156.794 136.176C156.888 135.489 156.944 134.797 156.962 134.104C156.982 133.459 156.962 132.869 156.943 132.349C156.943 132.067 156.908 131.809 156.892 131.567C156.892 131.567 157.248 130.605 157.259 130.539C157.427 129.8 157.318 128.275 156.587 127.845C156.464 127.776 156.328 127.734 156.188 127.722C156.047 127.709 155.906 127.726 155.773 127.772C155.64 127.818 155.518 127.891 155.415 127.987C155.312 128.083 155.23 128.2 155.176 128.33C154.926 128.873 155.125 129.585 155.391 130.085C155.798 130.634 156.286 131.119 156.837 131.524C156.837 131.774 156.868 132.044 156.876 132.341C156.876 132.861 156.876 133.447 156.857 134.088C156.857 134.26 156.829 134.444 156.818 134.62C156.779 134.315 156.716 133.901 156.704 133.862C156.513 133.127 155.711 131.825 154.867 131.778C154.726 131.774 154.586 131.799 154.455 131.853C154.325 131.906 154.207 131.987 154.11 132.089C154.013 132.191 153.939 132.313 153.892 132.446C153.845 132.579 153.827 132.72 153.839 132.861C153.866 133.459 154.37 133.994 154.836 134.315C155.301 134.636 156.528 134.882 156.79 134.929C156.755 135.32 156.712 135.711 156.642 136.145C156.521 136.905 156.332 137.653 156.079 138.381H156.032C156.032 138.095 156.008 137.497 156.001 137.446C155.891 136.696 155.219 135.316 154.402 135.175C154.262 135.156 154.12 135.166 153.984 135.205C153.849 135.245 153.723 135.312 153.616 135.403C153.508 135.494 153.421 135.607 153.359 135.734C153.298 135.861 153.264 136 153.26 136.141C153.221 136.735 153.651 137.313 154.093 137.704C154.585 138.131 155.969 138.525 156.02 138.541C155.749 139.257 155.432 139.954 155.07 140.629C154.804 141.129 154.515 141.625 154.222 142.122C154.222 141.919 154.198 141.133 154.191 141.078C154.081 140.328 153.428 138.944 152.592 138.807C152.452 138.788 152.31 138.798 152.175 138.837C152.04 138.876 151.915 138.943 151.807 139.034C151.699 139.124 151.612 139.237 151.55 139.363C151.489 139.49 151.455 139.628 151.45 139.769C151.411 140.367 151.841 140.941 152.283 141.332C152.725 141.723 154.085 142.138 154.198 142.169C154.065 142.396 153.933 142.618 153.807 142.841C153.366 143.576 152.916 144.307 152.498 145.042C152.353 145.296 152.216 145.554 152.083 145.824C152.083 145.523 152.06 144.976 152.052 144.929C151.943 144.178 151.29 142.798 150.453 142.658C150.314 142.638 150.172 142.649 150.037 142.688C149.902 142.727 149.776 142.794 149.669 142.884C149.561 142.975 149.474 143.087 149.412 143.214C149.351 143.34 149.316 143.479 149.312 143.619C149.273 144.217 149.703 144.792 150.144 145.183C150.714 145.548 151.336 145.822 151.99 145.996C151.767 146.426 151.556 146.856 151.372 147.286C151.294 147.478 151.204 147.677 151.141 147.849C151.079 148.021 151.004 148.217 150.938 148.4C150.813 148.791 150.696 149.131 150.59 149.487C150.535 149.671 150.488 149.839 150.438 150.015C150.477 149.71 150.535 149.233 150.535 149.182C150.535 148.424 150.101 146.958 149.296 146.696C149.161 146.656 149.019 146.644 148.879 146.663C148.739 146.681 148.605 146.729 148.484 146.803C148.364 146.876 148.261 146.975 148.181 147.091C148.101 147.207 148.047 147.339 148.022 147.478C148.006 147.55 147.998 147.623 147.998 147.697C147.631 148.254 147.413 148.896 147.365 149.561C147.365 149.608 147.408 150.183 147.439 150.476C147.361 150.245 147.283 150.019 147.205 149.776C147.091 149.432 146.986 149.065 146.876 148.705C146.829 148.518 146.778 148.314 146.732 148.138C146.685 147.962 146.649 147.747 146.603 147.568C146.548 147.282 146.505 146.985 146.458 146.692C147.104 146.544 147.724 146.298 148.295 145.961C148.737 145.609 149.202 145.038 149.187 144.44C149.189 144.299 149.162 144.159 149.106 144.03C149.05 143.9 148.968 143.784 148.864 143.689C148.76 143.594 148.637 143.521 148.504 143.477C148.37 143.433 148.228 143.417 148.088 143.432C147.244 143.537 146.524 144.894 146.395 145.636C146.395 145.66 146.395 145.82 146.364 146.027C146.329 145.738 146.294 145.449 146.266 145.152C146.192 144.319 146.145 143.463 146.09 142.607C146.09 142.431 146.067 142.251 146.055 142.075C146.72 141.925 147.358 141.674 147.947 141.332C148.389 140.977 148.854 140.406 148.839 139.808C148.84 139.667 148.813 139.527 148.757 139.398C148.701 139.269 148.619 139.153 148.515 139.058C148.411 138.963 148.289 138.89 148.155 138.846C148.022 138.801 147.88 138.785 147.74 138.799C146.896 138.905 146.176 140.261 146.047 141.004C146.047 141.031 146.028 141.223 146.012 141.438C145.977 140.973 145.938 140.511 145.883 140.054C145.792 139.264 145.649 138.48 145.457 137.708C145.563 137.685 146.907 137.349 147.412 136.95C147.916 136.551 148.323 136.027 148.307 135.429C148.308 135.288 148.28 135.149 148.224 135.019C148.167 134.89 148.085 134.774 147.981 134.679C147.877 134.584 147.754 134.512 147.62 134.467C147.486 134.423 147.345 134.407 147.205 134.421C146.364 134.526 145.641 135.883 145.516 136.625C145.516 136.68 145.453 137.372 145.445 137.622C145.446 137.613 145.446 137.604 145.445 137.595C145.239 136.846 144.964 136.117 144.624 135.417C144.327 134.791 143.992 134.183 143.624 133.596C143.287 133.044 142.943 132.564 142.639 132.141C142.47 131.915 142.314 131.708 142.165 131.52C142.165 131.52 141.931 130.523 141.907 130.46C141.638 129.753 140.703 128.541 139.859 128.584C139.72 128.596 139.585 128.636 139.462 128.702C139.339 128.769 139.232 128.86 139.146 128.97C139.06 129.081 138.999 129.207 138.965 129.343C138.931 129.478 138.925 129.619 138.948 129.757C139.038 130.347 139.597 130.832 140.097 131.098C140.598 131.363 141.802 131.489 142.099 131.489C142.248 131.688 142.408 131.903 142.58 132.145C142.873 132.575 143.205 133.064 143.526 133.615C143.616 133.764 143.702 133.924 143.788 134.08C143.588 133.85 143.307 133.537 143.276 133.51C142.713 133.001 141.321 132.36 140.594 132.786C140.474 132.861 140.372 132.96 140.293 133.076C140.214 133.193 140.161 133.325 140.136 133.463C140.111 133.602 140.116 133.744 140.15 133.881C140.183 134.017 140.246 134.145 140.332 134.256C140.684 134.741 141.403 134.909 141.97 134.921C142.537 134.933 143.694 134.456 143.925 134.35C144.112 134.698 144.316 135.058 144.468 135.449C144.794 136.148 145.056 136.876 145.25 137.622L145.207 137.642C145.047 137.403 144.699 136.915 144.667 136.88C144.159 136.317 142.854 135.523 142.079 135.867C141.953 135.928 141.84 136.015 141.749 136.123C141.658 136.23 141.59 136.356 141.55 136.491C141.51 136.626 141.499 136.768 141.518 136.908C141.536 137.047 141.584 137.182 141.657 137.302C141.954 137.822 142.65 138.084 143.221 138.138C143.866 138.224 145.238 137.794 145.289 137.775C145.458 138.522 145.579 139.279 145.649 140.042C145.703 140.605 145.739 141.176 145.766 141.751C145.657 141.582 145.203 140.941 145.164 140.898C144.66 140.335 143.35 139.542 142.576 139.886C142.449 139.947 142.336 140.034 142.245 140.142C142.154 140.249 142.086 140.374 142.047 140.51C142.007 140.645 141.996 140.787 142.014 140.926C142.033 141.066 142.08 141.2 142.154 141.321C142.455 141.84 143.147 142.102 143.717 142.161C144.347 142.239 145.672 141.837 145.774 141.801C145.774 142.059 145.801 142.321 145.809 142.583C145.844 143.439 145.875 144.296 145.93 145.144C145.95 145.433 145.981 145.722 146.008 146.012C145.84 145.762 145.524 145.32 145.492 145.285C144.984 144.718 143.678 143.924 142.904 144.272C142.777 144.332 142.664 144.419 142.573 144.526C142.481 144.633 142.413 144.758 142.373 144.893C142.333 145.028 142.323 145.17 142.341 145.31C142.36 145.449 142.408 145.583 142.482 145.703C142.783 146.266 143.487 146.512 144.046 146.586Z" fill="#42403D"/>
<path d="M29.8043 142.771C29.3326 142.841 28.8531 142.841 28.3813 142.771C28.3813 142.771 28.6667 142.141 28.6902 142.102C28.9599 141.668 29.7379 140.988 30.293 141.125C30.3846 141.151 30.4698 141.196 30.5429 141.257C30.6161 141.318 30.6756 141.394 30.7176 141.479C30.7596 141.565 30.7832 141.658 30.7868 141.753C30.7905 141.849 30.774 141.943 30.7387 142.032C30.6462 142.216 30.5147 142.377 30.3533 142.505C30.1919 142.632 30.0045 142.723 29.8043 142.771Z" fill="#42403D"/>
<path d="M20.5045 142.509C20.5045 142.509 20.3989 141.825 20.395 141.778C20.395 141.27 20.653 140.273 21.1769 140.081C21.2675 140.052 21.3633 140.042 21.458 140.052C21.5527 140.062 21.6443 140.092 21.7266 140.14C21.8089 140.188 21.8801 140.253 21.9356 140.33C21.9911 140.408 22.0296 140.496 22.0487 140.589C22.071 140.795 22.0475 141.003 21.9799 141.198C21.9123 141.394 21.8023 141.571 21.6577 141.719C21.3125 142.036 20.9243 142.301 20.5045 142.509Z" fill="#42403D"/>
<path d="M20.6801 149.866C21.0788 149.859 21.4742 149.792 21.8529 149.667C21.8842 149.952 21.9193 150.234 21.9663 150.507C21.9897 150.625 22.0093 150.75 22.0366 150.859C22.064 150.969 22.0914 151.086 22.1187 151.199C22.1813 151.43 22.2399 151.641 22.3025 151.852C22.3337 151.962 22.365 152.059 22.4002 152.165C22.3181 152.001 22.1891 151.743 22.1735 151.719C21.9272 151.328 21.2313 150.761 20.7466 150.894C20.6652 150.917 20.5896 150.956 20.5247 151.01C20.4598 151.064 20.4071 151.131 20.3701 151.207C20.3331 151.283 20.3127 151.365 20.3102 151.45C20.3077 151.534 20.3232 151.618 20.3556 151.696C20.4419 151.857 20.5626 151.998 20.7092 152.107C20.8559 152.216 21.0247 152.292 21.2039 152.329C21.6134 152.383 22.0287 152.374 22.4354 152.302C22.5175 152.556 22.5957 152.802 22.6778 153.029C22.7286 153.181 22.7794 153.322 22.8263 153.459H23.1586C23.0921 153.291 23.0257 153.119 22.9553 152.931C22.885 152.744 22.8029 152.505 22.7286 152.282C23.0989 152.133 23.4474 151.934 23.7645 151.692C23.9802 151.826 24.2034 151.947 24.433 152.055C24.3588 152.31 24.2923 152.56 24.2298 152.794L24.0656 153.459H24.3861C24.4291 153.271 24.4721 153.068 24.519 152.865C24.566 152.661 24.6285 152.427 24.6871 152.196C25.0913 152.285 25.5067 152.31 25.9186 152.27C26.097 152.24 26.2665 152.17 26.4151 152.067C26.5638 151.964 26.6879 151.829 26.7786 151.672C26.8145 151.597 26.8341 151.514 26.836 151.431C26.8378 151.347 26.822 151.264 26.7895 151.187C26.7571 151.11 26.7087 151.04 26.6475 150.983C26.5863 150.926 26.5138 150.882 26.4346 150.855C25.9577 150.703 25.2384 151.246 24.9764 151.637C24.9764 151.661 24.7927 151.958 24.7145 152.114C24.7497 151.973 24.7849 151.837 24.8279 151.692C24.8826 151.485 24.9491 151.266 25.0155 151.055C25.0507 150.945 25.0898 150.836 25.1289 150.726C25.168 150.617 25.211 150.511 25.254 150.402C25.297 150.292 25.3908 150.081 25.4651 149.917C25.8331 150.058 26.221 150.139 26.6144 150.159C26.7954 150.155 26.9731 150.111 27.1357 150.031C27.2982 149.952 27.4418 149.838 27.5566 149.698C27.603 149.629 27.6344 149.55 27.6487 149.468C27.6631 149.386 27.66 149.301 27.6397 149.22C27.6195 149.139 27.5825 149.064 27.5311 148.998C27.4798 148.932 27.4152 148.877 27.3416 148.838C26.8881 148.615 26.0945 149.053 25.7778 149.378L25.6371 149.554C25.7153 149.397 25.7935 149.241 25.8756 149.088C26.114 148.65 26.3682 148.213 26.6223 147.771L26.7786 147.493C27.1541 147.637 27.5498 147.722 27.9514 147.744C28.1322 147.74 28.3102 147.697 28.4728 147.618C28.6355 147.54 28.7791 147.426 28.8936 147.286C28.94 147.217 28.9714 147.138 28.9857 147.056C29.0001 146.974 28.997 146.889 28.9767 146.808C28.9565 146.727 28.9195 146.652 28.8681 146.586C28.8168 146.52 28.7522 146.465 28.6786 146.426C28.2251 146.203 27.4315 146.641 27.1148 146.962L26.9546 147.165C27.0914 146.923 27.2204 146.68 27.3455 146.438C27.5585 146.02 27.7427 145.587 27.8967 145.144C28.2848 145.293 28.6936 145.381 29.1086 145.406C29.2898 145.402 29.4681 145.359 29.6309 145.28C29.7937 145.2 29.937 145.086 30.0507 144.944C30.0971 144.875 30.1285 144.797 30.1427 144.715C30.157 144.633 30.1539 144.549 30.1337 144.469C30.1134 144.388 30.0764 144.312 30.0251 144.247C29.9738 144.181 29.9092 144.127 29.8357 144.088C29.3822 143.865 28.5886 144.303 28.272 144.624C28.272 144.647 27.9983 144.976 27.9123 145.093C28.0526 144.654 28.1546 144.204 28.2173 143.748C28.2731 143.34 28.3057 142.929 28.315 142.517C28.315 142.126 28.315 141.786 28.315 141.477C28.315 141.309 28.315 141.156 28.2876 141.012C28.2876 141.012 28.4948 140.441 28.5066 140.402C28.6043 139.964 28.5378 139.057 28.1156 138.803C28.0426 138.762 27.9619 138.738 27.8787 138.73C27.7955 138.723 27.7116 138.733 27.6327 138.761C27.5538 138.788 27.4815 138.832 27.4205 138.889C27.3596 138.946 27.3114 139.015 27.279 139.092C27.2233 139.264 27.2059 139.447 27.2282 139.626C27.2505 139.806 27.3119 139.979 27.408 140.132C27.6487 140.459 27.9389 140.747 28.2681 140.984C28.2681 141.133 28.2681 141.293 28.2876 141.469C28.2876 141.778 28.2876 142.13 28.2876 142.509C28.2876 142.611 28.2876 142.716 28.2642 142.822C28.2407 142.642 28.2055 142.396 28.1977 142.372C28.0843 141.938 27.6113 141.164 27.107 141.137C27.0236 141.134 26.9405 141.149 26.8633 141.181C26.7861 141.213 26.7165 141.261 26.659 141.321C26.6014 141.382 26.5573 141.454 26.5294 141.532C26.5015 141.611 26.4905 141.695 26.4972 141.778C26.5268 141.957 26.5954 142.127 26.6981 142.276C26.8007 142.425 26.935 142.55 27.0914 142.642C27.4607 142.824 27.8565 142.947 28.2642 143.005C28.2642 143.24 28.2173 143.478 28.1743 143.729C28.1037 144.18 27.9925 144.623 27.842 145.054H27.8146C27.8146 144.886 27.8146 144.53 27.8146 144.499C27.7481 144.057 27.3611 143.236 26.8646 143.15C26.7817 143.139 26.6974 143.146 26.6172 143.169C26.537 143.193 26.4626 143.233 26.3989 143.287C26.3351 143.341 26.2835 143.408 26.2472 143.484C26.2109 143.559 26.1909 143.641 26.1883 143.725C26.2013 143.901 26.2516 144.072 26.3358 144.227C26.4201 144.382 26.5364 144.517 26.677 144.624C27.0313 144.847 27.4176 145.014 27.8224 145.12C27.66 145.544 27.472 145.958 27.2595 146.36C27.1031 146.657 26.9311 146.95 26.7552 147.243C26.7552 147.126 26.7552 146.661 26.7552 146.625C26.6887 146.18 26.3017 145.363 25.8052 145.277C25.7211 145.263 25.6351 145.268 25.553 145.291C25.4709 145.313 25.3945 145.353 25.329 145.407C25.2635 145.462 25.2104 145.529 25.1732 145.606C25.136 145.683 25.1155 145.766 25.1133 145.851C25.1249 146.032 25.1753 146.208 25.261 146.367C25.3466 146.526 25.4656 146.665 25.6097 146.774C25.9611 146.995 26.3431 147.162 26.7434 147.27C26.6653 147.403 26.5871 147.536 26.505 147.661C26.2431 148.095 25.9772 148.529 25.7231 148.967C25.6371 149.12 25.5589 149.272 25.4768 149.421C25.4768 149.245 25.4768 148.92 25.4768 148.893C25.4104 148.447 25.0233 147.626 24.5269 147.544C24.4443 147.533 24.3603 147.54 24.2803 147.563C24.2004 147.586 24.1262 147.626 24.0625 147.68C23.9988 147.734 23.9471 147.8 23.9106 147.875C23.8741 147.95 23.8536 148.032 23.8506 148.115C23.8576 148.296 23.9043 148.474 23.9874 148.635C24.0705 148.797 24.1879 148.938 24.3314 149.049C24.6704 149.266 25.041 149.428 25.4299 149.53C25.297 149.784 25.1719 150.042 25.039 150.312C24.996 150.425 24.9413 150.535 24.9022 150.644L24.7849 150.973C24.7106 151.199 24.6402 151.407 24.5777 151.618C24.5464 151.727 24.5151 151.829 24.4878 151.93C24.5112 151.751 24.5464 151.465 24.5464 151.438C24.5464 150.988 24.2884 150.116 23.8115 149.96C23.731 149.936 23.6464 149.93 23.5632 149.94C23.4801 149.951 23.4001 149.98 23.3286 150.024C23.257 150.068 23.1955 150.126 23.1481 150.195C23.1006 150.264 23.0682 150.343 23.0531 150.425C23.0531 150.468 23.0531 150.511 23.0531 150.554C22.8281 150.882 22.6933 151.264 22.6621 151.661C22.6621 151.688 22.6856 152.028 22.7051 152.204L22.5683 151.762C22.5018 151.555 22.4393 151.336 22.3728 151.125C22.3455 151.016 22.3181 150.902 22.2868 150.789C22.2555 150.675 22.2399 150.562 22.2125 150.449C22.1852 150.335 22.1539 150.105 22.1265 149.929C22.5093 149.842 22.876 149.696 23.2133 149.495C23.3627 149.393 23.4878 149.259 23.5797 149.103C23.6715 148.946 23.728 148.772 23.745 148.592C23.746 148.508 23.7293 148.425 23.6961 148.349C23.6629 148.272 23.6138 148.203 23.5522 148.147C23.4906 148.09 23.4178 148.048 23.3385 148.021C23.2592 147.995 23.1753 147.985 23.0921 147.994C22.5918 148.056 22.1735 148.862 22.0875 149.303C22.0875 149.303 22.0875 149.413 22.0875 149.526C22.064 149.354 22.0444 149.182 22.0288 149.006C21.9858 148.51 21.9545 148.005 21.9233 147.497C21.9233 147.392 21.9233 147.286 21.9233 147.181C22.3173 147.09 22.6955 146.941 23.0452 146.739C23.1883 146.635 23.3074 146.502 23.3944 146.348C23.4815 146.194 23.5343 146.024 23.5495 145.847C23.5505 145.764 23.5338 145.681 23.5006 145.604C23.4674 145.528 23.4184 145.459 23.3568 145.403C23.2952 145.346 23.2223 145.303 23.1431 145.277C23.0638 145.25 22.9798 145.241 22.8967 145.249C22.3963 145.312 21.978 146.117 21.8959 146.559C21.8959 146.559 21.8959 146.688 21.8724 146.813C21.8529 146.539 21.8294 146.266 21.7943 145.992C21.7417 145.526 21.6581 145.063 21.5441 144.608C21.9556 144.519 22.3511 144.367 22.7169 144.159C22.8662 144.056 22.9913 143.922 23.0832 143.766C23.1751 143.61 23.2315 143.436 23.2485 143.256C23.2495 143.172 23.2328 143.089 23.1996 143.013C23.1664 142.936 23.1174 142.867 23.0557 142.811C22.9941 142.754 22.9213 142.711 22.842 142.685C22.7628 142.659 22.6788 142.649 22.5957 142.657C22.0953 142.72 21.677 143.525 21.5949 143.967C21.5949 143.998 21.5558 144.409 21.5519 144.557C21.4277 144.112 21.2641 143.679 21.0632 143.263C20.8724 142.886 20.6583 142.52 20.4221 142.169C20.2227 141.84 20.0311 141.555 19.8396 141.305L19.5581 140.933C19.5581 140.933 19.4174 140.339 19.4057 140.304C19.2454 139.882 18.6942 139.166 18.1899 139.19C18.1066 139.197 18.0257 139.221 17.9524 139.261C17.879 139.301 17.8149 139.356 17.7641 139.422C17.7133 139.488 17.6769 139.565 17.6573 139.646C17.6377 139.727 17.6354 139.811 17.6504 139.894C17.7015 140.065 17.7887 140.223 17.906 140.358C18.0233 140.493 18.1681 140.601 18.3306 140.675C18.708 140.811 19.103 140.891 19.5034 140.914C19.5933 141.031 19.6871 141.16 19.7888 141.305C19.9647 141.559 20.1797 141.848 20.3517 142.177C20.4025 142.263 20.4534 142.36 20.5081 142.454C20.3869 142.313 20.2188 142.13 20.2032 142.114C19.867 141.813 19.0304 141.43 18.6082 141.684C18.5373 141.728 18.4766 141.787 18.4299 141.856C18.3832 141.925 18.3516 142.004 18.3373 142.086C18.3229 142.168 18.326 142.253 18.3464 142.333C18.3668 142.414 18.404 142.49 18.4557 142.556C18.5791 142.688 18.7297 142.791 18.8972 142.859C19.0647 142.926 19.2449 142.956 19.4252 142.947C19.8311 142.896 20.2266 142.782 20.598 142.611C20.7075 142.814 20.8169 143.029 20.9186 143.26C21.1088 143.675 21.2606 144.107 21.372 144.55H21.3486C21.2548 144.409 21.0476 144.12 21.028 144.096C20.727 143.764 19.953 143.291 19.4917 143.498C19.4163 143.534 19.3494 143.585 19.2953 143.649C19.2411 143.712 19.2009 143.786 19.1773 143.866C19.1537 143.946 19.1472 144.03 19.1583 144.113C19.1693 144.196 19.1977 144.275 19.2415 144.346C19.3498 144.492 19.4885 144.612 19.6478 144.698C19.807 144.784 19.9832 144.835 20.1641 144.847C20.5814 144.834 20.9948 144.762 21.3916 144.632C21.4923 145.074 21.5641 145.521 21.6066 145.973C21.6379 146.309 21.6574 146.649 21.6731 146.989C21.6105 146.887 21.3408 146.508 21.3173 146.485C21.0163 146.149 20.2423 145.679 19.781 145.883C19.7061 145.919 19.6396 145.971 19.5858 146.034C19.532 146.098 19.492 146.172 19.4684 146.252C19.4449 146.331 19.4383 146.415 19.449 146.498C19.4597 146.58 19.4876 146.66 19.5308 146.731C19.6393 146.876 19.778 146.996 19.9372 147.082C20.0965 147.169 20.2726 147.22 20.4534 147.231C20.8787 147.244 21.3035 147.19 21.7122 147.071C21.7122 147.227 21.7122 147.384 21.7122 147.536C21.7317 148.045 21.7513 148.553 21.7825 149.057C21.7825 149.229 21.8138 149.401 21.8294 149.573L21.5245 149.139C21.2235 148.803 20.4455 148.334 19.9881 148.537C19.9127 148.573 19.8457 148.625 19.7915 148.689C19.7373 148.753 19.6972 148.827 19.6736 148.908C19.65 148.988 19.6435 149.072 19.6546 149.155C19.6657 149.238 19.6941 149.318 19.7379 149.389C19.8504 149.533 19.993 149.65 20.1559 149.733C20.3187 149.815 20.4977 149.861 20.6801 149.866Z" fill="#42403D"/>
<path d="M82.1219 137.419C82.1219 137.419 80.1672 137.7 79.5886 140.234C79.01 142.767 80.6441 143.963 81.6293 146.919C82.2943 148.828 83.1924 150.648 84.3033 152.337C84.3033 152.337 88.2438 153.815 90.5582 153.604C92.8725 153.392 93.0914 151.774 92.3174 150.015C91.5433 148.256 89.8545 147.278 89.2916 146.778C88.7286 146.278 87.8842 144.456 87.8842 144.456C88.0771 143.504 88.0355 142.52 87.7631 141.589C87.4907 140.657 86.9955 139.805 86.3205 139.108C84.0218 136.645 82.1219 137.419 82.1219 137.419Z" fill="#F7F0E6" stroke="#42403D" stroke-width="0.5" stroke-linecap="round" stroke-linejoin="round"/>
<path d="M92.7005 151.266C92.5339 151.724 92.236 152.124 91.8439 152.415C91.4519 152.705 90.9829 152.874 90.4956 152.9C87.9624 153.041 85.4995 151.985 84.9366 151.774C84.3736 151.563 83.4589 150.015 82.5441 147.693C81.6293 145.371 80.3627 142.697 81.0663 139.952C81.77 137.208 83.8029 137.56 83.8029 137.56L83.9553 137.485C83.3657 137.261 82.7183 137.238 82.114 137.419C82.114 137.419 80.1594 137.7 79.5808 140.234C79.0022 142.767 80.6363 143.963 81.6215 146.919C82.2864 148.828 83.1846 150.648 84.2954 152.337C84.2954 152.337 88.236 153.815 90.5504 153.604C92.3213 153.443 92.8686 152.482 92.7005 151.266Z" fill="#F7F0E6" stroke="#42403D" stroke-width="0.5" stroke-linecap="round" stroke-linejoin="round"/>
<path d="M122.091 145.582C122.091 145.582 121.598 154.448 121.809 155.081C122.021 155.715 122.865 156.348 123.92 156.418C124.976 156.489 129.135 156.809 130.042 157.544C131.52 158.74 134.194 158.74 134.194 158.74C134.194 158.74 139.472 158.924 139.19 157.052C138.979 155.644 133.279 152.478 131.661 151.281C130.042 150.085 128.635 148.256 128.635 147.974C128.635 147.693 128.143 144.456 128.143 144.456L122.091 145.582Z" fill="#F7F0E6" stroke="#42403D" stroke-width="0.5" stroke-linecap="round" stroke-linejoin="round"/>
<path d="M127.087 150.156C127.087 150.156 126.102 150.296 123.639 149.593C122.693 149.323 122.185 149.159 121.915 149.053C121.802 151.618 121.688 154.718 121.809 155.081C122.021 155.715 122.865 156.348 123.92 156.418C124.976 156.489 129.135 156.809 130.042 157.544C131.52 158.74 134.194 158.74 134.194 158.74C134.194 158.74 139.472 158.924 139.19 157.052C138.979 155.644 133.279 152.478 131.661 151.281C130.042 150.085 128.635 148.256 128.635 147.974C127.228 147.974 127.087 150.156 127.087 150.156Z" fill="#F7F0E6" stroke="#42403D" stroke-width="0.5" stroke-linecap="round" stroke-linejoin="round"/>
<path d="M139.191 157.052C139.097 156.73 138.916 156.44 138.667 156.215C138.483 156.532 138.112 156.946 137.15 157.333C135.743 157.896 132.224 157.755 131.31 157.192C130.395 156.63 129.128 156.207 126.525 155.629C124.911 155.264 123.32 154.807 121.759 154.26C121.75 154.53 121.767 154.8 121.81 155.066C122.021 155.699 122.866 156.332 123.921 156.403C124.977 156.473 129.136 156.794 130.043 157.529C131.521 158.725 134.195 158.725 134.195 158.725C134.195 158.725 139.472 158.924 139.191 157.052Z" fill="#F7F0E6" stroke="#42403D" stroke-width="0.5" stroke-linecap="round" stroke-linejoin="round"/>
<path d="M79.5532 128.041C79.5532 128.041 78.0403 134.534 79.1622 135.859C80.2842 137.184 84.862 139.026 84.862 139.026C84.862 139.026 82.6103 139.589 82.751 141.7C82.8917 143.811 83.3843 144.303 86.3397 145.218C89.2952 146.133 93.0247 147.399 95.6987 147.892C98.3726 148.385 100.202 148.807 102.032 147.962C103.861 147.118 106.465 142.489 105.972 140.011C105.48 137.532 102.517 132.998 102.517 132.998C102.517 132.998 110.398 129.55 112.509 127.72C114.62 125.89 118.138 123.42 118.138 123.42C118.138 123.42 121.023 141.012 121.375 143.615C121.727 146.219 122.008 146.993 122.008 146.993L129.608 145.163C129.608 145.163 129.467 133.201 128.623 127.29C127.779 121.379 126.864 112.091 126.16 109.839C125.456 107.587 123.345 106.954 121.023 107.446C118.701 107.939 109.061 112.161 103.642 117.509C98.2241 122.857 85.769 123.138 82.6024 124.405C79.4359 125.671 79.5532 128.041 79.5532 128.041Z" fill="#42403D" stroke="#42403D" stroke-width="0.5" stroke-linecap="round" stroke-linejoin="round"/>
<path d="M117.184 71.289C117.184 71.289 116.379 69.0138 116.047 69.0138C115.714 69.0138 113.701 69.1467 113.701 69.1467C113.793 69.5533 114.033 69.9112 114.374 70.1514C114.935 70.4582 115.516 70.7273 116.113 70.9567L117.184 71.289Z" fill="#F7F0E6" stroke="#42403D" stroke-width="0.5" stroke-linecap="round" stroke-linejoin="round"/>
<path d="M108.748 101.492C108.748 101.492 119.327 106.047 121.336 106.848C123.345 107.649 124.284 107.051 124.55 106.582C124.815 106.113 125.355 102.9 125.355 102.9L115.711 81.0075C115.711 81.0075 117.853 74.045 117.919 73.0403C117.986 72.0356 116.782 70.9644 115.965 70.4289C115.148 69.8933 114.01 69.9598 114.424 70.6283C114.637 70.9525 114.793 71.3108 114.886 71.6877C114.886 71.6877 112.884 81.0075 112.884 81.676C112.884 82.3445 115.351 94.694 115.351 94.694L108.748 101.492Z" fill="#F7F0E6" stroke="#42403D" stroke-width="0.5" stroke-linecap="round" stroke-linejoin="round"/>
<path d="M116.243 100.566L116.38 101.492" stroke="#42403D" stroke-width="0.5" stroke-linecap="round" stroke-linejoin="round"/>
<path d="M115.367 94.6863L116.113 99.6941" stroke="#42403D" stroke-width="0.5" stroke-linecap="round" stroke-linejoin="round"/>
<path d="M115.109 71.2225L116.313 72.2937L115.175 75.0419" stroke="#42403D" stroke-width="0.5" stroke-linecap="round" stroke-linejoin="round"/>
<path d="M98.3263 83.2046C98.3263 83.2046 90.5077 86.5784 87.1183 88.9474C83.7289 91.3165 82.5796 96.6019 82.5796 97.7864C82.5796 98.9709 80.3043 117.65 80.3043 117.65C80.3043 117.65 79.1315 120.476 78.0252 123.123C76.9189 125.769 77.7516 126.766 78.2989 127.313C78.6587 127.656 79.0959 127.907 79.5733 128.045C79.5733 128.045 87.3176 124.034 90.6015 124.034C92.9595 123.976 95.3071 123.701 97.6148 123.213C97.6148 123.213 104.358 120.39 104.726 119.206C105.093 118.021 104.358 113.463 104.358 113.463C104.358 113.463 107.001 110.273 108.006 106.817C109.01 103.361 110.082 101.723 110.082 101.723L115.367 94.6863C115.367 94.6863 111.903 91.77 110.445 90.2219C108.987 88.6738 108.256 86.6761 104.886 85.4838C101.516 84.2914 99.7806 82.5674 98.3263 83.2046Z" fill="#6FC54C" stroke="#42403D" stroke-width="0.5" stroke-linecap="round" stroke-linejoin="round"/>
<path d="M96.974 118.283C96.4071 118.627 95.8364 118.951 95.2852 119.237" stroke="#42403D" stroke-width="0.5" stroke-linecap="round" stroke-linejoin="round"/>
<path d="M103.056 114.014C103.056 114.014 100.632 115.945 97.9507 117.669" stroke="#42403D" stroke-width="0.5" stroke-linecap="round" stroke-linejoin="round"/>
<path d="M101.114 112.141C100.777 112.532 95.8204 118.502 93.2754 119.772" stroke="#42403D" stroke-width="0.5" stroke-linecap="round" stroke-linejoin="round"/>
<path d="M108.869 94.909C108.752 94.5572 108.623 94.2054 108.479 93.8574" stroke="#42403D" stroke-width="0.5" stroke-linecap="round" stroke-linejoin="round"/>
<path d="M109.682 102.161C109.809 100.179 109.657 98.1897 109.233 96.25" stroke="#42403D" stroke-width="0.5" stroke-linecap="round" stroke-linejoin="round"/>
<path d="M95.6211 86.895C96.1016 88.8935 96.8209 90.8269 97.7634 92.6534C99.2372 95.39 100.844 97.3446 101.446 96.8716C102.048 96.3986 104.057 92.7199 104.394 90.9763" stroke="#42403D" stroke-width="0.5" stroke-linecap="round" stroke-linejoin="round"/>
<path d="M99.018 78.7557L96.5434 84.9403C96.5434 84.9403 95.8749 86.3711 97.3995 89.4164C98.9242 92.4618 100.445 95.4133 101.493 94.7449C102.54 94.0764 103.682 91.0349 104.35 89.0333C105.019 87.0318 105.777 85.3234 105.777 85.3234L99.018 78.7557Z" fill="#F7F0E6" stroke="#42403D" stroke-width="0.5" stroke-linecap="round" stroke-linejoin="round"/>
<path d="M101.52 84.2914L103.595 90.9959L105.456 86.3125L101.52 84.2914Z" fill="#42403D" stroke="#42403D" stroke-width="0.5" stroke-linecap="round" stroke-linejoin="round"/>
<path d="M103.623 65.4444C103.623 65.4444 99.9013 66.93 99.4557 68.8651C99.1708 70.2116 99.0397 71.586 99.0647 72.9621C99.0647 72.9621 97.5792 71.844 97.3564 73.9277C97.1335 76.0113 97.4306 77.1294 98.0991 77.4265L98.7676 77.7236C98.7676 77.7236 99.2915 81.6681 100.406 83.009C101.52 84.3499 104.424 87.3093 106.508 87.9973C108.592 88.6854 109.636 86.8245 110.308 85.7651C110.98 84.7057 112.614 82.5634 113.283 80.9996C113.951 79.4359 115.218 74.5962 115.069 72.6611C114.921 70.7259 112.986 66.7072 110.769 65.7416C108.553 64.776 106.004 64.4007 103.623 65.4444Z" fill="#F7F0E6" stroke="#42403D" stroke-width="0.5" stroke-linecap="round" stroke-linejoin="round"/>
<path d="M104.741 68.8849C105.312 68.5995 108.651 67.4931 114.906 71.6996C114.358 69.6198 112.673 66.5862 110.773 65.7613C108.541 64.7918 106.008 64.4204 103.627 65.4642C103.627 65.4642 99.9055 66.9497 99.4599 68.8849C99.175 70.2313 99.0439 71.6058 99.0689 72.9818C99.2133 73.1821 99.3157 73.4095 99.37 73.6503C99.4442 74.0412 99.7413 75.1398 99.7413 75.1398C99.7413 75.1398 101.305 75.5854 101.305 74.9912C101.35 74.4124 101.45 73.8391 101.602 73.2789C101.602 73.2789 104.503 73.4275 104.73 72.1609C104.956 70.8942 104.143 69.1663 104.741 68.8849Z" fill="#636363" stroke="#42403D" stroke-width="0.5" stroke-linecap="round" stroke-linejoin="round"/>
<path d="M114.902 71.6799C114.355 69.6002 112.67 66.5665 110.77 65.7417C108.538 64.7721 106.004 64.4008 103.624 65.4445C103.624 65.4445 99.9018 66.9301 99.4562 68.8652C99.4014 69.1076 99.3506 69.35 99.3115 69.5923C101.074 69.0745 102.906 68.8357 104.742 68.8847C105.312 68.5798 108.635 67.4735 114.902 71.6799Z" fill="#42403D" stroke="#42403D" stroke-width="0.5" stroke-linecap="round" stroke-linejoin="round"/>
<path d="M106.227 75.3429C106.227 75.3429 109.503 75.2687 109.874 75.3429C110.246 75.4172 111.067 75.2687 111.067 75.7886C111.067 76.3086 109.429 76.2343 108.909 76.2343C108.389 76.2343 106.376 75.7886 106.227 75.3429Z" fill="#42403D"/>
<path d="M112.106 76.2343C112.106 76.2343 113.299 78.3961 113.67 78.5447C114.042 78.6932 113.819 77.4266 113.225 76.59C112.63 75.7534 112.333 75.4915 112.106 76.2343Z" fill="#42403D"/>
<path d="M112.079 76.7855C111.946 77.1724 111.782 77.5477 111.587 77.9075C111.45 78.0404 111.047 82.7981 110.805 83.0248C110.563 83.2515 108.651 82.3485 108.651 82.3485" stroke="#42403D" stroke-width="0.5" stroke-linecap="round" stroke-linejoin="round"/>
<path d="M107.861 83.967C108.362 83.9167 108.868 83.9781 109.342 84.1468" stroke="#42403D" stroke-width="0.5" stroke-linecap="round" stroke-linejoin="round"/>
<path d="M108.772 77.9076C108.659 78.2477 108.381 78.4627 108.162 78.3923C107.943 78.322 107.849 78.0014 107.959 77.6378C108.068 77.2743 108.35 77.0827 108.569 77.1531C108.788 77.2234 108.87 77.5636 108.772 77.9076Z" fill="#42403D"/>
<path d="M112.548 79.1859C112.439 79.526 112.157 79.7449 111.942 79.6706C111.727 79.5963 111.63 79.2601 111.739 78.92C111.848 78.5799 112.13 78.361 112.349 78.4353C112.568 78.5095 112.681 78.8457 112.548 79.1859Z" fill="#42403D"/>
<path d="M89.0299 88.2163C89.0299 88.2163 84.7491 89.8582 83.4708 92.0435C82.1925 94.2288 82.1064 104.62 82.1064 104.62L93.1307 105.793L94.3035 94.0373" fill="#6FC54C"/>
<path d="M89.0299 88.2163C89.0299 88.2163 84.7491 89.8582 83.4708 92.0435C82.1925 94.2288 82.1064 104.62 82.1064 104.62L93.1307 105.793L94.3035 94.0373" stroke="#42403D" stroke-width="0.5" stroke-linecap="round" stroke-linejoin="round"/>
<path d="M83.5645 104.803C83.5645 104.803 84.7372 123.756 85.3862 125.132C86.0351 126.508 87.4816 126.864 87.8452 126.954C88.2087 127.044 103.701 131.254 104.796 131.692C105.891 132.13 107.986 132.786 107.986 132.786C107.986 132.786 107.622 137.067 108.26 138.435C108.897 139.804 109.991 142.736 109.991 142.736L108.897 144.557C108.897 144.557 106.981 145.105 107.165 145.378C107.349 145.652 108.987 146.195 109.26 146.195C110.181 146.153 111.097 146.032 111.997 145.832C112.454 145.652 113.912 144.01 114.096 143.553C114.28 143.095 113.729 140.816 113.729 140.816C113.729 140.816 111.997 132.524 111.727 131.614C111.457 130.703 110.996 130.05 110.722 129.972C110.449 129.893 91.6763 120.406 91.6763 120.406V105.632L83.5645 104.803Z" fill="#F7F0E6" stroke="#42403D" stroke-width="0.5" stroke-linecap="round" stroke-linejoin="round"/>
<path d="M109.261 146.172C109.625 145.795 110.017 145.446 110.434 145.128C110.719 144.959 110.942 144.701 111.067 144.393C111.161 143.986 111.227 143.574 111.266 143.158" fill="#F7F0E6"/>
<path d="M109.261 146.172C109.625 145.795 110.017 145.446 110.434 145.128C110.719 144.959 110.942 144.701 111.067 144.393C111.161 143.986 111.227 143.574 111.266 143.158" stroke="#42403D" stroke-width="0.5" stroke-linecap="round" stroke-linejoin="round"/>
<path d="M110.82 145.93C110.82 145.93 111.785 145.195 111.922 145.027C112.188 144.394 112.422 143.748 112.622 143.091" fill="#F7F0E6"/>
<path d="M110.82 145.93C110.82 145.93 111.785 145.195 111.922 145.027C112.188 144.394 112.422 143.748 112.622 143.091" stroke="#42403D" stroke-width="0.5" stroke-linecap="round" stroke-linejoin="round"/>
<path d="M113.557 142.958C113.383 143.62 113.16 144.267 112.888 144.894L113.557 142.958Z" fill="#F7F0E6"/>
<path d="M113.557 142.958C113.383 143.62 113.16 144.267 112.888 144.894" stroke="#42403D" stroke-width="0.5" stroke-linecap="round" stroke-linejoin="round"/>
<path d="M54.4875 34.6353C54.4875 34.6353 54.0575 35.1005 50.1247 42.063C46.192 49.0255 49.9723 52.8019 49.9723 52.8019L54.812 40.683L54.4875 34.6353Z" fill="#42403D" stroke="#42403D" stroke-width="0.5" stroke-linecap="round" stroke-linejoin="round"/>
<path d="M52.5651 17.5123C52.5651 17.5123 50.0631 20.5264 49.9341 21.7422C49.8051 22.958 50.0005 23.7946 49.4884 24.6312C48.9763 25.4678 46.963 25.9916 46.7949 26.7461C46.5369 27.8955 47.049 28.2864 47.436 28.5405C47.8231 28.7946 47.8817 30.2723 48.2179 30.6555C48.5541 31.0386 48.3469 31.1715 48.6088 31.8752L48.8668 32.5828C48.8668 32.5828 48.8004 33.7986 49.4415 34.3107C50.0826 34.8228 52.2015 34.6351 53.3508 34.6351H54.5041C54.5041 34.6351 57.6315 22.2582 57.7762 22.0628C57.9208 21.8673 52.5651 17.5123 52.5651 17.5123Z" fill="#F7F0E6" stroke="#42403D" stroke-width="0.5" stroke-linecap="round" stroke-linejoin="round"/>
<path d="M51.0874 24.5022L53.0773 24.8228" stroke="#42403D" stroke-width="0.5" stroke-linecap="round" stroke-linejoin="round"/>
<path d="M51.0908 22.6415C51.8084 23.088 52.5585 23.48 53.3348 23.8143" stroke="#42403D" stroke-width="0.5" stroke-linecap="round" stroke-linejoin="round"/>
<path d="M51.8374 24.776C51.8374 24.776 52.0641 25.249 52.3612 25.2764C52.6584 25.3038 52.7522 24.8542 52.7522 24.8542L51.8374 24.776Z" fill="#42403D" stroke="#42403D" stroke-width="0.5" stroke-linecap="round" stroke-linejoin="round"/>
<path d="M48.6904 30.7571L49.613 31.0855" stroke="#42403D" stroke-width="0.5" stroke-linecap="round" stroke-linejoin="round"/>
<path d="M47.7445 54.0997C47.7445 54.0997 42.463 60.0888 41.5326 62.3445C40.6022 64.6002 41.2511 68.0521 42.7328 68.83C44.2144 69.608 49.144 65.3117 49.144 65.3117L47.7445 54.0997Z" fill="#6FC54C" stroke="#42403D" stroke-width="0.5" stroke-linecap="round" stroke-linejoin="round"/>
<path d="M44.5746 60.726C44.5746 60.726 42.4636 61.4296 42.1782 61.7815L44.5746 60.726Z" fill="#F7F0E6"/>
<path d="M44.5746 60.726C44.5746 60.726 42.4636 61.4296 42.1782 61.7815" stroke="#42403D" stroke-width="0.5" stroke-linecap="round" stroke-linejoin="round"/>
<path d="M48.0027 81.4727L47.5492 86.8675C45.1099 91.6677 43.0068 96.6314 41.2552 101.723C38.7923 109.201 36.3294 116.496 36.9549 117.681C37.5804 118.865 52.5492 143.948 52.9128 144.585C53.2763 145.222 52.729 146.227 52.0019 147.775C51.2307 149.443 49.9099 150.795 48.2607 151.606C46.5289 152.427 45.9816 153.17 46.5289 153.611C47.0762 154.053 50.9073 153.979 52.6391 153.795C54.371 153.611 55.2818 152.231 56.6501 151.148C58.0183 150.066 59.2967 149.69 60.0238 148.596C60.751 147.501 60.1176 145.679 59.3866 144.858C58.6636 144.083 57.9936 143.261 57.3811 142.396C56.8338 141.575 53.0027 130.632 51.7283 126.164C50.4538 121.696 49.4452 119.596 48.5343 117.865C47.9196 116.774 47.3713 115.647 46.8924 114.491C46.8025 114.127 54.7345 100.355 54.7345 100.355C54.7345 100.355 57.1075 97.0709 60.3913 90.5814C63.6751 84.0919 60.6962 81.2928 60.6962 81.2928L48.0027 81.4727Z" fill="#42403D" stroke="#42403D" stroke-width="0.5" stroke-linecap="round" stroke-linejoin="round"/>
<path d="M52.0172 147.767C51.246 149.435 49.9253 150.788 48.276 151.598C46.5442 152.419 45.9969 153.162 46.5442 153.604C47.0915 154.045 50.9226 153.971 52.6544 153.787C54.3863 153.604 55.2972 152.224 56.6654 151.141C58.0337 150.058 59.312 149.683 60.0392 148.588C60.7663 147.493 60.133 145.672 59.4019 144.851C58.6789 144.076 58.0089 143.253 57.3965 142.388C57.1306 141.997 56.0947 139.213 54.9492 135.949C53.4676 137.614 50.6216 138.435 49.4449 138.717C51.3996 141.997 52.8186 144.385 52.9281 144.581C53.2917 145.214 52.7444 146.219 52.0172 147.767Z" fill="#F7F0E6" stroke="#42403D" stroke-width="0.5" stroke-linecap="round" stroke-linejoin="round"/>
<path d="M60.0392 148.588C60.7702 147.493 60.133 145.672 59.4019 144.851C59.1752 144.597 58.9524 144.342 58.7295 144.069C57.5358 144.952 56.2654 145.727 54.9336 146.383C54.8069 146.038 54.654 145.704 54.4762 145.382C54.3355 145.167 53.4129 145.234 53.018 145.273C52.9281 145.879 52.5176 146.684 52.0172 147.751C51.246 149.419 49.9253 150.772 48.276 151.583C46.5442 152.404 45.9969 153.146 46.5442 153.588C47.0915 154.03 50.9226 153.956 52.6544 153.772C54.3863 153.588 55.2972 152.208 56.6654 151.125C58.0337 150.042 59.312 149.683 60.0392 148.588Z" fill="#6FC54C" stroke="#42403D" stroke-width="0.5" stroke-linecap="round" stroke-linejoin="round"/>
<path d="M48.46 137.188L50.3755 140.108C50.3755 140.108 54.0229 139.377 55.8486 137.372L54.3904 133.463C54.3904 133.463 50.6492 136.907 48.46 137.188Z" fill="#A1A1A1" stroke="#42403D" stroke-width="0.5" stroke-linecap="round" stroke-linejoin="round"/>
<path d="M52.4787 90.1358C52.4787 90.1358 53.4834 98.8888 55.2152 106.821C56.9471 114.753 58.589 126.61 59.32 131.262C60.0511 135.914 59.4099 145.762 59.1363 147.04C58.8626 148.318 58.3153 148.955 57.2207 149.866C56.1261 150.777 54.7579 151.782 53.3114 152.235C51.865 152.689 49.7539 153.15 50.0276 154.335C50.3012 155.519 53.7688 155.507 55.7743 155.793C57.7798 156.078 61.521 155.339 63.6164 155.339C65.7118 155.339 65.7157 154.061 65.5319 152.509C65.3482 150.957 64.8009 149.593 64.711 148.408C64.6211 147.224 66.0792 141.109 66.0792 141.109C67.3252 135.3 67.8153 129.355 67.5374 123.42C66.9901 114.209 66.1692 111.836 66.1692 111.473C66.1692 111.109 67.0839 95.9725 67.7329 94.0569C68.3818 92.1413 70.012 86.9419 69.6485 84.479C69.3023 82.561 68.8136 80.6715 68.1864 78.8262L50.1331 80.558" fill="#42403D"/>
<path d="M52.4787 90.1358C52.4787 90.1358 53.4834 98.8888 55.2152 106.821C56.9471 114.753 58.589 126.61 59.32 131.262C60.0511 135.914 59.4099 145.762 59.1363 147.04C58.8626 148.318 58.3153 148.955 57.2207 149.866C56.1261 150.777 54.7579 151.782 53.3114 152.235C51.865 152.689 49.7539 153.15 50.0276 154.335C50.3012 155.519 53.7688 155.507 55.7743 155.793C57.7798 156.078 61.521 155.339 63.6164 155.339C65.7118 155.339 65.7157 154.061 65.5319 152.509C65.3482 150.957 64.8009 149.593 64.711 148.408C64.6211 147.224 66.0792 141.109 66.0792 141.109C67.3252 135.3 67.8153 129.355 67.5374 123.42C66.9901 114.209 66.1692 111.836 66.1692 111.473C66.1692 111.109 67.0839 95.9725 67.7329 94.0569C68.3818 92.1413 70.012 86.9419 69.6485 84.479C69.3023 82.561 68.8136 80.6715 68.1864 78.8262L50.1331 80.558" stroke="#42403D" stroke-width="0.5" stroke-linecap="round" stroke-linejoin="round"/>
<path d="M59.559 141.438C59.5111 143.311 59.3675 145.181 59.129 147.04C58.8553 148.314 58.308 148.955 57.2134 149.866C56.1188 150.777 54.7505 151.782 53.3041 152.235C51.8576 152.689 49.7466 153.15 50.0203 154.335C50.2939 155.519 53.7615 155.508 55.767 155.793C57.7724 156.078 61.5137 155.339 63.609 155.339C65.7044 155.339 65.7083 154.061 65.5246 152.509C65.3409 150.957 64.7936 149.593 64.7037 148.408C64.6333 147.505 65.466 143.74 65.8765 142.001C63.7593 142.405 61.5712 142.21 59.559 141.438Z" fill="#F7F0E6" stroke="#42403D" stroke-width="0.5" stroke-linecap="round" stroke-linejoin="round"/>
<path d="M65.5129 152.509C65.3811 151.62 65.1957 150.74 64.9578 149.874C63.3781 150.252 61.7578 150.433 60.1337 150.414C60.1337 150.414 59.9499 149.866 59.4925 148.682C59.2814 148.123 58.9648 148.111 58.6911 148.256C58.3031 148.88 57.8019 149.426 57.2134 149.866C56.1188 150.777 54.7505 151.782 53.3041 152.235C51.8576 152.689 49.7466 153.15 50.0203 154.335C50.2939 155.519 53.7615 155.507 55.767 155.793C57.7724 156.078 61.5137 155.339 63.609 155.339C65.7044 155.339 65.6966 154.061 65.5129 152.509Z" fill="#6FC54C" stroke="#42403D" stroke-width="0.5" stroke-linecap="round" stroke-linejoin="round"/>
<path d="M59.4019 138.924V143.482C59.4019 143.482 63.5066 144.577 65.602 144.12L66.5168 139.378C66.5168 139.378 60.4066 139.378 59.4019 138.924Z" fill="#A1A1A1" stroke="#42403D" stroke-width="0.5" stroke-linecap="round" stroke-linejoin="round"/>
<path d="M48.0028 78.6581C48.0028 78.6581 46.83 81.5783 47.6392 82.1256C48.4485 82.6729 49.203 84.221 56.0286 84.1311C62.8543 84.0412 65.97 82.8528 67.2445 82.2155C68.5189 81.5783 69.16 80.7574 69.0701 79.9364C68.9802 79.1154 68.6792 77.3015 68.6792 77.3015C68.6792 77.3015 66.7949 79.5728 60.1373 79.0255C56.034 78.681 51.9538 78.1014 47.9168 77.2898L48.0028 78.6581Z" fill="#6FC54C" stroke="#42403D" stroke-width="0.5" stroke-linecap="round" stroke-linejoin="round"/>
<path d="M52.2564 46.4179C52.2564 46.4179 47.7451 51.5626 47.2525 54.0998C46.7599 56.6369 47.9601 61.0662 48.179 62.1334C48.3979 63.2006 47.7529 70.3782 47.5418 72.4227C47.3307 74.4673 46.1344 78.4118 47.0492 78.9748C47.964 79.5377 54.731 81.6526 60.7318 81.3008C66.7326 80.949 68.9062 78.9748 68.6951 77.2859C68.484 75.5971 65.595 69.2523 65.9586 65.7964C66.3222 62.3406 68.6365 56.848 68.2846 51.9848C67.9328 47.1216 66.6623 42.3327 64.7662 41.3476C62.8702 40.3624 60.2979 39.7252 56.9789 41.9105C53.6599 44.0958 52.2564 46.4179 52.2564 46.4179Z" fill="#6FC54C" stroke="#42403D" stroke-width="0.5" stroke-linecap="round" stroke-linejoin="round"/>
<path d="M49.8125 76.7034C49.8125 76.7034 52.2793 79.5063 57.4982 81.3007" stroke="#42403D" stroke-width="0.5" stroke-linecap="round" stroke-linejoin="round"/>
<path d="M47.8818 69.5299L50.1375 67.7785C50.1375 67.7785 53.5152 71.5314 54.7661 71.2969C56.0171 71.0623 62.0218 62.1647 62.0218 62.1647L64.3987 67.5439L63.1477 58.533C63.1477 58.533 53.2611 65.0263 52.014 64.9012C50.7669 64.7761 47.8818 64.651 47.8818 64.651V69.5299Z" fill="#42403D" stroke="#42403D" stroke-width="0.5" stroke-linecap="round" stroke-linejoin="round"/>
<path d="M57.7526 49.0255L53.6517 61.4297C53.6517 61.4297 48.507 58.7519 47.7291 58.4C46.9511 58.0482 45.6884 57.8371 45.1216 59.3852C44.5547 60.9333 44.2068 60.8668 45.0512 62.2742C45.8956 63.6815 52.1701 71.2929 53.1552 71.0818C54.1404 70.8707 58.597 65.4446 61.8613 60.7964C65.1255 56.1482 66.8613 50.2413 67.1428 48.744C67.4242 47.2467 65.1881 41.9105 62.776 41.7698" fill="#6FC54C"/>
<path d="M57.7526 49.0255L53.6517 61.4297C53.6517 61.4297 48.507 58.7519 47.7291 58.4C46.9511 58.0482 45.6884 57.8371 45.1216 59.3852C44.5547 60.9333 44.2068 60.8668 45.0512 62.2742C45.8956 63.6815 52.1701 71.2929 53.1552 71.0818C54.1404 70.8707 58.597 65.4446 61.8613 60.7964C65.1255 56.1482 66.8613 50.2413 67.1428 48.744C67.4242 47.2467 65.1881 41.9105 62.776 41.7698" stroke="#42403D" stroke-width="0.5" stroke-linecap="round" stroke-linejoin="round"/>
<path d="M49.0854 17.528L55.9189 22.8134C55.9189 22.8134 54.7931 30.2098 53.2411 35.2841C51.6891 40.3584 49.9299 44.4476 51.2864 47.403C52.6429 50.3585 54.3865 50.7846 54.7383 49.9402C55.0902 49.0957 55.0198 46.6251 57.4162 43.6657C59.8126 40.7063 63.4756 40.7767 64.6758 42.6806C65.876 44.5844 66.2395 49.5179 66.9979 52.9699C67.7564 56.4218 64.3904 60.4367 65.4342 61.4257C66.478 62.4148 68.3936 63.0442 71.3529 61.285C74.3123 59.5258 73.8901 55.9996 73.0457 54.7291C72.2012 53.4585 71.2826 53.5328 72.6195 52.0512C73.9565 50.5696 75.9346 48.5328 74.3826 43.1731C72.8306 37.8134 70.0824 36.9729 69.4491 33.7908C68.8158 30.6086 71.3529 27.2348 69.1676 21.7383C66.9823 16.2418 64.1637 13.6343 60.3599 13.1378C56.5562 12.6413 51.9744 13.087 49.0854 17.528Z" fill="#42403D" stroke="#42403D" stroke-width="0.5" stroke-linecap="round" stroke-linejoin="round"/>
<path d="M50.4927 59.7369C50.563 59.948 54.7929 56.7072 55.5748 56.5664C56.3567 56.4257 58.886 57.1294 59.5936 57.3483C60.3012 57.5672 60.2973 57.9855 59.6639 58.0559C59.0306 58.1262 56.7046 57.7744 56.3527 57.8448C56.0009 57.9151 57.9165 58.4077 58.5341 58.6892C59.1518 58.9707 60.2269 59.3225 59.8047 59.5336C59.3825 59.7447 56.2863 59.5336 56.0674 59.4632C55.8484 59.3929 57.8305 60.1669 58.2527 60.378C58.6749 60.5891 58.6749 61.1599 58.2527 61.2263C57.8305 61.2928 54.5896 60.0965 54.5896 60.0965C55.0908 60.559 55.5609 61.0539 55.997 61.5782C56.2824 62.0004 56.1377 62.2818 55.6452 62.2115C55.1526 62.1411 54.1674 61.156 54.1674 61.156L53.6749 61.4374L50.4927 59.7369Z" fill="#F7F0E6" stroke="#42403D" stroke-width="0.5" stroke-linecap="round" stroke-linejoin="round"/>
<path d="M46.8301 57.9778C46.8301 57.9778 46.0482 56.9184 45.4227 57.1295C44.7972 57.3406 43.5189 59.2445 43.3078 60.0185C43.0966 60.7925 44.5744 60.7261 44.5744 60.7261C44.5744 60.7261 45.3523 57.9778 46.8301 57.9778Z" fill="#F7F0E6" stroke="#42403D" stroke-width="0.5" stroke-linecap="round" stroke-linejoin="round"/>
<path d="M111.021 29.7525L109.067 31.7072L95.1301 45.6478L81.1894 31.7072L79.2348 29.7525C77.4439 27.8921 76.4544 25.4033 76.479 22.8211C76.5035 20.2389 77.5402 17.7694 79.3662 15.9434C81.1922 14.1174 83.6617 13.0807 86.244 13.0561C88.8262 13.0315 91.315 14.021 93.1754 15.8119L95.1301 17.7666L97.0847 15.8119C98.9451 14.021 101.434 13.0315 104.016 13.0561C106.598 13.0807 109.068 14.1174 110.894 15.9434C112.72 17.7694 113.757 20.2389 113.781 22.8211C113.806 25.4033 112.816 27.8921 111.025 29.7525H111.021Z" fill="#6FC54C"/>
<path d="M70.5396 16.8908C70.5396 16.8908 78.6201 12.8642 88.2449 14.9753C97.8696 17.0863 98.8235 25.1395 96.0635 28.955C93.3035 32.7705 85.6452 18.4546 97.8696 17.098C107.741 16.0152 103.788 27.0473 97.7875 31.2341C96.3567 32.231 94.8086 32.8409 93.3035 32.7979C85.4849 32.6063 82.3574 24.5296 90.1409 18.7986C97.9243 13.0675 102.26 19.9714 98.8235 25.9018C95.3872 31.8323 84.5662 26.8596 85.0236 21.1129C85.481 15.3662 92.6155 12.3091 99.7422 15.7571C106.869 19.2052 103.882 27.8213 101.814 31.4609C99.7461 35.1004 93.7648 37.7822 90.3129 34.5258C86.861 31.2693 96.7554 17.4811 102.271 20.7337C107.788 23.9863 104.574 36.8245 95.8328 38.1654C87.0916 39.5063 81.5365 28.783 80.8875 23.7986C80.2542 18.9471 94.0893 9.42404 104.578 17.6727C104.578 17.6727 108.487 20.894 107.283 27.8917C106.079 34.8893 98.6827 40.5696 96.1886 41.8909C93.6944 43.2123 81.9548 32.9503 79.23 29.772C76.5052 26.5938 79.6795 18.9237 83.2448 15.8861C86.8101 12.8486 92.3575 25.9214 94.8672 26.3201C97.377 26.7189 99.0932 19.5844 97.377 19.0566C95.6608 18.5288 89.5858 19.6977 89.058 24.3185C88.5302 28.9394 91.6968 33.826 96.4505 33.4312C101.204 33.0363 105.563 34.0918 110.055 28.8104C114.547 23.5289 110.188 15.6008 106.095 14.5453C102.002 13.4897 99.7539 20.2255 100.563 25.2411C101.372 30.2568 106.9 32.2427 109.164 26.9612C111.427 21.6798 109.691 16.1285 107.182 17.7157C104.672 19.3029 104.539 22.0746 106.009 23.9237C107.479 25.7728 119.082 20.3545 121.462 31.3162C123.843 42.278 114.809 44.2561 111.9 47.0356C108.992 49.8151 112.033 52.1842 113.749 53.7714C115.465 55.3585 114.41 57.2037 113.616 58.2593C112.823 59.3148 112.694 61.0349 112.694 61.0349" stroke="#42403D" stroke-width="0.5" stroke-linecap="round" stroke-linejoin="round"/>
</svg>
