<svg width="176" height="173" viewBox="0 0 176 173" fill="none" xmlns="http://www.w3.org/2000/svg">
<path opacity="0.7" d="M174.751 83.9981C172.796 100.417 165.318 119.495 150.349 128.259C127.738 141.508 129.63 161.88 85.4896 170.746C79.0524 172.068 72.4905 172.687 65.9196 172.591C62.7044 172.536 59.4961 172.275 56.3144 171.809C28.2689 167.712 9.38302 148.213 2.46744 124.675C-6.64909 93.7167 11.5527 73.4625 23.6169 61.2381C35.681 49.0136 44.5004 10.9799 87.8274 1.92981C94.4362 0.522354 101.185 -0.119093 107.941 0.0181506C123.355 0.409083 140.169 5.45601 151.803 16.0229C152.676 16.8048 153.526 17.6257 154.352 18.4858C170.521 35.0847 177.394 61.6251 174.751 83.9981Z" fill="#F7F0E6"/>
</svg>
