<svg width="344" height="359" viewBox="0 0 344 359" fill="none" xmlns="http://www.w3.org/2000/svg">
<path opacity="0.3" d="M82.0541 119.455C81.5434 117.479 80.3452 115.751 78.6745 114.579C75.1017 111.98 69.5656 113.605 69.5656 113.605C69.8955 105.148 64.0376 94.084 51.9998 94.084C39.962 94.084 37.041 103.845 37.041 103.845C35.5511 102.207 33.5872 101.076 31.4234 100.609C29.2596 100.141 27.0039 100.361 24.971 101.237C17.4876 104.166 17.1577 113.927 17.1577 113.927C17.1577 113.927 12.2814 108.721 7.07523 110.346C2.77027 111.698 1.35405 117.5 1 119.455H82.0541Z" stroke="#F5F7F5" stroke-width="0.5" stroke-miterlimit="10"/>
<path opacity="0.3" d="M83.727 57.52C83.3874 56.2154 82.5944 55.0744 81.49 54.3013C79.1243 52.5713 75.463 53.6496 75.463 53.6496C75.6723 48.0169 71.8018 40.7749 63.8356 40.7749C55.8694 40.7749 53.9302 47.2122 53.9302 47.2122C52.9458 46.1332 51.6502 45.387 50.2229 45.0771C48.7956 44.7671 47.3072 44.9087 45.964 45.4822C41.0072 47.4214 40.798 53.8829 40.798 53.8829C40.798 53.8829 37.5793 50.4389 34.1193 51.5172C31.2708 52.4023 30.3373 56.2486 30.0959 57.5442L83.727 57.52Z" stroke="#F5F7F5" stroke-width="0.5" stroke-miterlimit="10"/>
<path opacity="0.3" d="M343.443 223.129C342.603 219.891 340.641 217.057 337.906 215.13C332.04 210.865 322.972 213.521 322.972 213.521C323.503 199.656 313.911 181.527 294.181 181.527C274.45 181.527 269.695 197.54 269.695 197.54C269.695 197.54 262.187 188.488 249.924 193.316C237.661 198.144 237.13 214.108 237.13 214.108C237.13 214.108 229.132 205.579 220.594 208.242C213.529 210.447 211.22 219.966 210.64 223.169L343.443 223.129Z" stroke="#F5F7F5" stroke-width="0.5" stroke-miterlimit="10"/>
<path opacity="0.3" d="M272.599 146.282C272.259 144.978 271.466 143.837 270.362 143.064C267.996 141.342 264.335 142.412 264.335 142.412C264.544 136.819 260.674 129.537 252.708 129.537C244.742 129.537 242.802 135.974 242.802 135.974C241.818 134.896 240.522 134.15 239.094 133.842C237.666 133.533 236.178 133.677 234.836 134.252C229.879 136.184 229.67 142.645 229.67 142.645C229.67 142.645 226.451 139.201 222.991 140.279C220.143 141.173 219.209 145.011 218.968 146.306L272.599 146.282Z" stroke="#F5F7F5" stroke-width="0.5" stroke-miterlimit="10"/>
<path opacity="0.3" d="M222.692 28.2541C222.137 26.1327 220.849 24.2767 219.055 23.0157C215.209 20.2154 209.27 21.9616 209.27 21.9616C209.616 12.8769 203.332 1 190.401 1C177.47 1 174.307 11.4607 174.307 11.4607C172.707 9.70987 170.602 8.50043 168.283 8.0001C165.965 7.49978 163.548 7.73337 161.368 8.66847C153.346 11.8308 153.016 22.3156 153.016 22.3156C153.016 22.3156 147.777 16.7232 142.185 18.4693C137.55 19.9177 136.037 26.1539 135.651 28.2541H222.692Z" stroke="#F5F7F5" stroke-width="0.5" stroke-miterlimit="10"/>
<path d="M104.706 221.671C104.706 221.671 100.819 254.88 103.097 257.962C105.374 261.044 113.139 257.64 116.543 255.548C119.946 253.456 124.485 251.01 124.485 251.01L126.271 246.334C126.271 246.334 121.894 208.234 121.733 207.268C121.572 206.302 106.339 212.901 105.205 214.397C104.07 215.894 104.706 221.671 104.706 221.671Z" fill="#42403D" stroke="#42403D" stroke-width="0.5" stroke-linecap="round" stroke-linejoin="round"/>
<path d="M87.0514 323.903C85.315 326.446 83.7452 329.099 82.3522 331.845C81.1323 334.854 80.103 337.937 79.2703 341.075C78.7875 342.861 78.4656 343.183 76.8563 341.236C75.247 339.289 73.2916 334.919 74.2653 327.79C75.2389 320.661 79.0933 313.048 79.8979 313.37C80.7026 313.692 87.7112 318.069 87.7112 318.069L87.0514 323.903Z" fill="#F7F0E6" stroke="#42403D" stroke-width="0.5" stroke-linecap="round" stroke-linejoin="round"/>
<path d="M80.7353 313.813C80.3491 313.587 80.0514 313.427 79.9307 313.37C79.126 313.048 75.2314 320.661 74.298 327.79C73.3646 334.919 75.2717 339.297 76.889 341.236C77.75 342.274 78.2489 342.66 78.5949 342.531C77.5891 340.053 75.674 334.396 76.4062 328.924C77.1385 323.453 79.5525 316.79 80.7353 313.813Z" fill="#F7F0E6" stroke="#42403D" stroke-width="0.5" stroke-linecap="round" stroke-linejoin="round"/>
<path d="M126.586 244.676C126.586 244.676 124.172 255.048 124.478 261.043C124.784 267.038 125.773 274.159 125.773 274.159L124.317 301.381C124.317 301.381 112.167 302.355 110.058 303.972C107.95 305.589 93.0477 315.64 90.1267 316.774C88.7347 317.313 85.7574 318.722 85.7574 318.722C85.7574 318.722 82.8365 320.21 85.1056 323.429C87.3748 326.648 127.882 314.513 129.177 314.352C130.473 314.191 138.246 311.439 139.549 309.814C140.853 308.188 149.753 277.901 149.753 277.901L168.871 305.445C168.871 305.445 168.55 313.379 173.249 319.051C177.948 324.724 187.017 340.6 187.017 340.6L186.695 343.352C186.695 343.352 183.476 346.571 184.104 349.186C184.731 351.801 188.312 351.294 190.581 352.751C192.85 354.207 198.362 357.289 198.362 357.289C198.362 357.289 206.787 360.508 205.814 357.289C205.46 356.106 201.452 351.351 199.98 349.186C197.27 345.311 195.039 341.124 193.333 336.714C191.877 332.691 184.426 304.31 183.452 300.584C182.478 296.859 177.819 277.901 174.214 267.046C170.609 256.191 168.22 251.814 168.22 251.814L165.468 244.362L126.586 244.676Z" fill="#F7F0E6" stroke="#42403D" stroke-width="0.5" stroke-linecap="round" stroke-linejoin="round"/>
<path d="M174.213 267.038C170.648 256.175 168.218 251.806 168.218 251.806L165.466 244.354L126.585 244.676C126.585 244.676 124.171 255.049 124.477 261.043C124.783 267.038 125.772 274.159 125.772 274.159L124.533 297.261L142.067 302.974C145.141 293.576 149.751 277.893 149.751 277.893L166.867 302.548C172.276 301.003 177.441 298.706 182.212 295.724C180.337 288.378 176.941 275.342 174.213 267.038Z" stroke="#42403D" stroke-width="0.5" stroke-linecap="round" stroke-linejoin="round"/>
<path d="M149.751 277.894L151.047 268.012" stroke="#42403D" stroke-width="0.5" stroke-linecap="round" stroke-linejoin="round"/>
<path d="M151.86 275.463L156.881 271.247" stroke="#42403D" stroke-width="0.5" stroke-linecap="round" stroke-linejoin="round"/>
<path d="M127.391 282.101L143.436 286.639C143.436 286.639 143.115 284.225 143.597 284.048C144.08 283.871 130.473 280.645 130.473 280.645" stroke="#42403D" stroke-width="0.5" stroke-linecap="round" stroke-linejoin="round"/>
<path d="M131.799 296.915C135.444 298.227 139.459 299.554 139.548 299.112C139.708 298.307 142.766 289.552 142.766 289.552" stroke="#42403D" stroke-width="0.5" stroke-linecap="round" stroke-linejoin="round"/>
<path d="M126.907 284.854L125.934 294.743C125.934 294.743 127.728 295.435 130.022 296.272" stroke="#42403D" stroke-width="0.5" stroke-linecap="round" stroke-linejoin="round"/>
<path d="M136.468 251.645C135.808 253.388 134.879 255.017 133.716 256.473C132.578 257.791 131.041 258.701 129.338 259.064" stroke="#42403D" stroke-width="0.5" stroke-linecap="round" stroke-linejoin="round"/>
<path d="M128.557 276.364C128.452 277.627 128.364 278.375 128.364 278.375" stroke="#42403D" stroke-width="0.5" stroke-linecap="round" stroke-linejoin="round"/>
<path d="M129.82 250.671C129.82 250.671 127.068 260.874 127.881 265.251C128.554 268.336 128.824 271.496 128.685 274.65" stroke="#42403D" stroke-width="0.5" stroke-linecap="round" stroke-linejoin="round"/>
<path d="M155.587 254.075L152.666 260.07C152.666 260.07 156.883 259.265 156.4 261.044C155.917 262.822 155.306 264.608 155.306 264.608" stroke="#42403D" stroke-width="0.5" stroke-linecap="round" stroke-linejoin="round"/>
<path d="M164.654 295.821L166.923 299.281" stroke="#42403D" stroke-width="0.5" stroke-linecap="round" stroke-linejoin="round"/>
<path d="M152.342 277.081L163.447 293.987" stroke="#42403D" stroke-width="0.5" stroke-linecap="round" stroke-linejoin="round"/>
<path d="M126.586 244.676C126.586 244.676 124.172 255.048 124.478 261.043C124.784 267.038 125.773 274.159 125.773 274.159L124.317 301.381C124.317 301.381 112.167 302.355 110.058 303.972C107.95 305.589 93.0477 315.64 90.1267 316.774C88.7347 317.313 85.7574 318.722 85.7574 318.722C85.7574 318.722 82.8365 320.21 85.1056 323.429C87.3748 326.648 127.882 314.513 129.177 314.352C130.473 314.191 138.246 311.439 139.549 309.814C140.853 308.188 149.753 277.901 149.753 277.901L168.871 305.445C168.871 305.445 168.55 313.379 173.249 319.051C177.948 324.724 187.017 340.6 187.017 340.6L186.695 343.352C186.695 343.352 183.476 346.571 184.104 349.186C184.731 351.801 188.312 351.294 190.581 352.751C192.85 354.207 198.362 357.289 198.362 357.289C198.362 357.289 206.787 360.508 205.814 357.289C205.46 356.106 201.452 351.351 199.98 349.186C197.27 345.311 195.039 341.124 193.333 336.714C191.877 332.691 184.426 304.31 183.452 300.584C182.478 296.859 177.819 277.901 174.214 267.046C170.609 256.191 168.22 251.814 168.22 251.814L165.468 244.362L126.586 244.676Z" fill="#F7F0E6" stroke="#42403D" stroke-width="0.5" stroke-linecap="round" stroke-linejoin="round"/>
<path d="M205.812 357.281C205.458 356.098 201.451 351.342 199.978 349.178C198.924 347.633 197.926 346.039 197.009 344.438C192.479 346.12 186.693 343.344 186.693 343.344C186.693 343.344 183.475 346.562 184.102 349.178C184.73 351.793 188.311 351.286 190.58 352.742C192.849 354.199 198.361 357.281 198.361 357.281C198.361 357.281 206.802 360.523 205.812 357.281Z" fill="#F7F0E6" stroke="#42403D" stroke-width="0.5" stroke-linecap="round" stroke-linejoin="round"/>
<path d="M192.849 351.77C190.435 349.83 186.097 348.438 184.07 347.859C183.977 348.294 183.977 348.744 184.07 349.179C184.713 351.77 188.278 351.287 190.547 352.743C192.816 354.2 198.328 357.282 198.328 357.282C198.328 357.282 202.183 358.762 204.371 358.714C201.29 357.048 195.319 353.749 192.849 351.77Z" fill="#F7F0E6" stroke="#42403D" stroke-width="0.5" stroke-linecap="round" stroke-linejoin="round"/>
<path d="M174.213 267.038C170.648 256.175 168.218 251.806 168.218 251.806L165.466 244.354L126.585 244.676C126.585 244.676 124.171 255.049 124.477 261.043C124.783 267.038 125.772 274.159 125.772 274.159L124.533 297.261L142.067 302.974C145.141 293.576 149.751 277.893 149.751 277.893L166.867 302.548C172.276 301.003 177.441 298.706 182.212 295.724C180.337 288.378 176.941 275.342 174.213 267.038Z" fill="#6FC54C" stroke="#42403D" stroke-width="0.5" stroke-linecap="round" stroke-linejoin="round"/>
<path d="M149.751 277.894L151.047 268.012" stroke="#42403D" stroke-width="0.5" stroke-linecap="round" stroke-linejoin="round"/>
<path d="M151.86 275.463L156.881 271.247" stroke="#42403D" stroke-width="0.5" stroke-linecap="round" stroke-linejoin="round"/>
<path d="M127.391 282.101L143.436 286.639C143.436 286.639 143.115 284.225 143.597 284.048C144.08 283.871 130.473 280.645 130.473 280.645" stroke="#42403D" stroke-width="0.5" stroke-linecap="round" stroke-linejoin="round"/>
<path d="M131.799 296.915C135.444 298.227 139.459 299.554 139.548 299.112C139.708 298.307 142.766 289.552 142.766 289.552" stroke="#42403D" stroke-width="0.5" stroke-linecap="round" stroke-linejoin="round"/>
<path d="M126.907 284.854L125.934 294.743C125.934 294.743 127.728 295.435 130.022 296.272" stroke="#42403D" stroke-width="0.5" stroke-linecap="round" stroke-linejoin="round"/>
<path d="M136.468 251.645C135.808 253.388 134.879 255.017 133.716 256.473C132.578 257.791 131.041 258.701 129.338 259.064" stroke="#42403D" stroke-width="0.5" stroke-linecap="round" stroke-linejoin="round"/>
<path d="M128.557 276.364C128.452 277.627 128.364 278.375 128.364 278.375" stroke="#42403D" stroke-width="0.5" stroke-linecap="round" stroke-linejoin="round"/>
<path d="M129.82 250.671C129.82 250.671 127.068 260.874 127.881 265.251C128.554 268.336 128.824 271.496 128.685 274.65" stroke="#42403D" stroke-width="0.5" stroke-linecap="round" stroke-linejoin="round"/>
<path d="M155.587 254.075L152.666 260.07C152.666 260.07 156.883 259.265 156.4 261.044C155.917 262.822 155.306 264.608 155.306 264.608" stroke="#42403D" stroke-width="0.5" stroke-linecap="round" stroke-linejoin="round"/>
<path d="M164.654 295.821L166.923 299.281" stroke="#42403D" stroke-width="0.5" stroke-linecap="round" stroke-linejoin="round"/>
<path d="M152.342 277.081L163.447 293.987" stroke="#42403D" stroke-width="0.5" stroke-linecap="round" stroke-linejoin="round"/>
<path d="M129.885 185.968C129.885 185.968 123.818 187.014 123.118 187.014C122.418 187.014 116.109 186.435 115.176 187.247C114.243 188.06 92.2913 211.999 92.2913 211.999L100.587 218.187L118.29 209.432L120.624 209.545L127.624 241.538C127.624 241.538 125.878 245.385 126.224 246.318C126.581 247.018 127.103 247.62 127.745 248.072C127.745 248.072 145.649 252.973 150.477 252.86C155.305 252.747 163.665 250.406 164.719 249.826C165.773 249.247 168.332 247.018 167.866 244.918C167.399 242.818 166.119 238.617 166.119 238.617L162.692 191.464L175.647 163.679L166.192 156.863L151.708 174.027C151.708 174.027 141.199 179.861 140.62 180.915C140.04 181.969 129.885 185.968 129.885 185.968Z" fill="#ADADAD" stroke="#42403D" stroke-width="0.5" stroke-linecap="round" stroke-linejoin="round"/>
<path d="M161.878 178.26L162.69 191.456L164.091 174.759" stroke="#42403D" stroke-width="0.5" stroke-linecap="round" stroke-linejoin="round"/>
<path d="M128.372 210.365L120.663 209.553L126.039 213.166" stroke="#42403D" stroke-width="0.5" stroke-linecap="round" stroke-linejoin="round"/>
<path d="M152.963 184.31C152.963 184.31 158.595 203.55 158.909 211.572" stroke="#42403D" stroke-width="0.5" stroke-linecap="round" stroke-linejoin="round"/>
<path d="M154.894 197.313C154.831 204.427 154.09 211.519 152.681 218.492" stroke="#42403D" stroke-width="0.5" stroke-linecap="round" stroke-linejoin="round"/>
<path d="M147.7 178.082C147.7 178.082 152.995 181.646 150.235 201.578C147.475 221.51 120.752 248.884 120.752 248.884L124.477 250.993C124.477 250.993 140.192 234.465 146.67 220.206C153.148 205.947 154.29 193.797 153.968 189.91C153.646 186.024 150.886 176.786 150.886 176.786L147.7 178.082Z" fill="#42403D" stroke="#42403D" stroke-width="0.5" stroke-linecap="round" stroke-linejoin="round"/>
<path d="M132.208 179.523C132.208 179.523 129.794 180.231 129.287 181.743C128.78 183.256 127.469 186.274 127.469 186.274C127.469 186.274 130.792 192.019 132.811 194.739C134.831 197.459 137.141 202.391 137.849 201.281C138.557 200.17 142.073 193.725 142.178 193.234C142.373 192.595 142.805 192.054 143.385 191.721C143.787 191.617 150.844 194.336 152.148 194.642C153.451 194.948 152.856 193.934 152.252 192.325C151.649 190.715 146.306 183.763 144.898 182.154C143.489 180.544 133.512 178.517 132.208 179.523Z" fill="#ADADAD" stroke="#42403D" stroke-width="0.5" stroke-linecap="round" stroke-linejoin="round"/>
<path d="M125.176 166.825C123.597 163.941 122.509 160.814 121.958 157.572C121.153 152.446 124.774 146.813 125.981 146.612C127.188 146.411 127.486 148.825 127.486 148.825C127.486 148.825 136.74 139.072 140.159 140.279C143.579 141.486 140.658 144.608 140.658 144.608C140.658 144.608 148.399 142.597 147.699 146.717C146.999 150.836 145.583 151.239 145.583 151.239C142.542 151.141 139.529 151.835 136.836 153.25C131.912 155.664 131.509 156.067 132.008 157.073C132.507 158.078 132.708 157.475 131.501 161.297C130.294 165.119 129.892 165.819 131.002 168.032C132.113 170.245 132.209 170.342 130.898 170.543C129.586 170.744 127.18 168.531 127.18 168.531L125.176 166.825Z" fill="#42403D" stroke="#42403D" stroke-width="0.5" stroke-linecap="round" stroke-linejoin="round"/>
<path d="M131.614 154.449C131.614 154.449 127.39 160.178 128.291 159.977C129.192 159.776 130.906 157.965 130.809 159.776C130.713 161.586 128.492 164.403 128.798 165.006C129.103 165.61 130.809 168.627 130.101 169.029C129.393 169.432 128.999 169.528 128.693 169.231C128.387 168.933 126.883 167.219 125.177 166.817C123.471 166.414 122.36 169.327 123.27 171.435C124.179 173.544 128.999 174.654 128.999 174.654L131.212 175.258L131.614 181.695C131.614 181.695 138.953 190.659 140.361 192.268C141.769 193.878 143.676 195.68 144.078 194.578C144.481 193.475 147.699 178.09 147.699 178.09C147.699 178.09 152.922 177.084 153.227 173.568C153.533 170.051 152.72 162.206 150.113 157.378C147.506 152.55 146.388 151.045 142.372 150.844C138.357 150.643 132.62 152.84 131.614 154.449Z" fill="#F7F0E6" stroke="#42403D" stroke-width="0.5" stroke-linecap="round" stroke-linejoin="round"/>
<path d="M147.7 178.082L138.044 177.985L146.589 183.312L147.7 178.082Z" fill="#42403D" stroke="#42403D" stroke-width="0.5" stroke-linecap="round" stroke-linejoin="round"/>
<path d="M145.383 158.175C145.383 158.175 151.015 158.682 151.418 159.487C151.82 160.292 148.706 163.003 148.706 163.003" stroke="#42403D" stroke-width="0.5" stroke-linecap="round" stroke-linejoin="round"/>
<path d="M147.498 167.428C147.498 167.428 142.268 169.037 139.049 165.416C139.049 165.416 139.25 171.049 141.664 171.644C144.078 172.24 147.498 167.428 147.498 167.428Z" stroke="#42403D" stroke-width="0.5" stroke-linecap="round" stroke-linejoin="round"/>
<path d="M136.541 161.193C136.858 160.489 137.422 159.927 138.127 159.612C138.832 159.298 139.628 159.253 140.363 159.487" stroke="#42403D" stroke-width="0.5" stroke-linecap="round" stroke-linejoin="round"/>
<path d="M146.791 157.877C146.963 157.539 147.25 157.272 147.601 157.125C147.951 156.977 148.343 156.959 148.706 157.073" stroke="#42403D" stroke-width="0.5" stroke-linecap="round" stroke-linejoin="round"/>
<path d="M134.671 157.982C134.671 157.982 135.025 155.504 138.413 155.431" stroke="#42403D" stroke-width="0.5" stroke-linecap="round" stroke-linejoin="round"/>
<path d="M144.353 154.231C144.731 153.864 145.218 153.631 145.741 153.567C146.264 153.503 146.794 153.612 147.249 153.877" stroke="#42403D" stroke-width="0.5" stroke-linecap="round" stroke-linejoin="round"/>
<path d="M92.8945 218.63C91.2385 217.791 89.627 216.867 88.0665 215.862C87.2619 215.17 91.5186 205.755 91.937 205.481C92.3554 205.208 102.18 206.037 103.564 206.866C104.948 207.694 107.298 214.341 106.783 216.135C106.268 217.93 102.913 219.185 102.221 219.459C101.529 219.732 92.8945 218.63 92.8945 218.63Z" fill="#ADADAD" stroke="#42403D" stroke-width="0.5" stroke-linecap="round" stroke-linejoin="round"/>
<path d="M112.408 226.241C112.408 226.241 105.351 215.169 103.967 213.23C102.583 211.291 96.6365 209.77 93.7317 211.017C90.8268 212.264 88.606 216.272 89.298 217.8C89.99 219.329 104.385 227.899 104.385 227.899C104.385 227.899 102.728 235.946 103.42 236.622C104.892 237.914 106.513 239.027 108.248 239.937C109.358 240.355 111.016 238.834 111.016 238.834C111.66 238.908 112.311 238.908 112.955 238.834C113.647 238.698 114.476 237.587 114.476 237.587C114.476 237.587 115.281 238.971 116.142 237.724C117.003 236.477 117.107 235.511 116.415 235.093C115.723 234.674 115.168 231.914 115.168 231.914C115.168 231.914 115.973 229.701 115.313 228.173C114.653 226.644 112.408 226.241 112.408 226.241Z" fill="#F7F0E6" stroke="#42403D" stroke-width="0.5" stroke-linecap="round" stroke-linejoin="round"/>
<path d="M114.483 237.588L113.518 231.223" stroke="#42403D" stroke-width="0.5" stroke-linecap="round" stroke-linejoin="round"/>
<path d="M181.609 106.813C181.609 106.813 182.848 102.105 183.54 103.208C184.232 104.31 182.736 109.299 182.736 109.299C182.736 109.299 184.675 105.565 184.812 107.505C184.948 109.444 181.77 113.588 181.77 113.588L181.609 106.813Z" fill="#F7F0E6" stroke="#42403D" stroke-width="0.5" stroke-linecap="round" stroke-linejoin="round"/>
<path d="M168.178 155.664C168.178 155.664 180.916 124.661 181.19 123.695C181.463 122.729 177.311 112.76 177.03 110.684C176.748 108.608 175.782 102.637 177.03 102.637C178.277 102.637 177.834 103.739 177.834 104.431C177.834 105.123 179.218 110.796 179.218 110.796C179.218 110.796 180.023 104.158 180.192 103.466C180.361 102.774 180.997 101.663 181.713 102.492C182.429 103.321 181.986 104.295 181.986 104.987C181.986 105.679 182.123 111.215 182.123 111.625C182.649 113.088 183.25 114.522 183.926 115.922C183.926 115.922 185.865 112.044 186.138 110.249C186.412 108.455 187.522 105.815 187.941 108.31C188.233 110.163 188.09 112.058 187.522 113.846C187.249 114.538 189.325 119.1 188.633 120.484C187.941 121.868 185.881 124.677 185.881 125.216C185.881 125.755 177.44 160.782 177.44 160.782L168.178 155.664Z" fill="#F7F0E6" stroke="#42403D" stroke-width="0.5" stroke-linecap="round" stroke-linejoin="round"/>
<path d="M161.813 158.706C161.813 158.706 165.965 163.534 167.446 164.797C168.926 166.061 175.339 168.821 175.339 168.821L179.363 160.661C179.363 160.661 175.074 157.065 172.169 155.833C169.264 154.602 166.633 153.202 166.633 153.202L161.813 158.706Z" fill="#ADADAD" stroke="#42403D" stroke-width="0.5" stroke-linecap="round" stroke-linejoin="round"/>
</svg>
