<svg width="26" height="25" viewBox="0 0 26 25" fill="none" xmlns="http://www.w3.org/2000/svg">
<path d="M13.1196 24.3082C19.8379 24.3082 25.2842 18.8666 25.2842 12.1541C25.2842 5.44158 19.8379 0 13.1196 0C6.40133 0 0.955078 5.44158 0.955078 12.1541C0.955078 18.8666 6.40133 24.3082 13.1196 24.3082Z" fill="#515553"/>
<path fill-rule="evenodd" clip-rule="evenodd" d="M18.9711 6.45911C17.6484 5.13413 15.8885 4.33504 14.0196 4.21085C12.1507 4.08667 10.3004 4.64587 8.81371 5.78417C7.32702 6.92248 6.30543 8.56218 5.93945 10.3975C5.57347 12.2329 5.88809 14.1386 6.82462 15.7592L5.73071 19.753L9.8198 18.6816C10.9521 19.2965 12.2201 19.619 13.5088 19.6198C15.0349 19.6199 16.5268 19.1679 17.7958 18.3209C19.0649 17.4739 20.054 16.27 20.6383 14.8614C21.2226 13.4527 21.3757 11.9026 21.0783 10.4071C20.7809 8.9115 20.0464 7.53761 18.9675 6.45911H18.9711ZM13.5106 18.3179C12.3617 18.3152 11.2345 18.0043 10.2469 17.4176L10.0126 17.279L7.58514 17.9146L8.22309 15.5576L8.07892 15.3163C7.32336 14.1126 6.98957 12.6922 7.13003 11.2784C7.2705 9.86449 7.87725 8.53735 8.8549 7.50558C9.83256 6.47381 11.1257 5.79592 12.531 5.57848C13.9362 5.36104 15.374 5.61638 16.6182 6.30435C17.8624 6.99233 18.8425 8.07393 19.4044 9.37912C19.9663 10.6843 20.0782 12.1391 19.7224 13.5147C19.3666 14.8903 18.5634 16.1088 17.4389 16.9786C16.3145 17.8484 14.9327 18.3201 13.5106 18.3197V18.3179ZM17.0302 13.5157C16.8374 13.4185 15.8895 12.9539 15.7128 12.8891C15.5362 12.8243 15.4065 12.7937 15.2785 12.9863C15.1506 13.179 14.7811 13.6129 14.6676 13.7408C14.5541 13.8686 14.4423 13.8848 14.2495 13.7894C13.6817 13.5622 13.1573 13.2387 12.6996 12.8333C12.275 12.4446 11.9105 11.9949 11.6184 11.499C11.5048 11.3063 11.6057 11.2019 11.7031 11.1065C11.8004 11.011 11.8959 10.8814 11.9914 10.768C12.0715 10.6734 12.1377 10.5679 12.1878 10.4547C12.2131 10.4012 12.2249 10.3424 12.2221 10.2834C12.2192 10.2243 12.2019 10.1669 12.1716 10.1161C12.123 10.0207 11.7373 9.07179 11.5769 8.68646C11.4165 8.30113 11.2615 8.36236 11.1444 8.35696C11.0272 8.35155 10.9029 8.35696 10.7731 8.35696C10.6755 8.35972 10.5795 8.38258 10.4912 8.42409C10.4028 8.46561 10.3239 8.52489 10.2595 8.59824C10.0418 8.80458 9.86942 9.05394 9.75339 9.33045C9.63735 9.60697 9.58018 9.90458 9.58552 10.2044C9.58552 11.1515 10.2757 12.068 10.3731 12.1959C10.4704 12.3237 11.7319 14.2702 13.6656 15.1038C14.0247 15.2584 14.3917 15.3942 14.7649 15.5108C15.1584 15.63 15.5743 15.6559 15.9796 15.5864C16.3508 15.5306 17.1203 15.12 17.2807 14.6717C17.4411 14.2233 17.4429 13.8362 17.3943 13.7552C17.3456 13.6741 17.223 13.6165 17.0302 13.5157Z" fill="white"/>
</svg>
